<mxfile host="Electron" modified="2023-09-11T06:35:38.982Z" agent="Mozilla/5.0 (Macintosh; Intel Mac OS X 10_15_7) AppleWebKit/537.36 (KHTML, like Gecko) draw.io/21.6.8 Chrome/114.0.5735.289 Electron/25.5.0 Safari/537.36" etag="6UDs5WrrbjDG5RdGwT_C" version="21.6.8" type="device">
  <diagram id="7bKL54fqQZhdqDWmhADB" name="Detailed architecture">
    <mxGraphModel dx="1120" dy="894" grid="1" gridSize="10" guides="1" tooltips="1" connect="1" arrows="1" fold="1" page="1" pageScale="1" pageWidth="1654" pageHeight="2336" math="0" shadow="0">
      <root>
        <mxCell id="0" />
        <mxCell id="1" parent="0" />
        <mxCell id="cswYQk34HTQEtEmIS-BW-1" value="AWS Cloud" style="points=[[0,0],[0.25,0],[0.5,0],[0.75,0],[1,0],[1,0.25],[1,0.5],[1,0.75],[1,1],[0.75,1],[0.5,1],[0.25,1],[0,1],[0,0.75],[0,0.5],[0,0.25]];outlineConnect=0;gradientColor=none;html=1;whiteSpace=wrap;fontSize=12;fontStyle=0;container=1;pointerEvents=0;collapsible=0;recursiveResize=0;shape=mxgraph.aws4.group;grIcon=mxgraph.aws4.group_aws_cloud;strokeColor=#232F3E;fillColor=none;verticalAlign=top;align=left;spacingLeft=30;fontColor=#232F3E;dashed=0;" parent="1" vertex="1">
          <mxGeometry x="270" y="230" width="930" height="630" as="geometry" />
        </mxCell>
        <mxCell id="cswYQk34HTQEtEmIS-BW-2" value="Region" style="points=[[0,0],[0.25,0],[0.5,0],[0.75,0],[1,0],[1,0.25],[1,0.5],[1,0.75],[1,1],[0.75,1],[0.5,1],[0.25,1],[0,1],[0,0.75],[0,0.5],[0,0.25]];outlineConnect=0;gradientColor=none;html=1;whiteSpace=wrap;fontSize=12;fontStyle=0;container=1;pointerEvents=0;collapsible=0;recursiveResize=0;shape=mxgraph.aws4.group;grIcon=mxgraph.aws4.group_region;strokeColor=#147EBA;fillColor=none;verticalAlign=top;align=left;spacingLeft=30;fontColor=#147EBA;dashed=1;" parent="cswYQk34HTQEtEmIS-BW-1" vertex="1">
          <mxGeometry x="10" y="40" width="910" height="580" as="geometry" />
        </mxCell>
        <mxCell id="cswYQk34HTQEtEmIS-BW-3" value="Default VPC" style="points=[[0,0],[0.25,0],[0.5,0],[0.75,0],[1,0],[1,0.25],[1,0.5],[1,0.75],[1,1],[0.75,1],[0.5,1],[0.25,1],[0,1],[0,0.75],[0,0.5],[0,0.25]];outlineConnect=0;gradientColor=none;html=1;whiteSpace=wrap;fontSize=12;fontStyle=0;container=1;pointerEvents=0;collapsible=0;recursiveResize=0;shape=mxgraph.aws4.group;grIcon=mxgraph.aws4.group_vpc;strokeColor=#248814;fillColor=none;verticalAlign=top;align=left;spacingLeft=30;fontColor=#AAB7B8;dashed=0;" parent="cswYQk34HTQEtEmIS-BW-2" vertex="1">
          <mxGeometry x="10" y="30" width="890" height="540" as="geometry" />
        </mxCell>
        <mxCell id="cswYQk34HTQEtEmIS-BW-4" value="Availability Zone" style="fillColor=none;strokeColor=#147EBA;dashed=1;verticalAlign=top;fontStyle=0;fontColor=#147EBA;" parent="cswYQk34HTQEtEmIS-BW-3" vertex="1">
          <mxGeometry x="120" y="20" width="390" height="240" as="geometry" />
        </mxCell>
        <mxCell id="cswYQk34HTQEtEmIS-BW-5" value="Public subnet" style="points=[[0,0],[0.25,0],[0.5,0],[0.75,0],[1,0],[1,0.25],[1,0.5],[1,0.75],[1,1],[0.75,1],[0.5,1],[0.25,1],[0,1],[0,0.75],[0,0.5],[0,0.25]];outlineConnect=0;gradientColor=none;html=1;whiteSpace=wrap;fontSize=12;fontStyle=0;container=0;pointerEvents=0;collapsible=0;recursiveResize=0;shape=mxgraph.aws4.group;grIcon=mxgraph.aws4.group_security_group;grStroke=0;strokeColor=#248814;fillColor=#E9F3E6;verticalAlign=top;align=left;spacingLeft=30;fontColor=#248814;dashed=0;" parent="cswYQk34HTQEtEmIS-BW-3" vertex="1">
          <mxGeometry x="130" y="45" width="370" height="205" as="geometry" />
        </mxCell>
        <mxCell id="cswYQk34HTQEtEmIS-BW-6" value="Amazon EC2&lt;br&gt;(RPC Node 1)" style="sketch=0;points=[[0,0,0],[0.25,0,0],[0.5,0,0],[0.75,0,0],[1,0,0],[0,1,0],[0.25,1,0],[0.5,1,0],[0.75,1,0],[1,1,0],[0,0.25,0],[0,0.5,0],[0,0.75,0],[1,0.25,0],[1,0.5,0],[1,0.75,0]];outlineConnect=0;fontColor=#232F3E;gradientColor=#F78E04;gradientDirection=north;fillColor=#D05C17;strokeColor=#ffffff;dashed=0;verticalLabelPosition=bottom;verticalAlign=top;align=center;html=1;fontSize=12;fontStyle=0;aspect=fixed;shape=mxgraph.aws4.resourceIcon;resIcon=mxgraph.aws4.ec2;" parent="cswYQk34HTQEtEmIS-BW-3" vertex="1">
          <mxGeometry x="176" y="130" width="78" height="78" as="geometry" />
        </mxCell>
        <mxCell id="cswYQk34HTQEtEmIS-BW-7" value="Availability Zone" style="fillColor=none;strokeColor=#147EBA;dashed=1;verticalAlign=top;fontStyle=0;fontColor=#147EBA;" parent="cswYQk34HTQEtEmIS-BW-3" vertex="1">
          <mxGeometry x="120" y="300" width="390" height="200" as="geometry" />
        </mxCell>
        <mxCell id="cswYQk34HTQEtEmIS-BW-8" value="Public subnet" style="points=[[0,0],[0.25,0],[0.5,0],[0.75,0],[1,0],[1,0.25],[1,0.5],[1,0.75],[1,1],[0.75,1],[0.5,1],[0.25,1],[0,1],[0,0.75],[0,0.5],[0,0.25]];outlineConnect=0;gradientColor=none;html=1;whiteSpace=wrap;fontSize=12;fontStyle=0;container=1;pointerEvents=0;collapsible=0;recursiveResize=0;shape=mxgraph.aws4.group;grIcon=mxgraph.aws4.group_security_group;grStroke=0;strokeColor=#248814;fillColor=#E9F3E6;verticalAlign=top;align=left;spacingLeft=30;fontColor=#248814;dashed=0;" parent="cswYQk34HTQEtEmIS-BW-3" vertex="1">
          <mxGeometry x="130" y="320" width="370" height="170" as="geometry" />
        </mxCell>
        <mxCell id="cswYQk34HTQEtEmIS-BW-9" value="Amazon EC2&lt;br&gt;(RPC Node 2)" style="sketch=0;points=[[0,0,0],[0.25,0,0],[0.5,0,0],[0.75,0,0],[1,0,0],[0,1,0],[0.25,1,0],[0.5,1,0],[0.75,1,0],[1,1,0],[0,0.25,0],[0,0.5,0],[0,0.75,0],[1,0.25,0],[1,0.5,0],[1,0.75,0]];outlineConnect=0;fontColor=#232F3E;gradientColor=#F78E04;gradientDirection=north;fillColor=#D05C17;strokeColor=#ffffff;dashed=0;verticalLabelPosition=bottom;verticalAlign=top;align=center;html=1;fontSize=12;fontStyle=0;aspect=fixed;shape=mxgraph.aws4.resourceIcon;resIcon=mxgraph.aws4.ec2;" parent="cswYQk34HTQEtEmIS-BW-3" vertex="1">
          <mxGeometry x="180" y="360" width="78" height="78" as="geometry" />
        </mxCell>
        <mxCell id="cswYQk34HTQEtEmIS-BW-10" value="Auto Scaling group" style="points=[[0,0],[0.25,0],[0.5,0],[0.75,0],[1,0],[1,0.25],[1,0.5],[1,0.75],[1,1],[0.75,1],[0.5,1],[0.25,1],[0,1],[0,0.75],[0,0.5],[0,0.25]];outlineConnect=0;gradientColor=none;html=1;whiteSpace=wrap;fontSize=12;fontStyle=0;container=0;pointerEvents=0;collapsible=0;recursiveResize=0;shape=mxgraph.aws4.groupCenter;grIcon=mxgraph.aws4.group_auto_scaling_group;grStroke=1;strokeColor=#D86613;fillColor=none;verticalAlign=top;align=center;fontColor=#D86613;dashed=1;spacingTop=25;" parent="cswYQk34HTQEtEmIS-BW-3" vertex="1">
          <mxGeometry x="140" y="80" width="150" height="400" as="geometry" />
        </mxCell>
        <mxCell id="cswYQk34HTQEtEmIS-BW-11" value="" style="edgeStyle=orthogonalEdgeStyle;rounded=0;orthogonalLoop=1;jettySize=auto;html=1;fontSize=18;fontColor=#FFFFFF;entryX=1;entryY=0.5;entryDx=0;entryDy=0;entryPerimeter=0;" parent="cswYQk34HTQEtEmIS-BW-3" source="cswYQk34HTQEtEmIS-BW-13" target="cswYQk34HTQEtEmIS-BW-9" edge="1">
          <mxGeometry relative="1" as="geometry">
            <mxPoint x="380" y="169" as="targetPoint" />
            <Array as="points">
              <mxPoint x="330" y="169" />
              <mxPoint x="330" y="399" />
            </Array>
          </mxGeometry>
        </mxCell>
        <mxCell id="cswYQk34HTQEtEmIS-BW-12" value="" style="edgeStyle=orthogonalEdgeStyle;rounded=0;orthogonalLoop=1;jettySize=auto;html=1;fontSize=18;fontColor=#FFFFFF;" parent="cswYQk34HTQEtEmIS-BW-3" source="cswYQk34HTQEtEmIS-BW-13" target="cswYQk34HTQEtEmIS-BW-6" edge="1">
          <mxGeometry relative="1" as="geometry">
            <mxPoint x="499" y="49.99911365650769" as="targetPoint" />
          </mxGeometry>
        </mxCell>
        <mxCell id="cswYQk34HTQEtEmIS-BW-13" value="Application Load&lt;br&gt;Balancer&amp;nbsp;" style="sketch=0;outlineConnect=0;fontColor=#232F3E;gradientColor=none;fillColor=#4D27AA;strokeColor=none;dashed=0;verticalLabelPosition=bottom;verticalAlign=top;align=center;html=1;fontSize=12;fontStyle=0;aspect=fixed;pointerEvents=1;shape=mxgraph.aws4.application_load_balancer;" parent="cswYQk34HTQEtEmIS-BW-3" vertex="1">
          <mxGeometry x="590" y="130" width="78" height="78" as="geometry" />
        </mxCell>
        <mxCell id="cswYQk34HTQEtEmIS-BW-14" value="&lt;b&gt;&lt;font color=&quot;#ffffff&quot; style=&quot;font-size: 18px;&quot;&gt;3&lt;/font&gt;&lt;/b&gt;" style="ellipse;whiteSpace=wrap;html=1;aspect=fixed;fillColor=#FF9933;strokeColor=none;" parent="cswYQk34HTQEtEmIS-BW-3" vertex="1">
          <mxGeometry x="430" y="230" width="40" height="40" as="geometry" />
        </mxCell>
        <mxCell id="cswYQk34HTQEtEmIS-BW-15" value="" style="edgeStyle=orthogonalEdgeStyle;rounded=0;orthogonalLoop=1;jettySize=auto;html=1;entryX=0;entryY=0.5;entryDx=0;entryDy=0;entryPerimeter=0;" parent="cswYQk34HTQEtEmIS-BW-3" source="cswYQk34HTQEtEmIS-BW-18" target="cswYQk34HTQEtEmIS-BW-6" edge="1">
          <mxGeometry relative="1" as="geometry">
            <Array as="points">
              <mxPoint x="160" y="281" />
              <mxPoint x="160" y="169" />
            </Array>
          </mxGeometry>
        </mxCell>
        <mxCell id="cswYQk34HTQEtEmIS-BW-16" value="" style="edgeStyle=orthogonalEdgeStyle;rounded=0;orthogonalLoop=1;jettySize=auto;html=1;entryX=0;entryY=0.5;entryDx=0;entryDy=0;entryPerimeter=0;" parent="cswYQk34HTQEtEmIS-BW-3" source="cswYQk34HTQEtEmIS-BW-18" target="cswYQk34HTQEtEmIS-BW-9" edge="1">
          <mxGeometry relative="1" as="geometry">
            <Array as="points">
              <mxPoint x="160" y="281" />
              <mxPoint x="160" y="399" />
            </Array>
          </mxGeometry>
        </mxCell>
        <mxCell id="cswYQk34HTQEtEmIS-BW-17" value="" style="edgeStyle=orthogonalEdgeStyle;rounded=0;orthogonalLoop=1;jettySize=auto;html=1;entryX=0;entryY=0.5;entryDx=0;entryDy=0;entryPerimeter=0;exitX=1.013;exitY=0.692;exitDx=0;exitDy=0;exitPerimeter=0;" parent="cswYQk34HTQEtEmIS-BW-3" source="cswYQk34HTQEtEmIS-BW-18" target="cswYQk34HTQEtEmIS-BW-19" edge="1">
          <mxGeometry relative="1" as="geometry">
            <Array as="points">
              <mxPoint x="110" y="304" />
              <mxPoint x="110" y="520" />
              <mxPoint x="380" y="520" />
              <mxPoint x="380" y="399" />
            </Array>
          </mxGeometry>
        </mxCell>
        <mxCell id="cswYQk34HTQEtEmIS-BW-18" value="Internet Gateway" style="sketch=0;outlineConnect=0;fontColor=#232F3E;gradientColor=none;fillColor=#4D27AA;strokeColor=none;dashed=0;verticalLabelPosition=bottom;verticalAlign=top;align=center;html=1;fontSize=12;fontStyle=0;aspect=fixed;pointerEvents=1;shape=mxgraph.aws4.internet_gateway;" parent="cswYQk34HTQEtEmIS-BW-3" vertex="1">
          <mxGeometry x="20" y="250" width="78" height="78" as="geometry" />
        </mxCell>
        <mxCell id="cswYQk34HTQEtEmIS-BW-19" value="Amazon EC2&lt;br&gt;(Sync Node)" style="sketch=0;points=[[0,0,0],[0.25,0,0],[0.5,0,0],[0.75,0,0],[1,0,0],[0,1,0],[0.25,1,0],[0.5,1,0],[0.75,1,0],[1,1,0],[0,0.25,0],[0,0.5,0],[0,0.75,0],[1,0.25,0],[1,0.5,0],[1,0.75,0]];outlineConnect=0;fontColor=#232F3E;gradientColor=#F78E04;gradientDirection=north;fillColor=#D05C17;strokeColor=#ffffff;dashed=0;verticalLabelPosition=bottom;verticalAlign=top;align=center;html=1;fontSize=12;fontStyle=0;aspect=fixed;shape=mxgraph.aws4.resourceIcon;resIcon=mxgraph.aws4.ec2;" parent="cswYQk34HTQEtEmIS-BW-3" vertex="1">
          <mxGeometry x="400" y="360" width="78" height="78" as="geometry" />
        </mxCell>
        <mxCell id="cswYQk34HTQEtEmIS-BW-20" value="&lt;b&gt;&lt;font color=&quot;#ffffff&quot; style=&quot;font-size: 18px;&quot;&gt;2&lt;/font&gt;&lt;/b&gt;" style="ellipse;whiteSpace=wrap;html=1;aspect=fixed;fillColor=#FF9933;strokeColor=none;" parent="cswYQk34HTQEtEmIS-BW-3" vertex="1">
          <mxGeometry x="520" y="349" width="40" height="40" as="geometry" />
        </mxCell>
        <mxCell id="cswYQk34HTQEtEmIS-BW-21" style="edgeStyle=orthogonalEdgeStyle;rounded=0;orthogonalLoop=1;jettySize=auto;html=1;entryX=1;entryY=0.75;entryDx=0;entryDy=0;entryPerimeter=0;dashed=1;strokeWidth=2;" parent="cswYQk34HTQEtEmIS-BW-3" source="cswYQk34HTQEtEmIS-BW-32" target="cswYQk34HTQEtEmIS-BW-6" edge="1">
          <mxGeometry relative="1" as="geometry">
            <Array as="points">
              <mxPoint x="370" y="281" />
              <mxPoint x="370" y="189" />
            </Array>
          </mxGeometry>
        </mxCell>
        <mxCell id="cswYQk34HTQEtEmIS-BW-22" value="Amazon S3 Bucket&lt;br&gt;(Node Data Snapshot)" style="sketch=0;points=[[0,0,0],[0.25,0,0],[0.5,0,0],[0.75,0,0],[1,0,0],[0,1,0],[0.25,1,0],[0.5,1,0],[0.75,1,0],[1,1,0],[0,0.25,0],[0,0.5,0],[0,0.75,0],[1,0.25,0],[1,0.5,0],[1,0.75,0]];outlineConnect=0;fontColor=#232F3E;gradientColor=#60A337;gradientDirection=north;fillColor=#277116;strokeColor=#ffffff;dashed=0;verticalLabelPosition=bottom;verticalAlign=top;align=center;html=1;fontSize=12;fontStyle=0;aspect=fixed;shape=mxgraph.aws4.resourceIcon;resIcon=mxgraph.aws4.s3;" parent="cswYQk34HTQEtEmIS-BW-3" vertex="1">
          <mxGeometry x="770" y="361" width="78" height="78" as="geometry" />
        </mxCell>
        <mxCell id="cswYQk34HTQEtEmIS-BW-23" style="edgeStyle=orthogonalEdgeStyle;rounded=0;orthogonalLoop=1;jettySize=auto;html=1;exitX=1;exitY=0.5;exitDx=0;exitDy=0;exitPerimeter=0;dashed=1;strokeWidth=2;" parent="cswYQk34HTQEtEmIS-BW-3" source="cswYQk34HTQEtEmIS-BW-19" target="cswYQk34HTQEtEmIS-BW-32" edge="1">
          <mxGeometry relative="1" as="geometry" />
        </mxCell>
        <mxCell id="cswYQk34HTQEtEmIS-BW-24" value="&lt;b&gt;&lt;font color=&quot;#ffffff&quot; style=&quot;font-size: 18px;&quot;&gt;1&lt;/font&gt;&lt;/b&gt;" style="ellipse;whiteSpace=wrap;html=1;aspect=fixed;fillColor=#FF9933;strokeColor=none;" parent="cswYQk34HTQEtEmIS-BW-3" vertex="1">
          <mxGeometry x="39" y="360" width="40" height="40" as="geometry" />
        </mxCell>
        <mxCell id="cswYQk34HTQEtEmIS-BW-25" value="Applications" style="rounded=1;whiteSpace=wrap;html=1;" parent="cswYQk34HTQEtEmIS-BW-3" vertex="1">
          <mxGeometry x="760" y="80" width="120" height="60" as="geometry" />
        </mxCell>
        <mxCell id="cswYQk34HTQEtEmIS-BW-26" value="Smart Contract&lt;br&gt;Development Tools" style="rounded=1;whiteSpace=wrap;html=1;" parent="cswYQk34HTQEtEmIS-BW-3" vertex="1">
          <mxGeometry x="760" y="190" width="120" height="60" as="geometry" />
        </mxCell>
        <mxCell id="cswYQk34HTQEtEmIS-BW-27" value="&lt;b&gt;&lt;font color=&quot;#ffffff&quot; style=&quot;font-size: 18px;&quot;&gt;5&lt;/font&gt;&lt;/b&gt;" style="ellipse;whiteSpace=wrap;html=1;aspect=fixed;fillColor=#FF9933;strokeColor=none;" parent="cswYQk34HTQEtEmIS-BW-3" vertex="1">
          <mxGeometry x="690" y="120" width="40" height="40" as="geometry" />
        </mxCell>
        <mxCell id="cswYQk34HTQEtEmIS-BW-28" style="edgeStyle=orthogonalEdgeStyle;rounded=0;orthogonalLoop=1;jettySize=auto;html=1;exitX=0;exitY=0.5;exitDx=0;exitDy=0;fontSize=18;fontColor=#FFFFFF;" parent="cswYQk34HTQEtEmIS-BW-3" source="cswYQk34HTQEtEmIS-BW-25" target="cswYQk34HTQEtEmIS-BW-13" edge="1">
          <mxGeometry relative="1" as="geometry">
            <Array as="points">
              <mxPoint x="740" y="110" />
              <mxPoint x="740" y="169" />
            </Array>
          </mxGeometry>
        </mxCell>
        <mxCell id="cswYQk34HTQEtEmIS-BW-29" style="edgeStyle=orthogonalEdgeStyle;rounded=0;orthogonalLoop=1;jettySize=auto;html=1;exitX=0;exitY=0.5;exitDx=0;exitDy=0;fontSize=18;fontColor=#FFFFFF;" parent="cswYQk34HTQEtEmIS-BW-3" source="cswYQk34HTQEtEmIS-BW-26" target="cswYQk34HTQEtEmIS-BW-13" edge="1">
          <mxGeometry relative="1" as="geometry">
            <Array as="points">
              <mxPoint x="740" y="220" />
              <mxPoint x="740" y="169" />
            </Array>
          </mxGeometry>
        </mxCell>
        <mxCell id="cswYQk34HTQEtEmIS-BW-30" value="" style="edgeStyle=orthogonalEdgeStyle;rounded=0;orthogonalLoop=1;jettySize=auto;html=1;entryX=1;entryY=0.25;entryDx=0;entryDy=0;entryPerimeter=0;dashed=1;strokeWidth=2;" parent="cswYQk34HTQEtEmIS-BW-3" source="cswYQk34HTQEtEmIS-BW-32" target="cswYQk34HTQEtEmIS-BW-9" edge="1">
          <mxGeometry relative="1" as="geometry">
            <Array as="points">
              <mxPoint x="638" y="280" />
              <mxPoint x="370" y="280" />
              <mxPoint x="370" y="380" />
            </Array>
          </mxGeometry>
        </mxCell>
        <mxCell id="cswYQk34HTQEtEmIS-BW-31" value="" style="edgeStyle=orthogonalEdgeStyle;rounded=0;orthogonalLoop=1;jettySize=auto;html=1;dashed=1;strokeWidth=2;startArrow=classic;startFill=1;" parent="cswYQk34HTQEtEmIS-BW-3" source="cswYQk34HTQEtEmIS-BW-32" target="cswYQk34HTQEtEmIS-BW-22" edge="1">
          <mxGeometry relative="1" as="geometry" />
        </mxCell>
        <mxCell id="cswYQk34HTQEtEmIS-BW-32" value="" style="sketch=0;outlineConnect=0;fontColor=#232F3E;gradientColor=none;fillColor=#4D27AA;strokeColor=none;dashed=0;verticalLabelPosition=bottom;verticalAlign=top;align=center;html=1;fontSize=12;fontStyle=0;aspect=fixed;pointerEvents=1;shape=mxgraph.aws4.endpoint;" parent="cswYQk34HTQEtEmIS-BW-3" vertex="1">
          <mxGeometry x="608" y="369" width="60" height="60" as="geometry" />
        </mxCell>
        <mxCell id="cswYQk34HTQEtEmIS-BW-33" value="VPC Endpoint" style="text;html=1;strokeColor=none;fillColor=none;align=center;verticalAlign=middle;whiteSpace=wrap;rounded=0;" parent="cswYQk34HTQEtEmIS-BW-3" vertex="1">
          <mxGeometry x="608" y="438" width="60" height="30" as="geometry" />
        </mxCell>
        <mxCell id="KTqyMOsDN6SB3SA29uWS-4" value="&lt;b&gt;&lt;font color=&quot;#ffffff&quot; style=&quot;font-size: 18px;&quot;&gt;4&lt;/font&gt;&lt;/b&gt;" style="ellipse;whiteSpace=wrap;html=1;aspect=fixed;fillColor=#FF9933;strokeColor=none;" parent="cswYQk34HTQEtEmIS-BW-3" vertex="1">
          <mxGeometry x="39" y="190" width="40" height="40" as="geometry" />
        </mxCell>
        <mxCell id="cswYQk34HTQEtEmIS-BW-34" style="edgeStyle=orthogonalEdgeStyle;rounded=0;orthogonalLoop=1;jettySize=auto;html=1;exitX=0.875;exitY=0.5;exitDx=0;exitDy=0;exitPerimeter=0;" parent="1" source="cswYQk34HTQEtEmIS-BW-35" target="cswYQk34HTQEtEmIS-BW-18" edge="1">
          <mxGeometry relative="1" as="geometry">
            <Array as="points">
              <mxPoint x="290" y="581" />
              <mxPoint x="290" y="581" />
            </Array>
          </mxGeometry>
        </mxCell>
        <mxCell id="cswYQk34HTQEtEmIS-BW-35" value="" style="ellipse;shape=cloud;whiteSpace=wrap;html=1;" parent="1" vertex="1">
          <mxGeometry x="70" y="520.5" width="160" height="121" as="geometry" />
        </mxCell>
        <mxCell id="KTqyMOsDN6SB3SA29uWS-1" value="Polygon&#xa;Network" style="shape=image;verticalLabelPosition=bottom;labelBackgroundColor=default;verticalAlign=top;aspect=fixed;imageAspect=0;image=data:image/png,iVBORw0KGgoAAAANSUhEUgAAAlgAAAJYCAYAAAC+ZpjcAAAACXBIWXMAAAsSAAALEgHS3X78AAAgAElEQVR4nOy9CZQjV33vPwPYBPBjsQkhgbxAAoE4WCWptbTU7bAYCDzAgQDOH0ICBP9JWMIa8iCAe9/3TRK2MTYYQ8AOGGP2zYAxhi71pr271T3jsWfsGY9nPPum+869VSXduqqSarlXqlLf3zn3SD3gASbvvPmc7+/3+/x27eLFixcvXrx48eLFixcvXrx48eLFixcvXrx48eLFixcvXrx48eLFixcvXrx48eLFixcvXrx48eLFq1Vq1r9a9Wb8q7um5U/1W1H/7JN/blurPPyfx3+deNNta7um0Ocq+l7rSf8+raf8s6ny48WLFy9evHjxaggwaUIUhCOf6teeOuNfvWzWv/rsGf/qH037V/9yxr/aMeNfjcovPONffcOMf/VfZvyr70bPtyJ9tq2hN638etta14x/dWCmba2ffNPS5+B029rnptrW3j8N/zndt/reqba1N0y1rXVOt61FptvWovK7fKpt7Y+n21Yvm25bfc5UW+oZU22pXfBNwk+/9H0qsCZ/pnZNwu+BVNXjxYsXL168ePHaNedfQW8WpUnLKFWa9S/vmpXTJCWBmvWvXgyhada/cumsf/X5s/7VF836V/9q1r/aPutfCc/6V6+a8a++cda/+qZZ/+pbZv0rn5j1r14341/pmvGv9E37V2Mz/tXvzPhXvy2/O2b8q/fN+FcfnPGt7EHPvyq9tjX186+BmTb9N922Cqbb1sBU29oj021re2q8B6bb1u6bblv77pR/7VvTbWt3TretfXu6be2G6bbVgem2teum29Z6pttSn55qS71pqi119aQ/9eYpf+pVU21r4alACr4rpgKpv5gKpP5sKpC6bCqQumQqkPoDBF0oHVNgTP/x4sWLFy9evFqgIDzN6T3fyq6bpO9PnvGvPGXGv/KMWf/yZbO+lT+a9a/+6ax/9YWzvpW/nPWvQHD6x1n/6kdn/asjs/7Vm2b9q7fP+FfWZv2rq7P+1SOz/lUA34z8lO/T2K+h7z75Z9+K/POK9OB3CE3o31sFUqVqsCp/lqbkn+HvJ30Sr03/TaF/fRV9TrWlZFhLoTcJP/2pw1NtqZWpwNryVFvq7qlA6sapQGp6KpD62FTb2j9PBVJvmwqk/nyqbQ2C1/OnAqnnTgVSz54KpJ4+FUg9dSqQuhjBlQJebWu7JlEKlto1EUjvmsQeL168ePHixcuhNeeVwEkXqvwru+d8y+jJ8PW8Wf/K62b8y2+f8S93zfqXr5/1r9w161/NzvpXTyvgVP1Wyt8hIM3C518t4f8eErCqHg5XCmCZfHJ6VROiaj8IZavy7wEBK1UBLH+qNOWXfw5ov0n4n1/5eXkqkPrBVCD1palA6jNTgdR7pgKp18jgdTGEqqm2td2TgRR6JGBx2OLFixcvXrwcVAiolKcNWJfO+VeumvOvvG/Ov/K5Od/KV+b8K7+f860UZ33LD834Vw7O+JYPzfiXj876V07IYHUegZKvPmBhr0TCVV3Awn+2CFdTNuFKSa1wuCoDlvIzDlNta2CSgCyUdgVS56baUqenAqkTU4HU0cm2tcNTgdQjk22pBycDqf2TgZQ4FVj74lRgbXAykPrIRCB95WQg/SyUaMGZr0C6KtXiyRYvXrx48eLFuCSIWlYB1azy6YW/vvy8Oe9K56xv5V1z/pXPz/lXvjjnX/nunH/l3jn/ytqcf6U45195aM6/cmzWtwzmECRByIGfy/JTwEn6nPGtlGb8K6pkSu/NmEmvcMBSoMkAZE1TS6/kdmL5SeAkgxV6OFzVSrGmYJsykIIPTAYghMmv6p9BYHZ0si318GQgtWcikF6ZDKR/PRlI/2AykP7qZCDdOxlIXzMZSL9iMpD+i1oJFwcvXrx48eLFy24qhSdT0ufFc76Vv5jzrbxyzrfy/835Vj49612emvOu3DrnW/nRnG9lac6/8uCsf+XcnF8GKd8K+pzDPiWIggClgJXy6sNUPbiaYZBekXA1TTW9WsPnrqRnBK4Mvsk2CGBS8jXRlgYTgTT6Pok+y+/hyUD695OB9E8mA+n/ngyk5ybbUp+dDKTfNRlId04G0i+aDKQvkWa40rsmg/Cldk0E07vGg2n0yYsXL168ePGSa963LL8lOaGSNvmkVGrlKXO+lefP+Vb+es678vI538o1c76VT8z5VhZmvSs/nvOt5Ge9yxJAeRWAWpY+FZjyr5TkzzJEVadXOFhZhyzTrUET6RUOVvTTq3JbUNUmtAtWUqpVTq8kwAoogJUGk23p0qQ2bOGvOBlI3z0ZSMcn29KfmQyk/3EimH7FZDDtmQym/mwimHoaTLsgYGk9Xrx48eLFa4cBlfy88C1BwHrCvG/paXM+tMn3J3O+Fc+cb+Uf5nwrg3O+lW/O+VY2FYiCUFWGqApclTCoqnoKWOGgJaVXy1TSK0NwRbYGtbcGddMr+3NXOGCltNMro61Bw08NV8r3GkClPBm+yjBW+R5MPzARTN85EUxPTgTT7xoPpr0TwfSfTATTz54IpC+ZCKafNBHMyJCVKT9evHjx4sWrpWqOACr5593zvuUnzHmXds/7li6Z9y0Jc77lf53zLd8w61tJzflWTksAtQzmMKCa9S6XVGClPLINWONVw5W99MrUYDs5e9Wk1qCyNTiNp1d+dumVTlvQ+JMAqzQRlH6eQL9nCowH02AimL4wEUwXJoLpWyYCqQ9NBFOhiWD6qRPB7O6JYOYJE8E0/FTB1kSAAxcvXrx48WqlxEpqAz5x3rccmvctf2ret/yted9Sbs67fGjOu3xk1rtycta3ch6BFZFSoeF0nwZg4VBVJ8VSWoPq2asGtwdNbgvSbg+SWoZJBu3BSdaAJYGVDFgp+P38RDB9ciKYOjoeSB2cCKaLE8HMdyeCmU9PBDPRiWDmaUqiNc4hixcvXrx4tQJQzfuWnjTvWw7M+5Y/NO9bvmnet/zzed/y0rxv+YE53/LJed8SSqmQT0pJrRBAYTCl9QymV2R7sHr2ylqLUE8qarg9aAKy7IEVOXulbA1WNgerwMo2ZK1ptActgpW6PViGKxmwEHRJT57xKv+cOTURzOybCGRWJoKZn08E01+eCGb+fSKYecVEIHMJTLHINiJvJfLixYsXr6YXkUpVvqOZquWXzvuW3zLvW/74vG95fs639IN53/L6vG/53LxvGaDnXQIKXEGYqgCWgaeAlXqgXReu8E1B7fTKfGJlamvQglSUnL2yDld4eiXNXeHpVdXWoE24UpIrKukVBlh4egWTK7k9iD2UZJUmApnSRDCjQBYYR/8M/Bn9+oYEW5kbJoLpT04EM2+dCGYuH5c9XErCNSY/+J0XL168ePFiXjWA6rJ53/IV877lq+Z8y++f9y1fP+9bXpz3LZ+AMAUhqgxWvqXSPGr1oe8osaokV0RrsF56Zao1uKwBV/bmriwpGRqaXuFzV+qtQd30iiJc0Uqv0O+hTq4IwEJwhadX+JOBS3rSP4e+n5sIZpYmgukbJ4KZfxsPZt4wEcx4J4IZOCyP4Ip8vHjx4sWLF7uWH9z88y3Dtt8z533LfyrPU31y3rf87Xnf8lEEVBWYkpIqL4Iq9GsKSClwVQEsE+mV11x6VUsoasd5xUooSi+90ndeaaZXlLcGLadXRFsQwRWWXmkkVwRYVUFW5aFZrgyZbsF3ejyY+cl4MPMfY8FM51gw82fjwcyzxoOZi2DCxYGLFy9evHhRqYUyUKGEStn8g+8p877lyLxvuWvet/yrOdTqU1p+5YQK6D+pNVidXpmEKwPpVfXWILk5aP2xaA3iW4N0jO3a9wbLxnY/u61B261BLLWa1IUrHLAUsKoBVzpvXIYuCFxj6DNTGg9mUmOB9MB4MNMxHsw8YyyQ3jUWyOxGLcRAVgauLP//bXjx4sWLlzm4IgDrknnf8pvnfcszc97lzJxv6di8b/k4PlOlgNacQcBS4Mo0YJHJVZ0US39r0H5rkLWxndW9QdVJnIBzAWvCEmCZgyu5bSgBVjAjARb8DKTPjwczJ8aDmaPjwUxhPJC5eTyY+fvxYOZSHLCUx4sXL168eFXVgg/JPstgJcPVcxZ8y1fP+5bH57xLv5v3LefnfcuHZIgqA9Ocd6kEX22oqrQHLadXKmO7fotwlnF7sFHGdvtwVZm7Iu8NVikZmLUH03Tag0Ez7UEzYCU9/PtYEKVXcpqlzHtB4IKglS6MB9P3jQczsbFg9u3jgcxzxkMyaIUqjxcvXrx47dBa8C5Jn0ISfUdA5UVg9ewF3/LrFnzLn13wLX9t3rsMwepwZaaq/AwBlVZ6VRlmtzB7ZXDuqtrYTufeIA5Rhp1XBhMscu6KhpZBgSjm9waJ9MqEsb1meqX8WjVcpTTgyhpkEXBV/l4FXDJoSfCVOT4eyIrjwew3x0PZnvFQ9vXjoewLcMjisMWLFy9eO6gQTMEHwUpIohbggnfp0gXfsm/Bt/z2Be/SwIJv+RcQoBbw1MlgQsUkvdIaajewNaivZGjCvUGTW4MshKIsjO2kUNTW1iAOV3XTKxywrMGVklyRrUH9hwCrNB7MAvQC8NeyYDyEfv7leCg7Ox7Kvn0slA2Nh7LPHoGzWqGs9OTvvHjx4sWrxQpC1bw3icPVHywIyecseJdetuBd+vcF3/KPFqD007sMIFgtKIPosP1nE6y04MpUemVSKFqZu3KPUJRFetU8oWiKjlA0YEnJYCm5qg9YWHqF4EqGrGC2BAEL/rPohbJnxkPZ34yFsp8cC2V9o6Hsc8dC2UvGgjJoYY8XL168eLVAYjUvtQJ3y3D17AUh+dYF79KtC96l0xCAFrxLMlhJyZUqvaLyLA62a90bNHBrUP/eIEMtg7I1aPPeII3BdiW9mmpdoSiV9EoBK4PpVQWs1OkV/ESgpbyxYBaMBjPHx0LZu8dC2WvHQtlnjoWyu+XHIYsXL168XA9WasCKLniX4gtCcnPeu/T4gnfplAJTELAgACmApfZV0QEsPLkyBVh15q7qtwftbQuaGmy3eW+wkjjZn70i7w1ywNIGLBPtQSy5ypRhCk+yEFyFsmBUfjDRGgtlHx8LZfeOhbI3jYWyryIhi6dZvHjx4uWmGSu5FTjvXbpswbv0sQVv8lsL3qXUgnfpyIKQRM4qDK7KUMUivaJibKfSHrSvZWCxNcjO2L7GzNhObg06xNhuOr0y3R6EgKVAViW9QlClAqxgtiSBFmobKu/oWDC7MRbMfncslP3oWCj7AhK0OGzx4sWLlxOBqvKetiAkX7ngXfrMgnfpawvepQ3UAoRPSEqfEKpksMJfNRjZAyvbxnYL9wa1T+IwbA3uQGM7tfYgS2O7wa1BU3ClzGApgEU8Babk9Aq+EmwXou/oP6v86xtjocztY6FM32gwA1Otp/E5LV68ePFyQOFABYfXUQtQWPqTBe/Sqxe8S5+d9y79ZMG7dBK1/hS4kgALghWeXpXBin5rUGuonZ1QVF/JYG9r0FR6ZWNzkI5QdE1fKMrA2E4lvbIsFLU/e1W7LYgDFjF3VSu9wkCLfKOhDEq2iDbiT8dC2c+PhbJvHAtl/nQsmNs1FsrJiZb0nRcvXrx4NT6tumjBu/S8Be/S3yx4l65b8C7tLQOV1AoslaGqkl5VpVYs0qvmCUXtKRlMzV3ZSK/oncPBf26WUDTlRqFoHbAi06vq5IqEq3qAVf73BDMleeuw8s8EM/vGQtnh0VA2PBrKPn8slLt4JJTbNYo9Xrx48eJFufC0SvqefOKCd+kpC96l18x7l25f8C5dUOBJBiwJqvDWoAJYSnJVVjKw2Rqsnr2yqGUwONyu3hqk0xo0vDloY2uQDmDpCEXb3C4UpXcOx7jzSgOudNIrncF2s680Gsxg81o5MBbM3T0ayr5+NJR7+nAot3tUehy0ePHixYtZO1DaBnzWgjf5wQXv0j0L3uRjC96lsyqYQkClAVgarUESrthuDVpIrwzDlQOM7Ra2BuloGWoAluuN7XQBy/TcVdl5hW0NEoCl0fIz99BAvARX0j+fg+/saCh3eiSU+8VIKPeh0VDuL3DA4mkWL168eFksshUog9ULFrxLXQvepd8ueJf2zctgNQ9bgQIxY1UFXER6pdEepL01SK09aOAkDq32IJlcmdocNDGDRReudIztZHvQ9cZ2e1uDxmevsLkrbeeVqj1otC1Y+ymAlcNmtHJgJJQ7MxrKPTgSyv12NJQbGQ3lrlCBFj8yzYsXL17GCsJUjFAtLHiX/GgjUEjeveBdekhpA86rNwKroYpsDRKpFbk5SNPYbuneoJfWvUF7UlG3GduV5EqzPdhyxvZ0A43t+rNXVuau6sNVOb1CcAVhawR+Qmmp9POh0VDuR6OhXNdoKBcdDeSeiCArXHm8ePHixYsoCFXlJyTh50UxCayunfcufXPBu3S0nFQJdaCq3uwVBkSsZq9sCUXrpFdqsNKCK3stQlNzVxZmr2imV7r3BhlsDTbP2J5pvLG9IekVBCvckwUhqpxcoaeAlvyp/NqJ0WDuu6Oh3IdHw7ngaDh3CQ5ZHLR48eLFiwArKa1KPjXmTb445l2Ch5e/B2FKAqukcaiqk17NNyC9siQU9TVHKKplbK+bXFlIr+gMta+ZE4pSAS26SgZVeuUGoagGWNFJryqABeFpTBuuKi+YLZVhKyj/Wjj3q9Fw7l9GwrmXjoZz/2sklOWgxYsXL16q1Mq7tDvmXbo05l16V8ybvE+1Eag3V2UmudIZbKedXtneGjTRGqwIRZepbA3OMkqv6ApF15oiFLXdGiQAy5zzqlGD7dg5HCW50kivjDqvjLQFK5+V1qAuYJVBCz0EWiNhGcrCuZXRcO4Do+Hc88pJltw+5MWLF6+dClbwPTHmXboGDq/HkG4heV45Z6OpXDAKWOTcFZFisdoctLw1WGdzsDq9wo3t9uauDHuvLLYG3Q5Y1NqDDQYsHK6MpVfY1iA7LUNVa5CEq7qABdUOYZhgZWGKBd/50VD23EgomxwNZz84Gs5dzNuGvHjx2lFVgSo0Z/WMmHfp2ph36YcL3qXignfpXAxBkSQInfdaSK7qaBnIuStarUHt9qBFLYMbjO1NuzeI/+xCY7vOvUGaUlEnGNvttAd1wUoFWAiqpPks6bMCWuHcgdFw7mejodxHR8O5Z47ytiEvXrxatdRpFQKrp8e8S38f8y7dGPMuZSBUKU9Jq7D0yjpcNcHYbuveYB2oqlYy2J+9Ur4739iuAJZ2esXCecXU2G743qB9e7tlYzvT2Ss8AavAk4HWYOXncNUrod8zjFqGYCSUXR8N524eCef+YTScvWw4nN81Es7tGkGf+Wb/f4u8ePHiRbUV+LSYN9kZ8y51xbxLIgFW8LMMV7aTK3xrkGlrUEvJYGOw3XJ6tdr49Krhxnb9e4NTDNMrNwlFyZM4xrYG66dXVISiuq1BA+kVDlaV9EoLslSgJbcRl0fCudHhcP61w+H8MyXA4qDFixcvF5aUUi0qaRW6FxjzLr0o5l16T8y7lNRIrEoKZFEDLC4UNeW8cp9QtLH3BiddKBSlfW/QflswW9UWNNwaDBqGqzJkoRRLntOCv/9wOJ8ZCec+OBLOvXAknH/KcEhKsniixYsXL1eUBFXirpigage+PuZN/krZ7JPhCkEVmWLZagtqbQ5qSEVZbA1aEop6rQpFmzTY7gihqM69wQDrczg21QzYULsxuLI3f2UOruTBdtJ5pTPYTmPuSmkLjtFpDVY9BazQC2UhbJWGw3kwIr2VkXD+mpFw/lIIWcMhnmbx4sXL4YXACh5jFiBgLcPvL495l+6ICUvnY3CAXVBgKlkFWFTmrgzCVdPvDRo85qx1Dsfu1qBeesUBqwJXrADLmLHd/tYglXuD1LcGtZUMhrUMJuCKBCwZrhBgDaPZrNz5kXD+1HAo/5ORcP6NI+H8bjzJ4vNZvHjxcl5qVfmMxLzibTEhubngXTpZBitBDVYLtNIrLcDCtgbJzUEacEVuDXJjO9v2YDOM7ba3Bon2YG1ju/3ZK+PpVaON7XrtQQPpFbk1aKw9qIBV+Unpldw2DJWTrDMjoXxxJJz/4kg4/yo8yeKQxYsXr6aWBFSVt+AVXxjzip9aEMSfxrzJM3JSpdkOxMHK9uxVE43tttOrFjS203NeaRvbJxtqbLe5NWgqvbLeFmRhbB+jujWovjeIAxTj9EqBKwWqYIpVGgnlS+g7+s/PHxsJ5X81Es73jYTzf8Zns3jx4tW0UkEVuhuYvDTmTV4d8ya/FPOKB2OCWGkDCklNuFLSKyZKBo2tQdqzV9VbgxbvDdZpEaqN7fZuDJKgxdrYTguwXCkUhU+GJuNbg/bTK1OtwbJQVDu9oqlkMHBv0Nhgu+X0SvMhyJIe+u9yYiSc/8JwKPe2kXD+j1CihQ3C8+LFixezKs9XVQDropg3+dKYN/nJmDe5FvNCsFLgShusSLiikl5pwBXZFmTVGmQhFGXhvHKfUJRMr9i1BvXTK3cJRc0BluuEoqbSKwWsyPSqFmihNEv6ee9IOH/dSDh/xUgo/xRc6QC/8+LFixfDdiCELBEeZX7lgjd5LwSqBZhaCWJJhit8mF33NWqwnUZ6NUfz3qCpwXYcruylV4bgyulCUcb3Bm0LRfGtwZrpldbclf17g/W3BvF7g9rbgiyOOZPD7Ya2BoP2W4M10isd0IJzWuWffzccyr9jJJx/0kgov3swnNsFZaXw8eLFixe1wuas4OeLFgTx9pg3eVSBKgmwYGqFQ1XSEFxRS69qKBloApate4MGWoLaW4P2tQwcsBoAWDhcybNX+oPtZGvQ/r1BU1qGOoecWd8bNKRlMAhXeumVecDC24b50nAof2QknP8hTLNug0oHDli8ePFiMcQe8yafHvMmPxzzJlMLgniiklbBJxqCqwVaW4MkYGFzWGzagzC5aqaxfbV57UGTrUH77cG1phjb1YC1M43tYwy0DAo4jdE3tuvOXlVag3Xbg9UvpEqx4O91ejicLwyF8/81FM6jkzvD7TzJ4sWLF5VBdpRavSHmFa9f8IrbcjtQmbcqYXNXNRMrcvaK6kkcnXuDcwzuDdqavaozd1U9e9VAY7uWVNREe5CWkqGusZ2iVLRayZCicm9wwuXGdlrD7crWoKV7gwbhSmVs19gatPqG5U1DGbLAUDi/bziU/8pwKP/64ZfndyPIkh8vXrx41a24kNw1HYSiUFFpB/55zJv84IJX/HXMm7ywoBpi14IrY6BFVcmgAVmstgYtGdtNbg3OMmwNsro3SDO9UkDKjULRcnrF0HllWcmAC0V1jO0sWoPK72UpvTKYXFWnVzbhCvsclkWlQ6Fy2/G+4fbch4fbcy8ebi+UIQt+58WLFy9duIp74JxVEgLWkxe8yVDMm5yJeZNnUWpVASu8NVh3qH1HCkUtOq+04cregLslJYPFrUG66ZV7haKs0ytjc1etLxSt57yyC1kouQpJTwYtMNyO/nPODrfnE8Pted9we+GpEmhJjxcvXryq4CrmQYC1O+5J/kFMSL59wSuulsFKGmbH4EppEeKAVfsxSa8wsKJ9b5BsDUJAop1e6d8b3ElC0WrnlQJYbO4NshOK4nNXjro3qGwN4sPtOpuDNLQMtluDFrYGWaRXQ1KrUHoIruCv5UrwczhcAMPthe3h9vw/DrcXnj2EZrM4ZPHixQsDK/QJ4UpKsC6PCcnbFmBqpU6rdADLPFxRlYoSgEVzsL3aecXu3mAFrjhgNRKwqGwNBrS3BlneGxwz7bwyDle0Btst3Ru0uDVoUctgCbBQkgU/2xFgXZA/vzXcXojgSRZPs3jx2sGFgEp+MSG5OyYkPxL3JO+PCcnTCyi1krcDVX4rPcBqUHtQZ/aK5lC71uxVBaxMGtvrSEVpG9sttQfxn5tqbFdvDTaiPUjF2B5worFdQyqq0R5UwGjc5cZ2E1JR0+1BXPmA2oMIsvIlGazkXy+cHm4vrA23Fz433F54IocsXrx2cJXBygMH2pMvinuSc3FPch1tBwoikNIrLbAi4ar2QDt1Y7tOe5A2XLnV2E6exDHcHnSMsb3OvUGHGdu1NgedZWyvfW+QhVTUwcZ2Q1ClmV61l9Mr+XsB+7UCgq0h6df3DYcLC8PthbbhsJRiKa1DXrx47YAhdiy5ekZcSF4d9yS/giShkixUgiuUXunBFQlWxrYG3X1v0CRcGUisqueumnBv0EJ61QhjO8t7g7Zbg8TWYO30Smvuyt7moHklg7bziraSQZ1emZy7CjW3NThsJr2qtAfxVyK+/89we+GdQ+2FZw61F3YNQtDiOgdevFq/HRgXRPj57LiQ/EBMEFfjHrkdWBeuyK3B1hOKahnb3SgUtaRkMNkipKFkUKdXlbbgpBuEovjsVd30qvWFogpYGU6vLDivqApFdRKsKrhCYCWDnCq9UkPWkJRkYa3Dwt7h9vzHh9oLzxsLQ8CqPF68eLVIEWB1UVxIPicuiF+MC+IJCFdxjwxVEmDVgSvjg+1MtAwMB9urtwYtpldcKGoCsHScV5TTK+25K/v3BhVQ01cykLNX1p+l9EpjsJ1FaxDfGhxrUHpFTShKJlfhqqF2jdZgVYKFgRaazyoNKT+3F24ZbC+8eKi98EQOWLx4tW569STUEhSS+biQPB8XRAhX0g1BGa7qA5Z5uKIy2K6hYiDhioWxfecAlnmpKI3Bdq32ICvAqm4N2r83qPx+tbUM9ODKvFRUe1uQHGq3b2yvhisWWgY3AJYEV3kcsMBgeyE91F74h3KKJSdavHjxcmlhqRV8z40LyZG4kHwwLiRLcTmxUtKrMlwZbg9qD7grYBRzubHdlFS0ycb2Wdca23XuDeKbhAHnG9v1W4P224PG0ystwGqssZ3cHDS8NWi4PUjfeWWsPYgNudcGqzJQyXCFIAsBFvx92/PbQ+HC7FB74TLeLuTFq3XmrYJxIXlz3CM+EveIQIarEtkaNJZe1d8apLjNL6wAACAASURBVC4VbTFju356ZQ20DEtFHWtsZ3lv0N3GdnPD7RlT9wa5sb16a1AzvUKQpQCUMcjCQWtQSrRkyCocGmwvfH2ovRAdbM+jwXc+/M6Ll9s2BT0IrJ4CW4IxQbwrLiTPIbDyiAisiMH28ndjSob6W4MslAys0iscrlgb22mmV6Sx3RRgOcbYzvbeIBXnlZaSoaaxnZ5Q1LqSQfskDp25q+r0Ck+oTKdXDjC2q0/i2Euv8O+DFdAqp1ny++FQe+FtQ+35/4XPZfG2IS9eDqwqBYMHtQTfGxeSe5R2YAxLrBTAMtYWNC4UZTJ3RWwN0k6vqAhFfXaFovaOOrNQMtB1Xqlbg667Nyh/50JRrdmrFhWKqrYGjadXOEhhgIUgaxAejS7/nM8PtRc+MNRe+JPBMEyy+JYhL16OF4fGheQfx4VkH0qtpJZgSZm7krcG1YBlqC3YhNYgBlnzDUivWl4oarI1OE0tvaoWiuLJ1aTWUDuT1qDNrUFCy1B/7qpRg+1pw0JROsZ2Ba7w2SsT6ZVThaJluNIRihpMrxSwIuCKfCX0r4cLx4faCzcMtRdeMNSef+JgWeew3uy/Unjx4lU9c5UMxYXkt2MeUdoSRFAlVgEWrbkrvfRqnuHWIL45yAHLbYBVmbtShKLl9Ira3BXje4OarcE0M7gydW+wxtwVHe8VaWxXg1XrApbx9qBOelUFWMrM12B74cxQe0Ecas8HhtrXOGDx4uW4W4JScvXuuCAmYx7xNIIp6UlghbUGabcHG21sn3OJsb2+VNQ9xnZagNW6xnYtqaj9e4O0je1N2xq0MHul3x60P3dVtz1oYu5KC64MAFZ5LkveMDw31F7YGGpff/dQ+/qTYYI1FOYpFi9eTSlMvwC/XxwXkp+JC8lCTNkShIPsNeCKdnvQVltQK73CQIvcGqSVXFFrD+qA1iyj9iA3tltJr2zAFZFesbg3SBrbzQFWaxrbtZ1XzTe2G9gaNAJXyhxWZSYrDP+59e2h9sJ1Q+3rf6RAFm8X8uLVwKqkVujzz2Oe5HVxIXlAbgeqUqvyI8Cqdnpl/d6gbbgysDXoGGO7ga1BVumVdaGosdYg3hZ0k7Fd23llvzVY39hO3hu03hqkpWRgcW/Q0tyVyfSKFIrS3hocqaVksNkaNA5WZcCS24XrpaH2dTAYhr+2vn+ovTA6FF4PDEUkwEJzWRGeaPHixawgVCmfcSG5O+5J+uJCcgalU+jBWSuxCq7IrUFHCUX10isdYzvttiCVe4OWhaIrO1so2oB7g5aSK6I16FyhaLamUJRVemVJKGoqvdJSMuQcJxTVS69MwhX21uFDw++D4fULQ+H17wy1r3sHo4UnDEbWdw1E1nfBT168eDEoSb9Qbg22x4Xk98sQJQ2yq1MrLL0yN9guGt4aZGJsx2CItpbBllDU5Dmc2WYJRfXSK5NahikGg+1VcEVtsH2NnvOKuDeo3xrEk6tGCkXN3xukMdhOpleGWoMmbe2k86qxQlFzrcEhOumVAlaV7+H1kpxkwbc8FFmPDEbWLxppLyDA4pDFixdTwBLfEfeIyXI6RQyz67UHFbiye2+Q1DLYHmzXOebMavaqujXIBrBqG9tXHQtYOFzZN7anqjcHSbiiCFhUtgZrwFV9qaj1oXZzUtGsqXuDo4zuDXLAYgNY6DOCfv3CUGS9MBhZf1d/pPA0nmLx4kWx8JM3MUkg+l9xQdyUgIpwXGk8TakoRWM7y61B1vcGTc1eaUlF3WBst9ge3JHGdgKwyK1BFu1B9xnbs8yM7eTWoJuM7fbag+vqF5ZbhZECGJQgqzQYWT84EFn/zGBk/UlKisWTLF68bBRmZd8VE8RL40JyIi6I+7QUDFpghcOVsa1B48Z2KrNXSnrVIGN7I+4NOtLYbhKy7AOWWio65SZju869wXGG7UFjcEU6ryBkVcPVmBOM7VrOqya2B5tgbDcJV9h3Ca6kFymUhiIIrhBoDUTW9w9G1mcG2wsvLkMWF5Ly4mVdwyD7rV4YF5LjcSF5xghckXNX9Z1XxpQMjbg3SMIVi9krNWCZhCuD6VVTje3wKdDUUKGodnpV03nV5mChqK7zygH3BoPGNgdpGtsbcW+QZnqlKxQNYWkVe2N7ndYgkWDJgCUnV9L39kJpQAatgfbCmcH29RsGI+sv4kkWL1524EoQd8eF5BUxCa7gliD0W9WFK1ZC0UbcG2ycULRy2Nm0ksFgemVXyUAmV+4SijYuvWptoahOelXDeUXnHA7+s8GtQb17g5aFog1Ir2xuDZpLr/JGWoPQhSXNX8nJlZxewV8vDUj/eRC2ZgYj64HByPoTebuQFy+TGoaYBFnBuJD8Bp5axUzClbnWYLLpg+2OFoqavjdorzVoau6KHGo30RqkqWTAW4Pl9MqvAVeUzuFUA5a91qAxoWiKilB0wu7WoM69QTrpVSW1GjMKVyHnCEVJY3vV1iCFczgmhaIaSgasLahqDVZSrAEFriqv3DIcjKzfOxhZ/xvYJkSPKxx48TLsuQrEheSdCJbk9KreQDs51G7u3uCSo+4NcsBqPGDR2Rpc09waZHlvsCwBtem8UuCK5b1B0thu6pizwa1BOloG5fdpBmDRG2x3JmCt6wOWkly1V+BKH7AKCmS9lqdYvHjVKDjIjt0W/FDMk1yKC8nzhuat3Gxs15jBotsedL+x3XR70OTWIJ3ZqwpgucrYTrQHlV9znrE924R7g+rZK9NSUQcY22uexLF5b9AeYGGgFa6evdJJr3DIUkDrwmBkfW0wsv5hfCaLp1m8eMmlgJX8/dq4kEzDm4LSXcEaAlFubDc02G6pPehmY7vJGSwW7UHXGdvrtgebZWxPN8XYroAS23uD7I3tQ1pwVf5u796gta1B7aF2vD2Iz13pAJb0r0v6Bhn01vODkfX/HMRkpByyeO3oUvxWsooBHmx+Z1xIZtA9QQPD7IbSK0PHnGu3B6mkVwaM7Sy2Bm2nV7aFos40tpNbgzTSKwWi8NmrKrCi2BqkYmzHNgfxrUHaSgYyuaJ1b5BFa7BR9wabZ2zPmVIyMBOK4oAVqU6v9MBKDVlo4F35ec9gZP39g5H1J0szWRvo8eK1083sT4t7ZLgyqmGwLBTVuzfI0HmlpWTQGHCn6bzSVjKY3BqskVrNtYhQlNbslbI1WJVeUReKarUGnS8Utey8aqpQ1OS9QRMncVgIRUfcKRRF81bK5qBqa9D4K0tJB9vXHxmMFN41GCk8YwClWRyyeO2wwmat4LskLiQ/GheS2xVYMt4W1NUyUN4apAJYLSQUJbcGaZ3DaZRQlN7cVeUkTuW8js69QSpbgykmQlH9wXat2St7rUFTm4PkrUEnC0VN3huk3RrUdV5V3RtspFCUdF7VHmy3AFfVkBVZPzTYvv6BgcjGpQORDXQkmhevHVMYXO2Oe5JTcSH5uDxvRSW9snvMmdwapKJlUKVXy00ArJUGA5Y975XpuSsb9wbtD7YTyZXevUGKgEVla1BJrwi40m4P2msLkumV4XuDTQQsU94rE+dwWAy2WwMs83NX1tIrIrkiWoO486re3JXBFAsMRDbgmx6MbDyLAxavHQVWsp0dvkTckzyIgZK5mStbxnZzW4O0je1ka9AxxnYL9wa1T+I0yNhuIr1qhLFd895gm4PuDbrO2I5tETI2to+1iLG9vDWo2x40tzVIZ/bKgLHdOlwp2gYJsmTAGoysnxiMrF/fH9l4upRkSY8Xrxa+K4iONsO2IEyuDknJlTW4crOxnVV65Qxj+4rjjO163iu3GduptAfdZGzXSa/oGNvVgGWqPegWY3u71r3BPOP2oE1juzW4wn+P0iBMsCTQOtIf2bhxoH3jWQPt6xJktXPI4tVCJW0KLkoD7R7xD+OeZFfckzwqn70xvy2osTVobPaq/r1Bpq1BDaEorfSqucb2JtwbNNkaVJKrGSZKBvbGdmb3Bmsa2+1vDVqauyK3Bpka27XvDRoGLG5sNzh7pd0exOeuaMAVBCsEV5H1Ekyx+qVW4cmByMb4QPvGH/dHZMjiSRavVqm48HtZJCr+YVxIfiruSZ6M24Qra+kVF4paFYqyujdIwlUjhKJ0ACvVJKFomrFQVC+9sgZVE5aVDI0UiipKBpNbgyZnr3aOUFQnvcKFotjWoD24qgCW1BbcKH/vj2wgyMLe5wciG8/nkMWrdcAKJVcQrhYviXtEmFydtKpi0IMrc5uDteetbCsZtFqDWII1z3ConUp6Zdl5ZX9z0NBgOzl31bRzOOrWoCq5otwarAYs65uD5oSijdwazLSwUFTv3iC9tmDV3FXThKI6zisNoagBY7tBuCoQ6ZX0+jHI6pehC0EWSrJ4isXL5YXgSljcFRPuhOnVFGwLErBkC7Bo3hvkgEUDsOzD1bSp1qB5JQMdwJK2Bqe1tgYpbg6S6RUVY7sGXNU2ttsHLFOD7eS9QY32IBvAMrE16JB7g/jGoMrYrjl3ZR6wmGwN6twbtJteKXA1qIYr+J1MseAbH0DbhXwWi5drZ65EeVvw97vjHjERF8RD0syVsaPN7O4N1p/Bsu280pm9YiEVJbcGm3Nv0DpYtYSxHd8abHOwsT1oxtjehK3BGsb2cacY20P2jO2024P1je3G06uGGNs17g0OUmsPSqCFzV4pj4QsOJN14wDaLuQzWbxcVlJbEL1L4sLiVNwjHiTgyhpYOd3YTgIWsTXIoj1oy9hu4d7gjCZc2be3t4SxnVKCpUCVm43txjcH67QHddIru8lVRckg/X4jDTW25xxnbB92h7FdB64qYIW3BwmoKhEzWUcGIhvXD0TWL+tXtgt5osXLFekV2hZcfFpcED8aF8THrQpEjaRXjjO269wbZJ1eucnYTp7EYeG8ojfUTs5eaRjbqd8brMxd0VAy4JuDtVuD9u4N4kPt5mavCGO7xkA77ZM4jTS2s743SMPYbs95RcIV9l2nNWhfyaDeHJRajarWoN6TIQv9+49Jg+/rT4bqBg5ZvNzSGrw47ll8Z1wQt2NlIDJ3/sZwemVYydBAoSjhvGIhFJ1vglCU1r1B1ulVI4Sik04XitZJr2pvDTpAKBp0t1BUP72yn1ixFopaB6yGCUWrWoM6qZUuZPWX5782DgxENt45ENm4BAFWVHq8eDkOrOCTfoZwtZiRkivRmqHd9tZg0lFCUbWrin56ZVgoasJ55UihaEPTK/zWYOOEotTSK+LeYG3nFZ3BdstCUQ0lgyOEopScV8yFomE6QlFqSgaN9AqHJDrOK3Vr0ARglZMsebvw0YH2jXcNtG88Wdou5LcLeTmwZMi6tgJXNtuBRGvQ2DFnvZM4tTcIqQMWw8F2MsEyNdRu0ntVvTFIZ2vQklDUgrGd5jFn1dYgmV5RexTgKlA92I7fG6yfXtmTipoHrNqD7bQBCx9st9QeNJlg4ckTzc1BVVtQ2Ry0MHNlb2vQ+L1BmnNXpJbBJFxVv/aNRwYiG+/vD/IEi5dD06u4IH4oLiymleSqsi1oE7Ysbw3WByxm7UEivWJlbLe1NWiwPbgzje1qwDLUHqQMV7TvDeoPtuNzV/ZmsGgZ28nWoP32YNaesT1k75gzjfZgXcBSzV4ZT67oAVbt9iBdwNqw2h5Up1jtCK6k2a3oxt7+6MbHlTYhbxXychJcBeIecSkuLGJwZT/FYmVsJ9uDtpMrfGtQY/aKXnuwIhQ1LRWlem/QXnrlDmO79r1BzZM4lNqDtuGKdF45ythOAlYj2oM2jO2U7g1W5rDotAbdamyn1R6suLMstwfx5ApCVgn+fv1R9GvJgejGW/qjG7uUx4tXwyshg9WCIO6OC2IwLoh3xoXF83J6ZX9bkMrsVX2hKDXAcqOx3dc4Yzu5NWgKrppqbFdagxpbg8zTK5ubgwRMOcPYrpNeEUBFO71ys7G9bnqF/rPMp1d0lQwaW4Ps7w3ahSt1mhVFKdbZ/ujGr/uiG6+FCRaHLF5NgSv45pCpXbwiJojfiHkgWC1icEVhBosLRXW3Bt0qFDUFWE4WilJTMug5ryilV7pwRSoZ7LUFTSkZynNXxNZgQ+4NshSKaqVX9JQMtNKrhghFI6yFojbhSgEsGbLk9KoEP/vQz+v39kfXPX3RPTJkbXLS4NWYSsiW9oQgvjAuiOMxYRHEynBFZ7idC0Vrbw2yForqw5XzhKIzjRSK+tkJRWlvDda+N2gPrkjnlfOEour0qgJsbJxXku+qCUJR1ZB7s9Irja1BhkJRSq3BClzBn6X0Cr5SX3Qd9Ektwxv6ohsv6YusI8DikMWrIQVbgwlBvFSBq3gFsADN9Mrc1mD9e4Nam4O2hKIGNgdpCkUtDbYbFIrOMRCKkoDFSihKplfWkyu8PSglV+X0ys8ivVqj47xS4ArfHKx5Dsdea9DWYLsiFA00fmvQ0L1Brdkrg3NXbhCKam0OWk+vCNAitgbtp1eK7wq/N7hOFa4gWKEnp1gQrvqj6yUpxYJp1uZMf3TjRRyweDWkLYjSK2n+aiIuiGew5Aqbu6LfHqQFVwu0je0aW4O0vVe27g3uAGM7K8BSkrDJBhjbWWwNsjK222oP6sDVGMNjzpaloibnrtwAWEMNACwFkOgBlvbcFZXZKxmw4O/VVwYsqVXYH91Ery+6MdIf3XyGAlk8yeLFpBLCovQ84n/FBXFfDIKUB6ZXCK6ozV4ZN7ZrARbje4OOMbYvU1MyGG8POtvYTkfLoLE1yI3tNaWihtuDTTO2G5SKUr03mGcvFW2asV2/PahsDdJpD+ob223PXlXmrrD0Cs1eSa3CyGapP7qpzGQd7I9u9vZHN5/MIYsX9VKSK3jEOSGI74h7FjclQzs+d0UJrBjeG6SWXmnAFZ5euc3YXu28otMetKVkaLqxvTLkTlvJQG4N0pi9mjBsbLeXXGnNXplOr9xibA81x9g+XDe9coKxXaM1iG8NUkmv8J/Vc1e00it57gprDyo/S+mVBFnoc7s/uvkRaHpXHi9eFOFK3J0QxPaEICYhVGkPtdsXiiqgZe7eYG3nFWuh6EKLCEUryRXd9IoLRRk5r+q0Bp0nFM00TCg61gShKKlUoKFkqJ1eOVcoak/JgAOWBENUtga10itduKoMvSs/90U2Nvqjm6/uj2zuQo9vFvKiNXeVEERfQhC/X7kvuIjBlf0Ey/FCUS3nFZFetaZQtAnplcnkyo1CUWqbgy0iFKU5d6WA1VjDhaL0Zq9qKhlU6ZW5oXZr6VXBsFCUZmuQslC0amsQT7AqgLVJJlh4igXfRn8EbhZK6gYOWbwsFwZXf54QxBk1XOFbgxSeaaFoA7cGmzDYzlooOucEoaiW86rJrcGqrUEG53CopVeG7w3aP+ZMwpax9IrYHNQRirKavTK9NWgKrugLRauSK0pCUTrOKyK9UuAK3xykJhRVD7bbTq/aNTYHsbkreXNQC6y0IOtCf3Tzzv7o5kt4isWLBlxdnBDE6xBMeSBckekVPcBS4IqFsZ3VMWc8vaIFWI0yts+6FLCUwXb7m4PaxnZ2W4PVzita7UF87kpfy2Bv7sr4YDuZXjXS2K6+N2ioNdjixnZmgIXNXbE2trPYGlSSK3V6pfeUVqG8WRjZGOuPbvxvnmLxstwWjHuQqf0zCc/iAZRceeDsFZy7ouu8IrcGzbUHjYEWFSUD3h7UmL1yi7G9fnvQuuuK3BpkdW+QXnuwjrG9jbWxnVJ70HB6tVOM7VkmSoba7UFnG9vtbQ1qz11pzV5Zn7uqAJYyd6W0Bykb24mtwZrtQe1WYWTj8f7o5uf6o5vP5JuFvAxXwoM2BZGOIS6I704IYkE5gYMZ26m1B3G4UqCKRnrFrDWIzV2Rs1cstgZtp1cGTuLQSq9sKRkstgbpplcaW4NOM7bjcNWEe4M73dhOnsRpvLHdvFSUnpKh0BBjO7k1aLs9iG8eVs1daW4O1oMsCbQim8U+uFkY3XxCX3Rzl/J48dKHK4+UXCUEMZTwoI1B2XWltAVxuGIkFBWMKhnqJ1dUlAwGNgcdJRQ1sDXIMr1yk1BUSa400ysGQlHbxnb8Z8NC0Uzj0yt87krH2G6/LahuDTbm3mCWaXq1M4Wi2ukVbSUD2RqsBivDkFVOs/qim0v90c3X90U2d8HB994IByxeGoVSK+m+IASsP44L4rcTnsXT0lA72RZ0vlDUNlyRgKXjvHKsUNTQ1qAWXNmDLFNbgw4RiuqmVwy2Bm21BvF7g0EzW4PWNweNz10R6RVMrjTSqzFq6ZVThKI5xwlFyeTKXUJRfPaKUnpVSyhqDa4QYEm/z8aFvsjGz3ujmy/8nJJicUcWL23AQsnVcxOexb6EIJ5PSIPtsvOKbmuQ3Bw0tjUommoNUp+9IuCKxb1BW0JRg63Bpt8btNgapDPUjm8OVuauNO8NUgEtikoGLe8Vo61BW4PtOvcG8a1BmoDlVqGobnoV1kuvjIGW9bmrfG3nlcbWIN1zOApcUUqvsK1BBFmarcFN6y9STrFO9kY37+iNbj4dJVm8TcgLLyW5SgjiUxIe8b0Jz+I5BFdyeqWeu6KTXGkOttvUMiw0oD2olV7tZMCyJBW10B7E4YqOlqGyNai0Bie1WoNtDjK2k+1BRxrbs4a1DKM7HLDqG9vtAZb59iAJVzrGdnxrsJ3N1iDt9mBl7krX2G7hbaCj0PD1RjaP90Y2PtwX3XgGn8Xipaq43B6MC4tXxwVxT8IjAhmw4NYgoN4e1HJeOd3YTkAWTbiab5KxvSn3Bi20B+mkV2rAIrcGNe8NUt4atN0exMDKeHuwicZ2QirqVmP7aNON7ebvDVprD5o3ttMbbJdgCE+vLG8NarUHMcCq3ho0D1p9lUPQpV75577IxoG+6Oab+6KbT+SQxUutZBDEYFwQ70p4FiFcwYF2NNTOamuQG9tJSKPgvGqisd2SksHkDBYNJQO+OdgIYzvN9ErZGmSZXrE2to83y9iul15Zcl41w9ied4SxndwatN8exBMwCnNXxOagwXuDpsCqAlfS641slJTvfdHNe/uiG53SLNYmp4ydWsQZnOcmBPHmhCCek2EK+a6q4YoCaFEWilJ1XumlV4SSgZVQlIXzigtFScDScV4xMLazEIrq3xvUUjLYaxGac15lmioUtXQSx8K9QZpbg84Uiuq0BhnfGyRbg7bbgpFaQlFDzitDoFVOr9DQ+2apN4K+39QX3XwBVzfs0FLBlUd8UkIQR+LC4iOVoXbJ2O4WoSg+e+V+oaiNuSvL6ZX9rUFWQlGaJ3Eq81vE1iDD9KoCVinHC0WtO6800iunC0UNQ1aW6dagdnqVb4JQNG/43iCeXNFIr/CtQYcIRWu2Bfur4Qq1CiXAgjNZm8f7optjfdGN3RXIKjb7r31eTRhqvyghiFcnBPHBhLAIEh7JdVURii4yaw3SuDeIbw1SBSyNmSuWQlEq53AaKBQ17LxSBtotDrWzGmwvp1dacMXg3uCkzc3B+q3BlO3NQRyuJqzOXtUYbLeXWjVHKMryHI6SXGmmVyq4MqdnsAdXGkJR8iQOFecVeW9QgTVKW4NyeqXeGtRSM1iDK23AUiVZcB6r0Bfd/Nfe6MauPvQ4YO2Ykmeu4OdzEoKYhzNX6vQKN7Yn2RjbDbcH628NUrk32ERje8sDloW5K7bG9sbcG6y0Bm3OXgWdem9Qoz0YcjBghdwCWObbgzhcMTG2Y5uDLFuDVKWiFLcGtdIrbcCS5rFQkhXdSPVFi5f3RYu7IWBxyNpZ7cFnJwTxi9B3Fa8MtmOtQbrtQTK5Mrc52FrG9vkGGttnG3BvkBvbK61BFvcGG21sNwVX5eRK+yQObWM7uTXoVmO77kkcC+3BHW9sj2g4ryi3B8m5K530SgVZfZHN832R4o/7osVLJNM7H3pv6cLmrp6REBY/EBfEExCepPSq0h6kLRXVNLabmr1q3r3BBSfdG2xxY7teeuVGYzstqSh+b3BnGtu10ytLziunG9st3hu0pmTQS6+qjzmzNLbTvjeIp1fVW4P22oPG4AoBFoSrUm+0CP1YF/oim9f1RYpPl1IsDlktWXJLULG1w7mrVQhWiu9KX8nA6N5g3eSq/uYgy/SKhCtagKXVGpylrGRwq1BUASN6xnZcyaAhFKVsbK9WMtC/N0hbKEonvdI3ttPZGlTfG7SUXlnYGmRubG+aUFRrc7C284qOsR3/mWFrkN69QSvplaxugAPvRfnXio/2RTff2Ps3xd19HZu74OPVugnWixKC+BU5uSpVtwbpwVWsAfcG3S8UNWhsNygUnXOKUNTk5iCLrUEuFDWfXjlfKGrx3mDITnqVp59ehegIRe2dxGn0vcFKauU+oaiR5KoCWH3RIkqxpH+uCPo6inf1RosRlGJ18IH3lirpgDOCq90Jz+IcTKyU9KpyEofd1qC5e4O10yvqg+14W5BoDdKGq0YIRcn0Skqu6NwbtDR35Yh7g4RQlDyJQ3FrkEZrsDwc34R7g7SEorTnrpohFKV1Dgf/roKrslDU2lC7tcH2GvcGw9r3Bmm2BgcZaBn0W4P27g3W1jJogZXy4PwVBKwi/GeQvqGvA0LW5lRfR/FSnmC1XGq1qKgZPpLwLK7LQ+3ldqCyOchia9DcvcH6rUE8vXITYM25HLAaaWynvzVYaQ1W3RukBFi0je3k7JV+e9BeS9Dc1qA5YzsHLB3A0jS2m5u7IuHKmrG9hpYBvzdIyXmlbg/abA2S6ZXuvUF7IlHjs1cbRHoF24PolXo7ijJgFR/u6yj+317UJuRJVisNte9OCOLlCUG8v3ruSmv2iq6x3fzWoPF7g7YG2w1uDbrR2E5LKkoqGQzNXuFzVwZnrxpxb5CFsZ3avUHDxva0Y43tjbw32AhjO9N7g001tuvMXjE2tg8wag+q5642WBvba7QFlZuE5dkrIIMV/v03vR3FNyiAxduFLTDYHhfEP0gI4m0JQTytzF5V4MppxnZtuFJgiMrWKPyZ+AAAIABJREFUoFZ6xVAq2nxj+yqV9MrU5qDFrUH77cG1phjbbXuvSGO7qWPOLFuDddIrDLTIrUEa7UEFlMZcbmxHziubSgatzUHrW4PNNbbb3hrUuDcozV1pzV6xbA1qpVcYXEXLcKWkWGf7Oop39nUUL+uFhncOWe6s8hFnj3hx3CO+PSGIZxMYXKmN7fSUDCzuDZJzV7a3BjXSKwWGWG4NmlIyuEkoqpdemRhuZ9MaxIztDIWitk/iEOkVDlP6ziv7xnaW9wZpnMRRtgZNpVeuMrabS68UMKKzNVhfKGpv7opsDSpbg2zvDdpVMpDJlbX0SpVYAeUprcLe6OaRvo7ip/o6ihfDdiEvt8IVAqzF9oRHXIWWdpRelX1XbISi5tIrBwhFiRbhvMuEonNOE4qaNLXTnr1S2oJVrUEXCEWV9Kr23JW99AoHq3FXCEUVWKMvFB1tqlDU3Oagva1BY84rBYbonMNRtwbxtqCThaLW0qvKULuqNRithqwybEWLB3o7iv7ujuLu3o7iLvh4uW2wXRD/KiGIN0kzV/DWoHwSh7FQ1PxguzElA/W5K6cKRUnAMuW80hpqtwdahtqCFO4NTlO9N6jRGqTYFqRyb7DNyr1B++kVTaEo63M4hpIrG+kVDlg0W4NVQ+345qBq7qoZ9wYLNQfbh6htDZIncei0BsuQVnVv0N5JHBKujG8O4oBVG656yylW8XxvR/ErPR3FF/RwwHJXSekVAqwPJgTxXNwjQRQELP3BdnqAhcMVLcDaUcZ2i4ClTq/szV3NNmBrkE5rEG8PErZ2vD0YYGNstz13pXNvsHZ70J6WwW3GdjcClvbcFR1ju/V7g3hrkGgPasAVHS2DGq5otAdxwGJxb9CsVLS8NWgEsKKysgFa3juKoKej+L7ejuJTeYrlrjuD8L0tIYgimrvyLJYUuGqosV33JI4x59WONrbbvjdob+7KHcZ2vfZgBbCqtgYpGttZbg067t5g0NjmoBuN7azagzvT2K4GLGrtQYca29Vbg8TmYId+itWrAFZ0M9cb3fw/cBaLtwldMneVEMT/lRDEm5V24I43tpNbg24xttdxXtE2tut5rwylV003tqu3BlneG7QNVzhgyeBkfGvQ3uagsa1BrfQKgyvqzqvmGttpnsTRVDLYMLaT6ZU7jO3a9wZpAFbZ2F41e2UPrmwa2422B4Hy2SM/BHIdmzf2dmy+WEmxOGg5sGSRKDK2xz3ihxOCuJWQhKLl5Eo/vaI3d0Xb2L7A6iQOsTXIhaIW0ysbQlEaSgZ8cxDfGtS8N+gwoajW5iCLe4M4XFk7idOIe4OV1KoljO3k1qBmemXeeWVNKEqkV/jcVTsroajSGqTgvCLSK3xTkEZr0PLcFbk1WGuovaPyKQNWqadjEz7488M9HcXP4oDFIcuRSoZF5dZgCqVXmLFd33lFTyha/96gA4SiOnoGeulVs4SiTbg3aHFrkN5geyW1co1QlNgarJ1eOUEoqm1sp61kaFmhqMWtQRKurAPWessIRcmtQe17g/ZmrygKRYEWZCnplfJdahciyFrs7Si+igOWg9OrhCA+NSGItycE8QTWGiTSK/r3BmkKRbWOOS/Qag1qzF6xGGq3dA5Ha6i9jp6hGq4aONhuwdjOojVIDreXtwYZbQ7SGmzHtwZr3xtstFA00xShqOn0Klg7vRoJZXUf/O+rHmpn0BpUbQ1aS6/obA1qzFxpncShNNiOC0UHaQlFGd0bxLcGzQOWrlC0bmuwl3g9EmDB98Pejs1L+DyWgwobar8oIYivjAuLR7H0Sqc9SH9rsH56xQHL9K3BOknWDANjuwJX02Zbgw66N0hz7kovvaJibCfgyhmA5QJju1HACmbBMPHgr6G5LlZzV+Q5nDJg2b83SNN5pQdX9o3t1XBFxdiuUjKQ7UF7W4PW7w3WB6xeA4CFvX29HZsf7O3YfKKUZG01Gy94YYD10oRHvDcONwYNGdtFxxnbYy1gbLfdHuTGdlNbg41oDzIztsugpr01aH/2Cm8NtpyxnWgPQqAabsuCAU8G9F6eBmORHIi9cQPc8LYiuP6tm+U386oCGBCyoOfyDBjwQujKgWEZuFre2F6nPThIafZKATWWW4O07g2yMLabaA8C6W3Cg9Ay4BXXezuKL+7peIgDloPg6tKEIH5SUjKUNweBc4ztDXZeNdnYbsp51WRju6m5K5uzVzTTK2VrsOreIL5JGNi5xnbr7UEZqgIuMLbLYDXoy4BBbwbMvroAbv/EA+DeGw+C1N1HwPovj4HNe9Uv99PHgfjfh8GPxw+AL793GwFWv5AFQwi07KVXwxTuDZJKBmvtwfpbg1r3BmnMXlFRMjjZ2K5AFZle1WgN9hlIr3qixVIvGnhH7cLJ3o6tZ8EEi6dYzgCsqxOCuCY7r6rSK7xNyKo16Nh7gy0oFJ3RvDe4wvbeoJaSoaFzV9WtQQXU2N0brMxdUTG2K63FukJROsb2CVsncbQH2lkKResqGTDAgmA11CbB1dxr18Edn3gA/O7WR8EDSyfB+XMlUK+OHTwL8j9/HPx4/GHwxXduoVbhgE8CLcvOK830yrpQ1D5cFRjfG8SFomolg+3ZK/xn3a3BRhrbseTKQHpFwlVv3fZgeQ4LplmP9HZs/W0vOqPDIavZcPXCuGfxSwkJpEpKi1CdXjlJKNqEe4MayVXrCEWtz1tZvjfoEKFoee6KgVBUa7Dddlsw4AahKDbkziS9qghFya1BI7NXaK4qIL3pVxbATe8sgl/MPwIO7zlTBVGlUsnQr6V/cBTc/h/7wMKbNsFoJA8G/VLbsFbrUOveYBmuLDqvyPRqRwpFia1B7fTKQUJRg1uDPYbhagtIr3hbb8eWpwcCVpTPYjULruD7VEIQDyptQeWxuDcY02gN1m8Lmrs3aMt3RW4NaqRXLFqD1VuDFluDBrcGte8N2msPsjjmTO/eoLI1uKrfGmS4NUjFeeUWoWiQpVBUDVhm0is0nB6Uh+Hbc2DmqgL4fv9+cHDjNMQmXXiqVeS/f/WuI+Dmf96WIAqCUcgYaGnClQVju/XWoLI1SM5eVc9dsRSK0hxsx7cGWdwbtCwUjVoUinYYAawt2Cosf+/t2Pp4T5QPuzcTriIJQfwpZmwnvFf0paJuByza7UHt1iAbY7uyNeiIe4MW4IqOsb1x9warT+LYAKyASwAr4FzAgnNWU68sgDs/+yDYIx4HZ09dUEGSXcCCPx958Cz4/dcOgxuv2QKDbTkwFNAHrPr3BvHWIMt7gzXgqr02XNGQig5owBUVYzuxOajeGmwSYEXYAlavdAga9EYRYP2it2PrtbxN2GDAks7hIKnobXFh8QxMqYwZ2+1LRc0Z25Omje0LjI3ttBKsipjUgvNKT8tgYPZKSq6cb2yfpppeNc/YTu3eYAOM7ROuMLZr3xvUAywIVnAzcDSYBbd/7AGQ+dFRcPzQOXD+7IWasGQGstSQBsDp4xfAgdwpcE/sIFh4wybaNoRtQ2ca27UAq057kEp61QBju/z76R9z3nCDsR0YbA8qqRVsE6Ktwh74c3Qr3tux9WQIWT0dxUaixo4WisL38rhncRP6ruJCWc2gM3tlP8UiT+LQcl5xY7vxzUH13JV7jO102oNrLWxsp+O8Mp5eNdvYrigZ9LcGRwJZMHBFBvS/LANue/8ecP8tj4KHUifBudN0wEoPtvA6uv8s2jr8Xv9+MPu3G6D7JRmUaukb2+3NXtlPrzTAirg3iIMSDecVOXtlGa4YG9sVUDK3NajjvLJmbAfVYEXCVRmyYIpV6pFSrFxvtPjPSorFtwobA1jwmPMdCUE8KbUGFx14b9BcerVjjO1azitf/ZM41VuD9oSilluDTROKrjFVMtROr2zAlZxcsUyvrG0NOlMoisAKJlahLLjhrZvge70Pgc3fHAfnz1pvBdoFrUf3nAH33/oouO3f9oLpq9ZBn5CV2odwPoscai+DlnmhKB0lg8bWIPN7gxS2BhW4YnBvsI9melUHqgwKRYEasAi4wl5Px9aF3o7ij3o7tp4zKstH4eA7L9pwVUmuLk4I4hsTHvF8M4Si9Z1XDb43qCMUZeW8oiYUNbA1yCq9MgRXZGvQBFjRmbtSbw1qpldUlQx6zit6QlFjSoa0I4Si4w0WiqLtQL8EXbOvKYD//tBesPytx8CF8zjsqNt5rCGL/M86uHka/HDkAPjC24pg7MoCGAzkwCD0Z5WTK4cJRbHUis7WoDq9wmewqCoZHCcUrW9st6hkAHpghbULIWQd6unY+mRPdOtiCFccsNgC1ktk59V5NwtFqaVXOs4rVumVNlyZ2Bo04LzShqsm3xu0eMzZbmsQ3xqsujfIQCiqBiz3CEXHKQtFyfTKenKFtwerhaL4duBERx588R+KQPzGYXDq6Pkq4GlWkf/Z+zOnwP/83wfBzGvXEUgNhXPomW0Nap3EsT53Vbs1aH/uqrI5SG4NUgEsxkLRPocIRXs156500yt5s3Cr1N2xle+Obr2wO1rkgMWi4lJ78GkJQXwPPm/FAUtfKsoKsGwb2w1uDVbfG1ylem/Q1GC7xfTKvrE9xfzeoJaxnTZgTbjM2M4asMrJVSALhvxZpF24/yuHwLGD5zTTIycB1oULJZSsbf3uBPjGxx4A/f4sSrPswpW19qD+1qDSEqRzzJlMr9RwRSPB2gnG9l6zgBWV1A3dHVsnuzu2eno6ti7lKRblQsmVR9wV9yx2JjyLScx3xdTYHneTsV0juWLVHmyUsX22GcZ2G+3B1jK2W2wNku3Bmsb2NJXZq3GGxnY6Wobq9iC8G9jzkjQCq5+MHwD7s6cclVppFfnfB86FwUH41PePglv/bS/o/uss6PfLm4UNl4o22thOQSrK2Nhuqz3I3tgOarUHK+lVsQS/d3egFGtfT8dWmKdYtOFKek9PCGIXPIUTb1J6RdvYbst5pTV3RUDWfEPSK5NzV24ytpscaGdlbMfTK8ca2wnAMtYe3GHGdjhn1ZYFfZenweSVefCdzz4Isj8+Ch7bd8bRYKVV+H9HuNm4d/kkuO/Lh8H112yBfn8O9Ak5XdAaYjLczo3t9ZxXDjK2A8zYXhOyEFzJKRbcKuyOFsd7olv/m6dYlEpyXqH39wlhUZTBqoRvDtJOr0ihqLGtwdYWimo7r0ykV6Zbg7hQ1L6x3bSSoSnpVUXJQG4N6qZXFOGK1b3BccbpleOFovC+X1sWDHkzYDySA9/4yF7w6xsOgkPF0zXBxelV5dC6UAKpHxwF3xs8ABJ/D0Erj2ALyUgJ2KKnZNAYbGegZFCnV/Rag7ixncW9QfMncRooFO0o6kKV8r1b+kQplvz290S3runu3NoFLe+86KRXz0h4xBvx2auGC0UNbQ3qp1axBgpFFxgKRW1tDRpMr3amUFQNWIbuDTJRMtjfGiTvDdZXMqSbLhQlkyta6dUovBvoz4KJaA5c/5ZN8N3rHpLP26hBxc1F/vc/e/ICEG9/DHz52r1g5nWbYDCYRw+HrEYIRWnOXQ3SdF7pCEX7XSQUpZNebWm2BVXpVeU7hCzkxurp2Lqxp6P4QpRidXJlg124gu/ahCBmoFRUPXflHqEos/RKB7QqYERna9CS88rkYDt+b7ACV/buDFpqDVrYGqRjbFfgqrI5qDK2M7g36DahqPn0qobzSiO9ogFXo0HJvA7fWDgHpl+eR9qF/M8erwkmrVD4/6YTj50H9970KJh/0ybSOihJFnoshKLh6q1BGrNXFUhTn8RxolC0v0FCUXPOq6Ih5xUOVgRcofZg+UFtQ+fWJ3o6ixywKKRXT0wI4g8RSBkCrGSTAKtJ7UGNAfc5BoBlebCdBKo6KZZ6a5AuXE0z2hqkqWXANwfxrUGW9wY5YNFsD8pwFciCQU8GfPV922D9nmPg3JkSaqHpwUirFHkb8fy5EtqM/PHEw2Dyqg3Q55VbhjTvDeJaBgb3BhUwonLMWQew1JuDHLC69QAL/npnEfR0bt3R07H1ZzDB4imWRbiKe8TdCUG8JiEsFlF70GOkPUgPrljdG5xn2B5sLWO7/fagZS1D04ztClxpbA0ybw+m6bQHHWls15eKkumVVcCCydWQkAbDvgz40ju2wOqdR8ChrdMIrnDoaEWwIov833ji8DmwZ/EE+N7AATDxynXQfUUWDIbyYFCGLfND7c0wtlOQipLtQZcb262dxNmq2x5UwZUasEo9ELA6th7o6dz6tAJYHLJMAlZcOuZ8aUIQf5sQxHPKcLuSXLFIr1xnbNeALFZbg241trO+N2gfrtRbg824N2jZ2K7hvJpkbGw3B1fYpiB5b1BHz2DW2C61AyWwgu+L12yCX19/EOwVT6BZpJ0GVnhJ/3vV/5vhxuTa3UfBtz/7EBiOFECvNwcGAhC0zDiviMF2ndmrQWrOK+X3pJBcMW4PmoMrbFOwYcb2orX2IP5zJ3zQjVW8t6dz6696Oou7OWCZvzf41IQgvishiBfihk7iNNvYXg1Xbja2W06v8LkrA8b2+kqGBt8btLg1SDe9YnNvkBSKUjO2102vWlMoCsEKplVwOzBx9Tr4zmf2gfT3joCTDvdZNbq04PJA/jT45fWHwC3X7gWjVxZAny8HBuAgvAUlg9bmIB2hqHruitW9Qe2TOK0iFN00bmyXwUozvSqDFZ5iFY/0dG5NdHdIs1gcsowb2+F7cdyzeF9ckG4O1lYyiI4Tijbi3iCLrUFSyWA6vbIgFJ1xmVCUTK+mKaVXFWBzoVA0wE7JMOEwoSgEqxF/BowEMmD+tQXw1Wu3we9uPYSkm7Wgglc1bG785ji4q3s/iL91C4xeuQ76/HmidagjFCW2BumkVw0QiipKBs2twSbcGzQoFCWTK+pC0Q4dwNJMrxTQQrNYD/R0Fp/HActga1B+F8WFxbfH4cyVR90arLQFmyEUNXdvEP/OqjVYDUZNHGw3qGQwfm/QmlB0lpFQlJWWgdwaVAGWAlY7WChKbg0aTq8MCEWNpldKKxA+BGbtWRB/4zq4Z+5hcPTA2aYcZHZz4X9G8OxO7ufHwNc/ug+MdBbAcLSAAEuCrNqD7fjWoP17gxXAIpUMtIbatc/hNFIoquW8Mp5emZ+72qrbGjQwd4WnV8r3kvzz6Z7O4qd6OreeySHLKGB5Fv0JQfxe2dju2eGARQ61awAWva3B5Sq4sgRYBuFqpua9QWuAZbg1SOne4DTLe4MtA1jp5gIWoWUg4cooYME5K5ha/WhoP3gofRLBgRqoOGCZBSzl+/FHz4HVu4+Cm9+7B8FVpWVY496gBly5E7A2XAFYxtqDJFxt1U2xDLUGccDqKEqA1Vm80NO5tbenc+vFHLAMzV+h4fZrEwJSMqjEos4ythvfGqQCWG4xtlNrDzJ2XpHJVdON7ZhUlLKxndwadKux3VZ70IaxfTQgD7F7M+Cuzz0Itu8/Dk49fh5cONf62gWWpdVGPXvqAnhs31nw268eBvNvKoLuK3Kgv01bKKraGqTSHsR/Vs9dUW0PMjS2s7w3aL49uGXW2K4PWJotQlW78N97OovPgm4sXrXbgzC9+qaUXC2WtNuDTjG2N+HeoMbclVuN7foncazNXRmevdphxnZq6ZXrjO0ZW8Z2OGPV/9cpMNKWAXd8Yi9IfvMwsrDjPis+a0UPtkitw8avj4MfTz2C5rM+/1IJtNC2IbE1aL81WDu9GqCUXpWBjWJ70J6SwZhUlLaxvbe2sb169qpT+3WjFKuoeLGSPR1b7VKKtc0ZSxuuUHr1mbggHoVHnRMNdF65ydhObg3SFopaMraTYGVgc1BbyWBvBstUemWyPUg7vVJmr/C5K1b3BqmlV5aN7WlHGdv10iulFThwRRqMR7LglncVwS9mHwb7Vk7UBAJebEALSkpX7joKbv/Ph8Ds64ug15eXQAu2DglIsi8UrWwO2t4axOGqbnplXcfgRmN7T73ZK630SgeypEF3BFigp3P7Ez0dWxdxwNJOruB7QUIQ75bBCnNeac1d2U+vyrNWLhWK0gKs5gtFVx0tFKWXXjlFKJpytFB0grFQVHNzUAYruB0IW4LxN6yDOz+9DxR+rj5vw2es2JdWKvj4wXPgF/FD4Evv2QsmXrWBkqyBkARarhCKqpxXWnNXrNOrTUcKRXtqGNtrgpXswurpLJa6O7dK6Pfo3P5xT8f2q7o7t3fBx4sELI/YFRfEh5TkipVQ1J7zqnZrkLXzisXclW2hqNfu1iCd1qCpzUGLW4N0AEtHKNrmdqEonXuD46bSKw24Ip1XdQbb8e3A6ZfnwE3XbIL094+Ac6d3tijUCUX+mT+69wz4/vDDYOHvtsBwxzoYgIAlv50iFFVAybzzSiO9MqBnoC0U7TUjFNWFLFVyhV43bBt2bg/DNqEEWfwQNA5Yz4TWdghTjQQsmu1BJq1BHWM7i61BtZbBQnplanPQ3tagXnrF6t4gDldTrIztDQEs++3BsvvKMYClYWzHW4NBbbgqA1Ygg+asEm/aAItfexScPnZec9ONA1bji/wzV35+YPkk+J//egglWP0hmoC10aKApdMeNJBkWZu7MrY1qAtYnUYAqwJXCmB1dWz/rKtzO9LVIUHWji7ioPOn457F/XB7sNIeZGtsN98erD3QTiW90pq9wmDIMcZ2vfaggZM4tNqDto3tfm5sNwVXdduDWidxrM1dmWsPmje2o3ZgWwb0/uUa+MLVG+C+mw6BR/ecAaePcwu7G0ALbnAeO3QObN53AnzzUw+BXn8e9PjyJkGLlIq6z9jOqj3YNGN71ODslQxY3QisIGBtleBnV+f2o92d26NKm3BHQxY23P7UhGfxvoQgnm+Ksd3wvUFjoEVl7qrO5qCjjO0Gtgb1h9vppFeuNbaTW4MtZWy3vzVo19hetTkIz9v4M2DgZWkwd1Ue/HTiACj+5hg4fuhczb/QeTlXUgrP7iS/fQTc/P8/gNKsLo9R0KKcXjXY2N5rSclQ33nFwtjea8fYrgtXeHtQel0d6POe7s7tP9zRgCXPXMnWdvHVcUE8jLcGpbbgIj0lg9OFojVmr+YbMHtl29huaGtQC67szWCxNrbbn7vC4arOvUGKW4M7ytiuJFc66ZX0szTADn1W03+TA3d8/AHwu1sfBccewS3svBXoltJq2a7fexz8aOoRcOM/7QF9gQLobcuDATgMXwVbuJKBcnrVIsZ2c+lV/dZgj5mtQUOtwS1s7kpKsro6tqUUq2P7we7O7Q92d27v3rGQhR11fl5CEG9PCOJZOa0q0RaK6qVXtISibr83aEkoakDJwEIoqmVsr5tcWUivmiIUpQJadJUMqvTKDUJRcqAdDrC3ZcCILwOmrsyBm99ZRKnVwc3TVX9h82qB1iE8u/OLY+BrH3sQzL6xiACrP4hDlpZQdN3xQtH+BgpFzW0O1t8a7KHgvNJqDSqfXfJTUqzuzu3z3Z3bv+3u2H7mzgUsQdwV9yzuiguLf5PwLF6Q0qtFJkJR0thOUyhKZbCdTK50Bttpp1dqwGLbGmQhFGWRXtFTMjRPKGq7NYgDlmnnlfXWoPH0CtscxLcG8Zkr5fcJZMBkJAvmX1MA3/nsg2CvyH1WOwG2oBH+vq8cBte/YxuMvVIWhxJpltIatD3UTqRX5SSsaekVNtSO4EpOrgy0Bs0Nttc3tveavTeoC1r41qBGa7DyHaVY3Z3bx7s6t17d3bl98Y6ELARYgvgncUG8TjqJI0GVswDL3NYgtXM4Tbg3SHtrsDq9wgHL3tyVYe+VQ445uxqwAo0DLGutQczYrpFcwQ3BOz6+Fzy4ehIZ2PW20ni1YJp1oQTOHL8Afn3To2D+77aqhuCZAla02YCltAbNG9sVuDJ3b9AYXHXbag2SWoZKeqUBWKe7O7dv7e7cfu6OAyxl/iouLL46IYh7y8Z2D9kepLc1aK49WD+9WmiAloHcGqTVGtRuD1oELNPG9iZtDTalPYj/7EJju869QdpSUXPGdo3ZKyK5GvJI//rX37+NRKFHD5xFrSO9v4h5tVaR//c9ffwC2J87BX4ePwim/08RdAlQ7QAdWhJcucnYbh6wWsTY3lk02h4E3dKguwJZ0R2nbJBnr56WEMTPVrYGG2hsN9UerN0apNIe1NgaxOGKFmCRSgZb9wbrQFW1ksH+7JV7jO210yuUXPldZGw3fG/Q3gyWOedVxdiutAIhWMFZqy//UxH89uZD4OHCKXD+LHdZ7cTSgmiodSj86jj4wegjYOyqTdDjK4DewDrox0DLqpLBrcZ2vXuDDjS2A3xzEG8NVgGWnGLJG4VD3R1bz98xKZaiZogL4isTHvEnMlyVYh7ovnKHsZ1Mr2wnV8TWIMu5q2olg8V7gz479wattwgNz17ZbA3SSK8qUlJia5BhetW6xnbS2i7DFRxg90obgtDA/qOh/Si1OnWU+6x46dvg4XzWbR95EIFWNwSt4PqOFYr2MnBemVYydBjbGsSM7VpgpQVe+e6OrdfuIMCCg+2ictT5pJuFotQAS2PmigtFLaZXmkJR4wPuajBieG8wwC69sgRWGunVhOOEopUECyZWEKzgP5N44zq442N7weqdj4FTj1fAircCedVKtfaunAI/mjoIbnjXXjD6qk3Q07YO+sMGEy08uXKMUJTYHGSyNWg8veqxPXelKRStC1ckaHV3bn+yu3P7SS0PWNLmIEqvLkt4Fr+G4KqcXNFNr/C5K2NCUbGxQlGd1mBj06tGCEWbNNi+A4Sik4zP4TRKKGoUriBUjQWk1AqmV3A78OZ3FMH9Xz6kAit+kJmXmdbhdvIk+Nbn96M0a7BjAwFWXchSAEvXeWUvvTKvZCAG2yMshKIkXFkYbI9aaw3W2BrUeyVs4P327s7tQJd8o7BlS24NwvexhLC4wRqwcLgyNnu11Dwtg84xZ1Zbg5YAy+DWoGPuDTYdsCpSUbcClnZ6RSZXjTG2I7iCyZUvAxZeUwA1y8sBAAAgAElEQVS/mH4YHN5zRuMvTn43kJcxwFJ+PnPiAprPuum9DyDI6oND8AYTLNaAZWqoHd8cNLg1aFzLQAKVjXuDncadV+p7g7pzVzqAtQX/vWe6O7c/3dJtQkksurgr4VmEoPUt9Ukcdu1Bbmyv3hq0ZGz3t6axnd7cVXON7ba3Bol7g7Xbg/bSKyvG9lF/GgxdkQZjwSz46fgBsD99Ev2lCNUL9RKKnVpafxb8z0f/z+LcmQtoEH7lu0dR2/A6TwG1DWttDWrdG7QrFbVlbNeavXKlsX2ramvQbHtQvVG49dXuzu3nQMDqakXIksBqcXfCsxiNC2Kq+t4gHecVC2M72Rq03R7Ef26gsd2094pMr1rQ2M4ivWqesd3m1qACV6bagxmm7cHRtjTof8kamIxmwd3XPQgyPzgKHtsnpVYcGszBFf/zMq512Lt8Evzqi4fBje9+AHz2r/LSfBbZNqx5b3Czge1BjbkrA5uDva4wtm9ZaQ9itwmlI9Ddndtid+f221ryCLSyOfgFmGAJi/G4IB6RhaKl5glF9WavGDqvtOauCMhi1Ro0fRJH695gnRah24zt01S3BtXpVSOEohJk2VAyNMHYbiS9GgukwVhbGgz+dQpMhDPgtvdtgftvPgQOrvPzNmZAAUo2C788Bu6JHwS/vfVR8KjcTuWgpf/nh/8Znj52AeR+cRzc1f8wmHvLNoKsHn8B9EM5qSOM7RrOKwWyTDivzMGVMdCqC1cdxo3t+NagqfRKfQD6VHfn9i2KE6vlACsubQ8+Oy4sbuqnV/bbgqzuDVJNr1pIKMrCeWVbydB0oWhla5B2a1A/vXKXUFQTsGSwGvFJM1c3vW0D3P35fWD7d8d5CmMCrOCZGAhT4jcfAze/Zxt0XZ4BI9E8+OHoAbC9eAKcOHyeG+1NJlr3ffUxcOuHHwTjrykipUNvaB2BFnpNF4qavzdobfbKYULRTsNPTrG2st2d25crR6BbKr1KCOIfxD2Lb40J4uPy3FWpuUJRZw22V7f1miwU9RoXiuL3BmcppVdcKFo7vaIiFG1zjlBUSa0mQhkwf1UefPW9W2DP/cfhvDpPXAzCALTVH3/0HMj97HHw9Q89AEajedAnZMFwKA+GgjnQ582Chb/bBL/8wiFwIH8azRypWYIvB9QCrWMHz4GfzB8Ec2/ZAiOv2EQtw76I9BovFCXhyvg5nD6KSgYyubIvFN3SbA3aBCxlHutAd+f2dd2d209AKVZHa0HWc+KCeGtcEE/J6VWJRnKlN3dlbmuw/uwVk3uDGluDLACLxb1BLWO73dYgCViGZ69U6VUz7g1WdAxVW4MNASx7rUEcsKrnrrRag/Zmr7RagxCu4Ibgze/YBKnvPlY+bYP/JccHtPUB6/y5Enhg+QT41qcfRGA1FMqB4TD22Z4DQ+EcGG7PgYG2HLj+mi1w/62HwcnHuN7CaJKl/PxI8Qz4wdgjYPjlGwRgWUuuSMAydcxZa2vQxL1B40JRY4BVU8vQaQawat4btPoudHdu/667c/ui7lY5nwPhKia1B18WF8TT6vYgnaF2sj3oOGM7CVgaw+2snFemtgapGdtXm9ceNNkapNUebLSxnRZgNdPYDlOrUV8a9P3lGrjlnZtg6ZuHwdH9Z1GLq9ZfdDu9yD+P/ZlT4PsD+0Hs6k0wfmUBpVXoyXCFXrsEV0PhPBgM5sFwpACmX7MBvnztXpC84whqg+n9/ju9yNksuLl68sh5sG/1FLiz7wCavfq8twD62u2lVlSM7R2NNbbXbQ9GrbUHjRrbLbxD3Z3br+nu2L64JQBL8l4tXhoXxH9HxnaPkl7Rmb2Ku8nYTiRY8wy3BqnMXtWZu6qevbIHV7bagwZBi9wadLex3eJJnCYb2+Eb8abB0MtS4AtvLIBfzj8MHkgeB6eP8fM29f6iJ0++/OoLB8FX3rcHTL2yAAb9WTAUwMAqpMAV/IS/BiEL/lwAQ6E8GGjLI+CKv6UI/ufTD4H8z4+Bc2e49sLU/w0eOAMyPz0Gvv7J/WCgYxN8XoCJFky2Nhxzb7ARxnZa7cFu4t4gLbhStgm7OrZOdXdsLXR3bl/m+mF3CFcxD0ywRF9MEH/EQihq795gE4ztGpDlJmM7mVzNMmwNsro3SDO9al1jOwlY9oWiSitw6IoUmH1FDnz38/vA2nceQ3ND2F9hVYnBTi6tP4vHHz4LVu86Au667iEwfdU66PdmwaA/B4axxAoCFJleSXAlARaCrLAEWv2+HEq1bnnvXvDL6w+BvUsnyi1avf8OO7nQnwc+HAgA2Ld2Cvz8C4+CL77vAdDlXwe9YWOQRZ7EYeG8sq9ksHlvsJPNvUEbbcI93Z3bf+F+wIJncTyoPfj2uLB4EsJVjOG9wTJg2UyvyNkrW8mVRmtwnvG9QcutQWrOqwYLRS1uDdJKr6ZaVihKJ70qz13BOau2NLjhzesotTryENcG1PuLHK8Th8+BrfuPg59OPwLmX78B+q7QBqsquAqrwUr9XYatUB70XCFB2Fc/sBesfOcIeGTztErkyiFLA7TwJYMLJVD49XFw28ceAsOvKKKWYS3I6mtCetWyQtFOY9uE5Vmujq2ruzu2ngRnsVxb8lkcqGYYkDcFS5Xhdvr3BsttQkNKhvrJFRUlg0ZrkKVQ1NJgexPvDbpZKFpJr3TO4ThcKKqfXpHJlfX0CgEW3BCUtwRvfMsGSN11pCZI7PTS0i4ce+QcuPemQyD2pk3Qc3kGtQIhWI2E8+ghuFLagmRrsA5cqUArnAd9cqL1zU/sA3uXToKTR8+rEi2t/447vVT+rOMXwH//534wclV9yLI02F5WMrBIr6wNttecu+qsP3dlVyhqqE0ogRV6XZ3bN3R1bv8ltLp3Xblnl5sB63VxYfEXVGeuiNmr2qmVnpahvrGdxdyV3uYgzfagqY1BrcF2A+1B7fTK3rMEWBaG22ka21WD7VrtQepzVza3BnEtg2GhqM2tQRmw4LzVxj3HmvoXodvq/NkSWLrjMXD924sSLGFQhT9dwCq3BvWhSg+04BvtLID/+cxD4IGVk83+o3AVbJ09eQHc/l/7wdArNlG70B5ckUJRzHlVx9ZufGtQK72qD1iG0qtO4/cGWcFV+VUAa991V+55jdvhCrYJP4ucVx53GdupAZaOVJT15qAlY7upe4O4sd3e1qCp9iD+c8ON7Xh61fj2oG1ju87sFVNjuwxX4+EMKP7mOLhwjpztaerfhc5tN50vgcI9x8At79kDZl6zDkYgJAW1AUtz7qo8e5W3DFiD8IXyYKSzAOavLoIfjj0Mjhw4W/Xfm5f2nwXcNPz6f+wH13mlwXdnG9u1pKLFuidx6Bjbt6kY243AFa58uO7KPR/r6ty+yHWQVYGrxefEPYu37VhjO5FgkVuDNADLzcZ28iSOeeeVg43tbc4ztmttDrI2tkMNw1Q0C34yuh+ceryyJcj/Ysb/HNR/Ma/fcwx853MPgevfVkRAheasgjkwEqqGqqr0qpxcke1BY6A1hH0OwhfOg4FgHvS35cHEVRvg1g88AO5JHATHD/ONTz1QxgvOZN38r/sQZNXaGqR9b9C6sb3+1qChkzjNMbaDeu3Brs7t0nVX7oEPfv9GV+eegKsAqwxXUnr19phnMSnDVak5xnYSrIxtDbrn3qBNY7tBz5X+3FUD7w1aSK/oCkXVs1eNF4rauzeogJM555WNzcGAdPYm8YYCOIgNTHO40v7LeN/KSXDvjYfALe/ZRjAFh9i1UqthRukVDldDGGShz7AEWb3eHJj+2w1wV89+kPrBUXDsEL4Byv9vS6aRMIn81c2Hy1uF6BneGtQwtuNzVwZnr8wrGYoNM7b3YEoGVoDVpZ1ega4r9+zp6tzzL9d17tnV1bnHRZuDSCyKXiwuiMdZbA2aVzI0SShKtAZpwhV151WThKKWlAwmW4T00yuNtqCThaLE7BWL9GpcI72a+Zss0jHwv4C1W4Hw+2P7zoL0D4+C2z+5Dw2v974sIyVWGrNWJFjpKhlUm4PmIKucXhGwVQatQB58/qVZkHjrFkqz4HzWCZURnoMW/mew+bsT4Pp/3gt6Q5WBd/MncVpNKLpVBiuGW4NVrUEIVnJ6BQELvsnrrtx2EWCVDzsvXhIXxPtjqvTKWULRRg22k63BOafcGzS5NbgzhaLqofZGpFfMhKLKYWdDSgZ7LUL4oEj0pms2wF7xhGrdfycWmVbBlf4zJy+g1Or7AwfAYFsWDPiyhsAKbwsO1RGKGoUrsjU4ZOChREvIgdibi+jsDrzVx0Wl1fX4oXPgFzc8CrraZAkpIyWDtfSqaL81aDq9KlYJRVkBFp5elcFKgquSDFg/6+rcE4GA5YpWoQxYu+PC4pvjHjHPamvQ2Oag+XuD1NKrBm4N2tocNLA1WBuw7G8Nmp69snAShxZg4ZuDqq1BBpuDtrYGccAylFzRvzc4ePkaOtp86uh53hYk6tDWGfCj0QNogB2mVrWgqlaCVT17hUtFzQ22mwWscqoFZ8M6CuCmf9oLcj8/pjq7w0uq/K+Og+t8FcAyPtSObQ4ahCvzzivjWoYqoaieVNTg1mAPQ7giEyy5LVh5neiz2NUJh91d0CbE0isIWDNxj3iIxtag/fagdpKlgJFtwCKFojrGdnpzV9VwZbg9SApFDW4N0jK2W24PmoQq+sb2tSq4ot0eZG1s11cz2De2kydxpOPNafCdTz+wo/+OJYfYTzx6Dvx06mHwhbcWwVgHhCNpgB196igYzLUHsSF3Ey1B1WC7Gbhqh9uGsHVYAMPRdTBx1Sb4+kf2gcIvj+v8WezM2rt6Coy+uojag72RDSbGdmtS0frtQdbG9q4GtgfVgFVuE/43TK/QczJkSYCVhJ9PiXvEjNwedIWxnSpgYXNX5OyV24zt+umVNdAyLBV1oLGd/b1Bdxvb8fYgnL+C53B+Nr5/R/4FS85aHT90Dix+4zD4yrV7wOxrpdRKsbCbSa3qtgdNSEX1Zq+Mp1d5bDZrHQyGCqDPB91Z6yD+1m1wd/8BsCep9mftpP83gP/v3Z8/DRLv2CulV3UBq1H3Bo23B11mbAddeu1BFWSVf/5915V7XnSd09uEUnr1+yfFhcVIzJM8FoM6hbK5nc7s1U43tuunV/SN7TTTK9LYbgqwdoCxnZXzqjx7pWtsJ8HK3oA7OokDjzn70mD+1Tlwz9wBsJOKBAh4ZzH748fRnFXiLUVkYTcLViRc6Z7EsZBe2WkNVgBrHftcBwPBAui+Io8Srdv+fR/4zS2Hwf7s6Zp/Tq1eB9bPgBvfuw/0QbDB5rDqKhksGNutKRmMpVf2W4NbqrmrBhjbtdMr6ZVQm7Bzz56uK/f8W1fnnic4FrDk5Aq+Z8YFsQtuD0qA5WyhqC0lg9bcFbE1yDq9aqxQ1LrzirWSgdXcFdkadOu9QeZCUQyuxhXAuioH7pk9sCMTKziHtD97CmkXbvyHLTDgy6GjzGZnrQwLRQ3cG6yVXNlJrxSwKr9wBbR6YaL18g3wrc/tB9mfHwNHD5zdkWd3DhROg+vfbQawFKHopjOFolrOKxPpVXdjhaIa6ZXqHe+6cs83FF2DI9uEMQRYyV0xT/JP457kr+JC8hwN55U5oSj+s7GtQWqtQQyySLiiBVg4XFneGmxRoeg0tfSqhlC0rZFCUftbg2R6RVsoqpde7STAqjKwn5O0C8vfPgJuefceNF814M2aTqwaLhSllF7hgDUUWZdlpQXQLeTB1Os2wfdGHkZtQwigpK6ilcsYYJkXilq7N0hRKGpwa7AH2xpsxL1BHSWDzkP/+t6uK/c8/Tp4m9CJgIUSLOTASobKYOSx2R7UOuZseO6KcXplcLCddmvQkvPKa3VrUIGrBt4b1Jq9aui9wRpCUa3WoAOFogpcsRaKkumVAlo7AbC0gAD+0tZvj4Ovf3AvGGozN7huFLZQeqXlvbIgFLU2e5XHnk56BeexZMBCkCW/gfYC6G3Lg5k3FsHP5g+BI/vP7Zg0yxxgYUPtJtMrWkPtus6rqBnnVVHjJA779MpAa5BoEyLAOtp15Z63d1255ymObBPGPSjBuiwuJD8ZU+4O2gAs8iSO49qDTTS2WxpsrzN3VV8q6i5j+04GrEYZ2zlgVQreWfz2p/eBudetg7FoHgyZ3Aw0BFc1je3mVAzW24M14ApLrwYJuFIAawBuHEbWwdirNsD179gG937p0R1xQskyYFGTipJwZWNrMGpva7C70e3BWg+ezpEA61TXlXviXVfu+UPHAZYMV3D+6mVxIXmndNhZbPC9wf/H3puAx3GVeb/J3PmYOzPMx70fs12GWZmZj2zublleY3UnhIRAIMAQYGBgCMsHDFsGBgZwqyV5l+RdazZC9n1fgOwbSciilmTt6tbSixfJtmRbsi3Lkt77nKqu7lOnTnWfqjqnuqq6+3nqkZRFdmRG+s3//b+/N2r43iAXwPKIsb1J0HjQbmM7v61B8cb23R4xtpdSgkUCwKGB0/BMwyG45QujsLNqCLZWDJjyWuUrtjcUwdjO3rsaVo8FV+PjwQxYZR4ctDavlGFr71WjcM91+6HrieMq0KJ9rb0LWHFu9wadZ2wfpXavuIOV6fFgAjKAtVhblRirWTf+14qywTEvGa6i57T5Oj7W7oseb+O8NSjq3qDlYjvD1qAbje2806uysZ0tvXKrsZ2EK68BFu0HPRKFvn33UXjwhynYuW4Itvr7YdvyAWhAqZUAuFIBls3GdnrviuherSLSKwyu8BRLlWZlRoYblw/D9Z8fh6d3TsLwq7Mwf3pRt+PmPcCiKRlE3BssrGRgujeIf8ywNVhXBGO7CrAYHwmyZPHoJVIPy4GA9X+1+6LXyelTx1KbdB7HY0JRvfSKchJHhJLBUHpFUzJYEooWIb0yuDXIo9yuuzVYIU4oatnaTghF6UoGQUJRClx5CbDIH+4zk2dh6MUT8GTdAdjzoWHYdGEf1FfKYNUgQQ+CIn4JFnU0aELJwNN5pde7kqBKSa/W5AcsErbq/EOwacUw3PzlBPzurilI95xWnd1xO2QVBiwdoSgFrjYKvjeY19jO3L3SHw2KSK80vavcSRyWZwlLssK1VYm/cCJgfbDdF73BqprBNUJRSt9K5NagaKFoU7GEorTNQZPOK3cLRU0mV2R6lVco2sddKOpVwCJ/oM/NLEip1cvtk9ByZQw2nieDVeOqQWhcNcAVrkQIRbeJSq/w0aDSuyqQXuUDLZRmoY3D27+Vks7uzB5dgIWz7i/C0wHLLqGo8c3BvN0r5vRq3CFCUdZHSrF+U1uV8DlqTJgBrE+3+6LvWAEsqvMqr1C0cKmd271BBa500isx9wZpxXYDcGVgc1CdXlnbGtxrZmvQ4Ekc/sV2BqFopXOFomzplfjRoJsBi/zBrXx8cuosvHHrEWi+chjqVwxAw4ocWClPDrD4965Um4OqrUHjQlFzgFVgaxCDq0KjQVbQksrwq2Nw/48PwOhbJ/P++bgesBShKIPzyjxcFS62M/eumDYHbbo3iMEg49agXtldHhXKTqwrZcAad9J5nOh6S8mVKcAy3rsStTVo371BcVuD6vGgNZEoc/fKBFzR7g2WAUv8eFDPeaUPWEPwctMEuOVF/sA+c2oRuh6ZhpuuGYHdlwxJUNWwEo0D1cmVAlc8AYtqbF/Nz9hubjxYeGuQG2BJkBWD+nVx2POxUXjwpwdgcnTO24CF3r+4uMZ25mPOBceDWt+VaC2D0d4VHbQk2PqGI3pY2O3B32/3RdutgBXt3iAvJQOX7pVbjO0mx4OOMbYbTLGs9a6048HdLje2Fz6JY208yAJXbgMs8iAzeu17/Bg89F8paP9EXBoFygX2AWhcicBKhiptesW5eyXA2G4erobpxXZyPGige0V/hjHQisHmlTHYVBmD+lAcbvlaCp7eeRiOpuY1f35Ohy0tYNFO4njP2L7BhmI7n/Gg1MOSuli168ZbatYlPoDM7kUGLEXPEK1s90V/kznubLzcTlMy+BxmbMc/doOxnXFzkH4Sx0ZjO3qKYmynjwezxnYBziu6kqEYxnax6RX6PbgFsFQ28cUlSLxzEp7fPQE3fXZEAqsty/qxxEoNV0p6xWM8qGtsX+l8Y7uyNagAlpX0SgYsGbK2rInD1jVxCbQ2rYhBrX8YGj80Avf9+AC8/cAxmEqd0f2zdE3JPbs1OGK7sX2jYGN7HQlDAuHK0nhQtU0ovX2ptirxEQckWBnAWhb9brsvGssKRoULRQuPBsmtQRHplRihKA2uLAhFGTYHeSgZyOTKDqGo9a1B9eagHemV14SibgQs8gcxKlFPxk5D9MFpeOC6FGzx9cNmBFbZrhX50EaDNqRXFrcGzQtF9btXWwWkVzlvVlyCLPRsRg8CrZUxCJ83BLs/Ogq/bpyEkTdOwuyU8/1ZdMAyLxQ1nl4ZdF7RSu1MW4NjtgtFaww4r1i6WDVViaM1VYnv1FQlzilaipUBq3Pa5PM4t5i5PWhOKMq+OSiseyVUKNpVJKGotdGgJeeVCaEoDyWDejRI2RoUnl718UmviigUJcFKfpw/IkQ/hNHdwFPHFiD+6ow0Dtzs65d8VmRipZde5cBqkG+xneneoHHnlTmh6LBpoajZ0SACKxmuYlm42kI8G1Gi5RuGXVeOwuu3T8GRxBnJn+VEuNIFLHw0aFAoKvzeoGGh6JjjhaK1+ZKrXH9rqaZqHCJViabIuvFzEGQVD7AU/9Wy6IuK/0rsaJC92M6td6VjbBdTbO+kAJbBzUFGoaj23qDN53BMbg3y7V31akaD0ljQqUJRivOKnl71ciu1sziv1HClAFa/4wFrKnkGHgvvh13BoVzHSges9HtX/LYG8c1B7dagtXuD5gDLulDUeHqF4Er5nHS4wp/Nq2JSstX6LwnofXoGzpzMSUqdC1gKXLELRdnP4bClV0xwRW4OFtwaVJfba23qXVkdDdZQPo6sG3+ypirhQ4AVKQZkZeDqXOm4sy/aKcGS0f6VYGO7kNGgnw5XPAHL8NYgmV4xGtv3CjC2GxoPWtwa5FFs9zZgWe9dsRfbZbCSnwHnA9biEnQ9PA03fGoEtgbk1KpQckWmV0K2Bkljuwm40kuvzJ/EcTBgoSJ8ZnT4+MYJmIire1nOA6zRHGDhW4MMm4MitgZ1nVdMvSu98aC40WAtJb3iCVgZuEIJVmdNVeIL0piwiID1e+3Loj9p90VTZseDZWO7uthueDzodmO7wQ6WmPGgmHuDwoztBceD9hnbtYA14BrAeufeKWi7Ki6NBfMlV7jzSl1qt8HYnn3f2r1Bc1uD9FK7ajzIrdie612R3astDJC1YXkMHgofgoNDapWDcwHLC8Z29dagHePBOmvG9oIjwkgGsGrWjc/UVCV2Kz0sWyELGw+e274s+ki7L3oqk2AVzdje5hFju+HNQYNKBnr3qlSM7eqtQWp65RZje6U4JQPZwWIbD2IfV2YA68POBqyO+6YkDQNKsIyPBu0ytg86w9hOSEX5pFfDmu4V3rtigSsFsDZWxuCRyCEJZFwBWAV6V6LuDW4wkl4ZuDdI817VOdbYrk2vsnCFpVg1VYlfKQlWEQCrA5Xc393uiw5mEynuQlG9e4MCnVc0JQOld9UicGvQUHrFoGRgT68EO69M3BukjQaF3RsU6Lyy39hufjRo1HlFplc7KvuhocI7gMVbyaC3NWj13uA2rumVXVuD6tGgUbhyNWAxbA0aS6+MjwatC0XxrUGB6dXF/JUMZHqlQFZNVWIpsg69HX+7pmr8n2qqUNl9vAjjQV/U1+6LHpHGgwwFd2tCURvvDVKUDPYJRbsFC0X10itzUNXkWqFoj/B7g7mulZ1CUeubgzTvFVN6VYngKjMi9Ahgkc4rUelV1nll4d6geSWDXu+K/71B+tYgRclQKoDF7d5gYeeVSKFonc3F9lqB6RWWYA3XVCW+WFOVONfmBEtSM/xxuy/6rfZl0WNGtwbZnFfG7w2KGg2KSq/ovSsTo0HGzUG1ULSLy9agYcCyMBrcw2k0KFooSu9d8RkN6juvilVs78PgCiu5ewCwyNGgyHuDasAyvzW4jctokN694i8UzZXZWUvtngAspdzOuDVYtHuDebcG9U/iiIKrOqv3BvMV2wnAQqqGmqrE4Zqq5K7IuuTv1VQlbU+w3tvui97U7us4ZUbLIGJrkKvzigJYOBjx7l6Z3hpk3BzUN7Zb1zKYKrY7wNi+WzBgWR4P6hjb2Y45mwcsHK7Y0islucq8v9JbgCXa2K4eDQ5Z3hp0D2ANlx5grWMDLOPOqzE+9waZtgbpcCUSsGpJqaiA9IqSYC1E1iVfQYAVqUqeYwtkYQX397Uvi/a2+6IL4ozt7N0rYVoGQcV25xjbux1nbN/rEWM7l/Ggw43tOcDCOlgeASzbje0KXGm2BoeKbmwntwZFGttLArCcYmzXGw8yncRRbw26ythepeldkelV5kmmIlXJv4hIm4Q2AZZkb18WXda2rGPOzNYgW/eq8L3BVpuN7bwAK5eAFcPYXoR7gwaN7UpytVewsV0DV06/NyjI2E7bHGQeDSrjQQWuPAJYpWFsJwGrcHqlBiPxxnZPAda1RILlNGO7hXuDIgCrVqyxXQeusoC1VFOVRH9/qqYqcXlNVfJddiZYf9jui34O3R7MPEvFuDfIpXdFgysCtHiPBvHelaVjzgW2BnnfGzQtFDWxNcgvvcqlVt4TiuqlV+agaqdJJQM+GpQeT3SwxPautOkV3ruy1r3ikl7hQlEh6ZUxoSgTYNUcgkMxhwJWrDBgGSu1k3BlUShq6N6gMhq013nFWyhaKL2KrEOAlZypqUpGaqqS77EJsKSC+9+0+6INEjwVOPBs7t5g4eSKHA228hoNEmAlamuQW3plynnlDqHobpcIRfXSKxyYdi7vlZ+KXtiReXYqD/o9WRaK2r01mFMyZOHKAwkWzVMuh4gAACAASURBVNjufaFozNC9QR7FdnwsaAmwVrsfsMpC0fGC6RVvoagWrsbJ0SDIqobkXE1V8pGadYk/Rz0s9NiRYAXafdFnxBTbyd6VwHuDytYg2b2ilNtFbA2aEopavjdordheFooyplcKUGUeBZ52r+iDPavkZ/dK+VEBGP7PY70r0fcGTY8GlfHgSvWjANZLLgIsfGtQxL3B/EJRY3DlLqEoPb3iAVdZwFqRAaxh9ydYxtOr/I9uemVwNIgLRTfYIBStE7A1SN8YJAErib1NLtRUJftrqpJ/jRIsoSlWVjDqi4bafNFRI90rBa7YNgfx0aDAe4MG4EqEsd3Q5qCfx71BazJRzwGWwPGgAkrb/b3QcEGPBFI3XjUE931zDF7afRBe3n0Qfh1JwwP/MQ43fHQItn1wHzQu64EdAfTv96q2Bgsb261vDRq/N9ivC1cKYDW7GLBE3Rt0FWAJvzfIAbCkf98bgMWrdyXq3mAdBa7sMLbXcAasGgOAhVIsOclKLBNedG9bJgNW27KOzxkZDzrS2E4DLGxrUMR4kKuxnWlrkGZst9bB8pSxXYCSASVOCJIQVKEx4CP/mYDO+45C8p1ZmBg6DUdH52Bmcl56ju0/A0fH5mBy6DSMvTEDr7VPwG2fj8tQdmGPBFr5je3FvTeoGQ9m4Go7OprsQsCiKxkGHWdsr7fJ2E52r/gY2/mOB90OWKKM7Yakok43tq/juzVIHw/iHyeVZ6lmXXZU+KVIVfLdNiRY0Xe1+6I/ygDWUvuyqH7B3enGdp17gyKloobhyk3GdhKwSszYjsBq6//eB3vX9MNjP05KYHWg5xScObnA9E0YQdf4GzPwxk2TcPsX4tBwUY/07ECfOwNbvO4N4qV2K8Z2Eqy2uzTBsuveIA9ju5Jc8UmvimFsN3cShwZXbgasjTbeGyx4EofR2C5qNFhXJGO7GrAUsMq9n0uwkltrqpLvtwOwPtC+LNqa77gzeRKHXSha2NguTMlA2RoUn14Z3BoMmBWKWje2i0qv9hTT2M4jwVreA7sqeqTEae/afgmM0PjvYM8pzTfZpaUl6jdf8q+fnVuEwaePwRM/S8JNnxyGRn+v9OQgq7d4o8Hs1iA9vVJAy22AJVooqjK2U9MrY1uDQtMrRSi62llCUWp6tda9gGVdycDh3qAuaOFCUbWSQWR6VYuNCUWNBhnTK7zojp5Ha6qSF9kBWJe2+6LPitsadIZQlJ+SQc95ZVAq6iahqAHnlQih6B47hKIZsNoZ6IHdK3rhhiuH4Mmfp2D8zRlmsKL9c/g/Oze7AJ0PHIU7rx2FtssHJcDaHsBBy3yh3bJQFFMyKFCFA1a9SwHLTUJR60oGeu+Kt5KBtjloCbCyo8E4bHEpYFkXio56SihaS+td2SsU1aRXsgcrCWhMWFOVHK9Zl7wE3SSsCQqCLKngvqzjX9t90aFCY0Fj9wYLbwuKLraLGA0287w3yHgORz0WtC4U3esKoagasETfG5TgCn3+yl5oWtsHt342BiOvnICF+SXDUKX3UoPWIvzul5Nw09XDsAOV5xHwINBBfa9Ka6DFtjXYl3c0SKZX3gAs62PB0haK4oAV55NeZbYGs+PBtbkR4YYVMXjYRYBl/d6gPlxRAWutuXuD+OagyGJ7Ha17xQGqGISiGFhpEywCsj4ZWZcUA1jKiZy2ZR0/a/ehcrtOwZ1IrozfG2SDK8vjQcq2oB3GdlNSUQaZaGkb2+0FrJ3+Hti+bB/c9tkY7HtkSupYLS6ogYonYKH3EbyhjtarLRPQ+uFBqL+o1xJgsY8GyXuD+oClwFWjCwELh6syYPFIrwQClgJXUnoVh00uBSwcrozfGyycXulqGQzcG6yjwJXoe4O1RQOspC5gZaSj34qcIyjByp7I8XXsttvYTo4HTY8GScCiFNz5jgc7+d0bZOhg8TK2N7nS2E6/N0g9iWMytdrh74Gt/9gFt10Tg7dvPwyH46dhbmaBK1hpP5f68506tiCNIZ/degB2re6Hhot6YXsFG2gZM7bTACv/eNC9gMX3JA4+GuRlbK93rbFdBiwu48HV6u6V8tbtgLWRw71Bzxnb1xVjPEiBq3WJJemR/7ndNcHE34hMsP6q3Re9U06q1Odx8LGgKGM7Fy0DWW6ndK9K3dhObg0aSq+KamxXlAyUrUGT6ZUEVsv2QeOF++CGKwbhxZ0HpXHgqWNndbtTvF+0zz+VmIOex6bhoR8kYc/aAai/EPWz+jgb23XuDRKpFQ5XbgUs3luDuuNBCeSsjwetldrZjO287g0qn4uHkiH7oPRqrXsBy/xJnMJKBmqx3VD3SgYqsnvlFmN7DfG+6fRKHgvmnmDy3khVIsAdsNqR/0p+1rX7ok9TNwgtjQbZQIurkoECWaK2BkXcG2wqmF5ZF4qaOonjRKGoCSWDBFY+Ga7aLu2HR/9zHDruPAJzJ8QlViwv8tdLRU/Cb9sn4e6vj8Geiwdg2wX6iZYpJUN2NEg/iUMmV40u62C1fSIOW7KAxU/JwCu9IoWi5gGreMZ2y0LRfOmViwHLuJKhcHq1gSW9WmckvRKzNVhLGQ3y3BqsNXASR/dRACuYhEhQArHXaoLJK/kDVqZ/1b4s+pX2ZdHuslDU2NagaKFok1OEoia3BvmmV9aEovh2YPO6Prjts8Pw8q6DMJU4U1SwIl/kr49Epk+GU3D9R4dh99p+GbKWq0GLrXdlTCiaFYsSKZZ7AGtEAixbhKKqrcFi3RukbA1yE4qKHQ1mvVl4erU25jrA2rB2xIFCUZrzyt1C0QiTkoE1vUpAJJg4EgkmvxkJJs9BD3/A8nU0tPs6pjQGd7J3VVAoSnav8idX3NMrYmvQcfcGiyAUbbJJKEqmV3s4pVc5YMvAlcH0StkMRM+eVb3Q9qEBeHpDWrKsOwms6KND+fe0eHYJEm/PwAPfGYe9VQMyVClFePTW6GhQ2Rqs1BeKuhmw3lEBFr/0yvFCUWJrkE96NawptuOldp7F9lx6FYPNEmDFYcOKuIcAy9hoUBewTBTb7bo3WOcwoageYEWy6RUquSeguioZqa4SAljSDcJb2pd1LGg2CMljzkzGdratQS5ahjy9K9H3Bt0CWHs9AVhEelVpDLC2X7RPev+J/07C5NApSfiJfhC7BbCkv7a4JI0xUT/rti+OSHDV6Jchy9h4kA5XJGCRo8EyYDkZsGI2ABaeXMWycGW5e7WW2BzMAlbcVYC1kRmwRvl0r5jgyv57g3VFBayEScBKQnUw2RwJJn+fG2BlRoPIf4Xe/kYutHeYMLbTAEvwvUFGY3uzU+8NFlAzuNnYzkfLUODeIIOxXbKwn98tpVaPXDcO8ZeOw/EDZzSaBKe/yN/jmdlFODwyB2/fcQRu/+KopHWo9/XCdgy08gIWbmwntgZp3avtJZ5g6UpFnWxsx0/icNkaFGtsz44aM92rzVnAGnEdYDnb2C5WKlonwNhubjxYAK4y/atMB2spEkwgwLotEkz+JV/AkiHr/2tbFn2jXR4PLpkztrPfG+Q2HqTAlb3GdpPOq4B9ziv3G9sx5xWDkkHpWW2/cJ/Utbrn2hF465eTMDF4ChaxxAoxixvgCn+Rv99T0wsw+toMvLT3EPzimjhsvTAfaFG2BgsY22lwVUqAVW84vXKYsV057OxgYzu5NZgbD8Zdm2BZUTIosORmY3ud4PTKqLGd2r1CYKV4sIJSeoU+9zORYLKKWw8LA6wPtfuiPRJY6SkZDAlFi3BvkLI1KEIoKmJrUO/eoNbaXhaK5lMyILBC24Ho/ds/H4Nnt6Ql7cL8qUXVN0S3gVUhrcOp6bPQ88Q0PPrjJLRePgQN/j5oUIEW7d5gfqFoqQNWveD0yjhcecTYrpderdWmV5uRU8olgHVDQcAq3LsylV4xbQ2q7w26VShaU7B7lWAeDdZgYCXBlfz0RYLJ/8MXsNCI0Bf9ersvOup2oaiY9IqjUNRt9wYNJlfFEooqolD0/vVXDMDD3x+HvienYf70oiegSu9F/jcdPzAPr7ZOwO1fHoW9oUFoCPRBY0UfBlpsQlFa76rUAItJyaC5NyhaKDrsLaEo1r+ipVfeBKzCW4Oi0yvuY8F1zhaKSmBFplfYI0EW+vzB5KFIMLkhUpU4Bz28Eqxz233R6nZfxwGp4G56NJi/0M6ld0VuDgoutpeFouyldn6jQblzRd0aVKVXuc1ABbRuvWYY3vzlJJw56Z3EiuVF/vcdHZuD5xoPSpCFjPAIsLZXorf6xXaW7lWpABbpvCq+UJTBeYV5r/ikV7nelQJXltMrZSxI3htUlAyZzUEFrtw0ItQHrBHD9wY3cLs3OEa9N1hSQtEqNWDppVcZwDoVCSbb0CYhejglWB3ntvs67mj3RWd0paLM6VVhY7ul0SCte6VjbC8DltsAC4cruXuVv3fVkx0J3nDFAPzu5gmYTp+RfriSwFFqgIU+RluShwZPw3P1B6Gxoh8a/AiwiPSqgLG9DFhOBCyd7hUuFl2dgyvr3as4dXOQR++K3BrcpIIrrwEW273BvCdxDGkZcq4rkVuDdR4BLPljCbJ+rYwII0GLKVYbukEoJVgdb6OCu7RBSGoZmMeDZWO7me5VYamo843tvACLydieOcjccP4+aFrbB6/sPQgHe07C6RMLJQdWtJdqQ3JxCWYm5mH0tzNw37cTsHPVANT7+piN7aUIWM42trOPB91mbN9MSa/cPyI0vzWoa2xf5/x7g7WcSu3cjO3E5qBqNKh8XIU2CdH7idciweSfWgYs6cBzpuTe5ouOtplOr6LFGQ1ivSsyvRKxNVice4NlYzueXqGtwK3/1CWLQuvSMPDraUm7UOpQxXJI+tDAaXhx9wTceHUcGir6mYztpQhY7jC2D1O3Bsl7g9aL7eqtQR7jQT1jew6u8ATLK4BlzNhe5xJje61eemW7koFtazC7OUgkVxH1mPCtSDD5z1wAK/O8r90XPZCBK0nRkE2ufKxKhsJbg9ycVwU2Bx0lFLX53qA3hKLq9Ap1rHZW9EDjBfugaU0f3Ps1WbuAekb4qwxWLCd3TsK930rAtmWZFMtA76oUAKtsbKenVyow4jgapJXa8fTK3YDFJhQ1lV4VhCt77g3W0U7iON3YrgNXEfUm4RWWNwkzcPUH7b7ox9t80cOihKKW4YrWuyK2BnmnV1yFooxbg/R7g+ZHhIa2Bh0pFO2BXYEeaRyIRKG3/ssw/Lo6BYf6T2m+wZXhiu01/uYs3PcdGbBoxvbtJQ5YvJUMZHLlLqGogPQqj1CUBlfeACw77g3qC0WFjQYvpigZipJeFTjmrBaK5gcsOcFKRoLJH0aCyXN5ANYfty+LfqN9WceUsXuDxkaDou8NikqvcmDV5XihKGlsZy61mzjmvJfb1iBebseFonKBHY0FW4L9cN83RuBAz0nVN7UyVBl/jf9uFu77D3qCVeqARU2vVlkTiprvXQ3ld17Rtga5CEXJkzgcnFfEvUGtUJQErBEPABbb1iC/e4PFEYrWcoar/EJR8+mV8tcY0iv0HIhUJaojVXwA6z3ty6K17cuix3neG2y18d6gVggqArBMSkU9ClgKXPHUMihbgwiyUGqFnvu+PgrDLxyTDOxOvhvoZsBiLbZ7GbDqTQHWsA2AlUfLoNO7EnVv0BJg4aNBTCiq3Rr0EmAV3hrkd2+wDFg1hQCrUHqVe2YiwcSd1cHkudXWOlgdqNz+5+3Love2L4ueco2xnUixeMIVbTxoCq4CxTW2ixoP8kmv1IAld69Q36oHdizbB9v+uRvu/doo9D4+BcfSZ+AsJgtFrzJY8QEsI1uDXgYsO4zt1gHL+8Z2WsHdvYCF965G+d0bLBvboeBokHJvkJSK6sOVNCI8GwkmX7A+IpQPPP9l+7LoM22+6Bm28aB3je3NNt0bLFxqt1ZwN6VkMNjB4uO8ynwedDfwgn2w46J9cMsnh+HV5kOQfGdWdd6Gdh6m/LIOWGbgymuA5VZje9Z5xa17RaZX/I3tevcGvZdglY3ttUKN7TqgRTO26zivdB/5nx9E6RUCLNMpVsaB9ddtvo7+Vn90wXh6VVguyqXYbsNokDS2i7g3WFjJ4Hyh6F7Lo0EZsBBUoWfnRfuk56aPDsKvwinoe2Ja8lllXy48yOzGBKtUAYtMr9xkbBeRXm3hbWzHNgfxrUEtXHmpgzXKx9jOfG9QvTkostjuFaFoRP9ZQoBVXZU4WF2V+LNIVdLcyZw2f/ScVvn5+1Z/dI6HULSVV3pFK7VTIEvU1qDle4MMoMVLKNrkQqHo7op9sMuPnh5ov6Qf7vn3OLx922GYOXxW9U2rDFZiActseuUlwCqcXg05XijKq3sl7N4go1DUW4DFQSh6sfeForVEcmWLULTAI9vcExORYHJVJJj8fVNjQgRY0uPr+Gdkb89A05LZYju+NcgVsMpCUUPpVUHflQnnFa9iOwIr+emB5jV9Umr1yu6DcOLgfPYbVXkU6CbAGoaXmibBrYBFltqp6ZUKrozpGczBlU56RW4NEumVteQKP4kT4wpXZLldnVzlByv3A1ZZKFprYGtQfzTIkF7ho8GMksHA1iDZwULPZCSYuiISTL0rEkyZBayOd7X5Oj6hgFSrvyMPYBk/5uxGwLLcvXI6YJnoXZFwZQWwdly4D1qr+uG5zWk4PHxaupeHv8qAZQ9gbS0DllDAMt67oo0GKcb2NerNQZ7FdmVrUIhUVLM1yAZX7gOsMT6AdXFpGNtreAIWDleZLlW1CcCS//nUsUgwdV0kmPoTC4AV/aM2f/TfjDmvvGVsb7HR2N4k0NhuGLBsMrZLiVVgHzR+sAtaq/rgVz9PwuirJ+DU1FmVdqE8DrTnNfa7Wbg3A1hmkiv56Xd9glXPchLHxHjQfHpFAhYxIsR6V2T3aiu37hUHuCK2Bq2OB90DWGfghmv3Y4DFaTzIcMwZ71251dhew2M8aNzYnifBSh2PBFM1kWDyPVYA63+1+aPX8TK2i7432Oqke4M0sGLqXXW7wthO2xw0Cli7AvtgxwXdsHdFDzzyvTHoefgoTI3NwcLZss/KG4AVcy1gFVQymLw3uE2gsV3lvXK6sZ1Ir8yOB90LWKKM7XrplZeN7Unj9waDlsaDCLBmI8FUSySY+l9WAOv9bf5oQ+GtwcKbgyLTKxKueAEWbTRoKL0yZWzvLo5Q1GB6tcdCeoUSq+3nd0tv7/lyHF7ZcxBS78zC4oI6sSqnVm4DrP7MgzpYA65MsHSFoiv5GNvrTY0Ghw05r6ynV7iSQYErTsZ2cmuQ8d6glwGLFIoyOa8cem/QY8Z2oAFWdVUKvT0dCaYejQSTfxGpMg9Y/9jmj97SqoEpc/cG3S8UZTyJwygUzb816B6hKAtgKQX2ncvkxOqmjwzA4z8ch5GXjsMSci1kXmWocitg9RMld3cClrOFonbeG8ylVpaVDJTRoBmhqFcBy5RQVPfeIP6xemvQtvSKQ2JVK0goyiW9kgArNV8dTL0eCabeZyXBOq/NH30QwQ2Pe4NcAMtDQlER53AMw5XJYvseE3C1p7IHmlb1SNqFvsenVIkVepXhyguANQiNKwclwGr68DC86CLAyu+8UoSixp1X5ovtNCUDsTVI3hvkomSgS0Utbw3qnsQpfG/Qq4BV8NYgORq82Ny9Qe5gRSm18xwN1hoqtecRiuLlduPOqwxYqUaDytuFSDDVHwkm/xq5sMwC1upWf0ePWakoLb3iB1haqWgZsEw6r3B4MghYLFuDaBSInl9ePQg9jxyFk0fPUoGqDFjeSLC8DVjGe1ckXJkDrMJaBnxrkEd6hadYlrcGLd4bLANWaQFWDbV3ZWA0SNEy4FuD5gBLSq6ULULl+YCVBGtVmz+6j9e9QUvFdsatQbcY25sEjgftMrYXSq92+vZB43ldcMPlA/D2rZNwdGxOdd5G+kFX7lp5ALDU48HtLgSsgvcGFcCy3diu072ywdjObTyoKxU1Zmz3YoKFjwatG9vHimJsVwEWh95VrTOM7TqAhTpYyaXqHGj9fXUwdQ56DAJWBwKsy9r80WNqg7uNxna99IpyEsd7xvYi3Bs0uDVIAyzJwu7bB9s+0Ak3Xt4Pz29Lw+hvT8DJqbKF3euAhZIr9CgdLDcBlgqsaHCVfd/YWLBsbNe/N6gGLJNw5WLAYnJeGRoPFtHYzuEkTi1nJYPq3iDWuzKWXuEfKwlWdkyI3q+srUqaASwpwfq4BFBZk7vx3pXlrUFKeqXAkMitQUNKBq5CUWubg0xbg7T0yoTzajcFrLZf0C35rB67bhy67j0C0yn1N7zyGNBrgKXAlZxcub2DpS8UNZZeKSkUH+cVRShKjAatO6/UvavcqJGzUJS6NWh+PKgkWHUr4vCQiwBrg4D0itwadKNQtDbvaNBAeoWBFQfnFd69ykKW9FSlPhUOpt5lCLCkO4Q+KcFSLO7I4L7EsjUoVMlAjAhbXCYUJZMrXvcGTQtFDZraaVuDyt1ANA5sWdsLd38pBi827ofj6TOqbzDlUaAXAQsfDSKwkkELAdY2lwGWSKGoCOeVm4SiSmplVShKS6/cCljMQtF1Drs36BahaBX93mCES3olvw3Lz1eqg6l3GwQsCa7Q82n11iDbvUEhvSunCkVJwDKwNUg/h2MOsprMKhkMjgiz6VX2buA+2LuyB66/rB+e+mkSjo6eVn1jKSdW6pfTi/1mAEsZC6K3DZnHjYBFF4oOFkEoqmNspxXbuSgZ6FuDPDYHcaGo+t6g8ZM4NLhyO2C5SSgqynlVm7fYPm652G4OrvTTKzzBCgdTX6sOpv7EcIIln8np+BHrMWchxnYPA5b+vUFrcGW4d2UwxVIlV2g7sGIfPP6jcUi+NeMKgCj2y+uA1ehSwNL2rnBj+7BpwLJ+b5AotpP3BrlqGbRKBsvG9rV87g3qpldrR2BjGbBcD1g1GFzRje04TIm/N0gCFZliofQKCUfDwVRDuCr1fjOA9d42f7SGbmwv7r1BLRg5wNhepHuDthvbpYPM3ZKJ/f6vj0DshWMwe2QeFuadDQ7FfpFfD/U2pXOs9WyA1a/pXilw5WbA4m1st969Em1sVwMWt/GgIGM7teDuUsASYWzXwJBAuBIxHow4zNieA6uk3ngQvX99dWaT0AJg2WhsJ7cGbUivuBjbDd0b7OJ2b3CvXcb2in2w/bxuqW911xdi8M5tk3Cg+yQszOdAwSmQ4JQXrXe2v+skPL/9IDx0XQLeuv0IHD80n/efdx5gaZUMjcR40E0drNZPjMBmBFgcjO31rjS20+8N8gAs3sZ2anrlYsCyZmwfLZqxXYTzqoaTsZ3cGrTWvVKPBInRIISldCx1Q3Uw9Q9mOljvb/N3EHcI2btXXE/iULYGeQCWm43tptIrg6NBZeS486JuqcR+22eG4MWG/dJ5m7Nzi44CAye95K+F+usxGTsN79x1BB78fgJ2ruiHLf+7B2742DD8ZuN+GHj6OBw/OE/5HE4GrJySQYErPMVyG2CpkitqemXcecXV2I5tDuJbg3zuDcbF3RvUPeZsfmtQlV55EbBKQChaYzi9KgBalp1XusZ2Wu8qt0UYTP2iOpj6RxMJVsdFbf7orUUVihKgpQUj68lVcYSifEeDhtIr1r4VKrD75c974xUD8OC3R6H30aNwZnZB9Y2jDFaQ9+sxMzkP8VdOwJPrU7B33QBsPa8HdizvkyCr0dcLW8/vhes/NgyvtEzAwb5TMDdT3K9vfsCipVeD3gAsqlDU/L1Bc4AVc7dQlJJe5XpXtPTKHFTh6ZUbR4R1a0e5CEXxzpWbhaI1VtIrXChqKb3SCkVxqFJ1r3DYqko9WR1MXRiuMpxgdVzc6o8+1urTF4rSRoOtvEaDBFiJKrVzSa8MCUWtO68MF9sNGNulzxeQ/37ruj6445pheOuWSalnpbzKUKV+kQkeev/MyUU4MnYGXth5EJpCg7Dt/BxY4c+Oyj7YHuiTYKvt8iHY98gUHD8wDwtntWBlx9edBbBwoSgNrlwLWFShqLl7g+a2BumdK433ilOxfYuArcHs5yC2Bjfx3Bp0MWBJaRPWwbIiFLUjvaKW2m0XiiaYhaLm0yutkoEhvUJPf3UwtcbEiLBjbZs/+mi+rcEyYBXuXam1DCRcWete7TFzb1D66/mTq50XdsNNHxmA3zYdghMH5mGR+GFfBqz8gHViYh5ebZuAlsuGYNcqGaKUhwZYqr9X2Q+3fDYOPY9PF2VxoGQBC98a5HBv0PzWoA5gUeDK6nhQTq7Um4NcAIuyNWj53iDxvjQaLGnAsmc8SB0NruPbu4pY0TLgcEVsDZoDLC1cUYrt+NNbHUytNlNyZwIstxvbRY4H3WJsV1KrHed3w40f7oeXGvfD/s5ZaRzodK1AMV/k1+L08QV489bDcMs1cSm1ksBpOR2sNE8Gshor+mDnyn7YGxyAB3+QgJFXZvL+mvYBFt3Y7inAcpKxvcB40PxoEO9fqXtX4o3tnLYGMbhyPWDho0EDxnbR9wbtMLbX8DC263SvzG0NaseDGjUDFbCSRgGrEz2r2vydDxUaDba53NhuyHlFM7YH7DO2G+5dMXSv0OfYtUz+XI//5zgMP3MMThyal34A4a8yWJFfi9zXByVNvU9Mw+M/TcH1Vw5Do79PevRSK02KRby/fXkfbLuoF3at7ofbvjACv6rbD8mOk7b8edABS9/YToMr1wFWxYBzje3Y5qD1rcEYdWvQLcZ2snvlesAqMWN7LdN4MOEoY3uB8SB6uquDqVVmAOuqNn/nG7beGywpY7vA9IrR2I5SK/Tc/JEBeLFeTq3wVxmqtC/8a4I2KRNvz8LLew/BrZ+LS12q+ot62RIrAq52YM/2zFuUZm27sFd6+8D3EvD2HUdgcui0UPjNB1g0Y3uj2wHr6gxgFcXYTm4Nirw3qDW2K+nVFt7pFXVr0Fr3SgVUXgMsU8b2MdcJRWuI6I9hXAAAIABJREFU5Eo/vTI3GuSjZFBDlt5oMKNoQM+hcFXyEuOA5ev8Wps/ur/NV3gs6BahqH56xe/eoB1CUUPplR5cZZKrWz4+CG/dPAFzx3Pba2WwUr/IrwcCK6Rd6Lz/KNz3rTFJudCwzBhYkZClgJUCV9kHleCX98HWC3pg56p+eOy/UzD4zHE4tn+e+H3xUWWoASsnFCW3Bhu9AFj3Y4DFYWvQ/GiQXm53vFCU3BqkplfiRoMawIocgoNuASwTQlFya1DUaNCOe4MRHumVvUJR4skCFno+bnCLsPOcVn/nV9r8nYliCkV5wxXdeWVwNMggFG12gVB0t28ftAf74PXWQ6pvBGW40v9aoLI/6qXFXz4ugVX9hT3SKNAMVJHplQasKI8MWr2wZ90gPFWzHyaGTsMc0ZOz+uenB1hG0iv3Aha7sd38aJBBKIqdxNkqSCjKs9hObg1q7w1aK7bTUiscrtBTWxmDh2sPwaGYywArr1CUnl6pOlJ2jAYF3Bus4XRv0JpQNGG22I6eJflJIlXD1YYTrOIAVpfNgGVSKMrQvdrLWcuAw5WhrUGdp/Gfu+Dl7QekYjb+KgMW/WuBtAmp6El44DvjsLeqH3YslxOrHZX99gEWSrMq0dt+2LFyAFqvGIaXmydgKnmG259faQLWoGFbO7k1aA6w8mwOUmztPKSiyuagkPSKem9wxBbAqlkeg2eaDsP0AbWw1zWAtc4YYInsXuFbgzJg8YWrSMFzOAzGdmU0iMGV9XuDdLjKD1jS+1eHq5J8AMsLxnbLgOViY7s8GuyGh741Cqm3cxtqZRt77utAviaHT8Nz9Qfg+o8Owe41aDOwl3070MB4UB+u+jIPen9Ahqzl6N8ZgKZLhuCX/zoCr910WPJn4S8zsEXrYJH3BgsC1ooMYF3uNsASbWynAVaB8SCX9MoGY7tKKkpuDlrrYOn1rmqXx6BuZRxuujYNQ6/OwuzUAiwuLLlri7AgWNl/b9BNxvaaIK/xoPYkjg5Y0R4+CRaZXllOrvBiOwZaWjCy3rui3xvko2TQl4p2c+lemRoP5jl9s8u3D3oePpo9d1NOrYD6dUAjuNdumIC7vzYKLZcOQIOvB7ZXoOSqF3auUODKOGTtMJRe9RGdrAEZsjL/XkNFPzQu74fWjwzDQ/+ZhO6HpyXJqVlw1gKWomTIvzWogJX0oARruRsByw5jex6pKHFvkN940DvGdiWtQs/1/5aE1+6Ygv39cyoxrxO/n1EBy8LWoG33Bj1tbE9qCu0MW4NiAAuHK26A5RFjO3kSh5fzytRoMI+xXfr3l/fArZ8agon+U9L/4TvvW5H9L/Ib8nRyTjKqP/7TJLRdMQj1F6GulQJVylvzhXYr6RUaSUpvV+Ye9O9vW9YngdbNn4nD8zsPQezlE3D2jPFD3DhgsQhF3Q1Y09B69WgGsET2rvSUDJStQeH3BvltDW4WcG+QZmzHi+wIrJo/k4Antk3C4CuzcPqEOyoOKsC6eNRxxnaq88rBxvYIN2O7ekxoAq7MAVabTwKscTuEoqKcVyRc2SEUFZFecROKBvZB04oeeH7bfjiROS7s1G9Iol+0ZAd9s05FZ+GF7Qeg9fJBaFjWA42+Hiyxwh9z6ZWeksFIekUCVha0Kvthm68PtlzYB7d9aRS6Hp6GydicKtFS/tsLA1Y/k1CUBlfuBKwiC0Wx1Iq3UFRJrrikV5ixXV8oaj690gOrDSvjsOuqcbjzBwfgd/cdk8aBbjo2TwUsBwpFRW4N1lgRimKpFZ+tQcNCUc6A5e/8aps/mkZAxEUoSgIWsTUoIr0ikyv7hKL87w1aFYpKm4P+fdC8sgeGnp6G+ZPq/8+vpLULZxZhKjkH79x5BG765LCUWKlHgUpyZX00yJ5c4YA1oE2vMMjajr2VRnkr+qE+0A/b/P1w59fGoO9XxyTIYjm9owYs5XMagKtV8uM1wLKeXukU2zOjQdFCUVH3BkUIRTdlRoEbV6PPPQJbQ6PQ8rkEvHjjUc342y2vLGBVZQAr72hwtLhCUU5bgzUchaKq9Mry1qC2c2U2vZJ8WJktwnAoaWhE+KM2f+cZZTToVsDC4cqU84pxazD/vUFrcGXIeZUPsHz7oHl1L0wnnLnKbNcL/8a8uAjQdf9RuA2JQv29sAtBTaUMV/kBq78IgDXADFjokT6u7IddFw/Cvd9OwNibsypJaWHAyiVYBQELgyuvA5aIe4MKGPE55kymV2q44jIeXFsIsEYsAxZKrnZ9fByeaToibQe6+WyXMcDKwZWSXtmhZRC5NRgx07uibA3WcN4apPWuDCVYVaksYFWHUkYSrOjGVhvGgwpYibw3aIexnd69smE8yCAVJQHr5NGzUIov8hvyvoen4N5vjEHrZYOwa2Uf7NCkVjhckeNBa3BlaDyIwIoyHlQSJvz9Rvz9DGghyNqxZgDaPjoMj/40DZPx05qvi/K1kQErKQEWq1RUA1geGxEqo0E+48HCxnbrvavcrUH77w1aUDNkUqvayjhsu2QEHt8yAYmuUzB/elHjenMTXGUB66sYYDEb28WMBp1hbE8wjwcjlsaD5o3tBcBK+fgH1aHUHzADVqtPOva8JQNWS0KUDJStQccY2/GPGbcGi25sN5BgnZySActt36TMvMhvxmhMNvrbE/BUOAW/+NSwlFih5GrnchmiENjoA5YCTAKM7fngKvvXtemVHlzhD4KshuXy2HB31SDc9uVReLV9UupnkS8SsFiUDNn3PZhgbRNSbi8b20m42rgyDrUVMdgWGoH7f34Qep6egaPJeVgkEle3fs9iAyz7jO1KepUtszvZ2F5F916ZVzKou1cWkiv5/VAqUh1MvddQgtXq79xsl7G91SnGdtPOK37GdkNwRYJVoQ5WCSVY0jdi4pvx/u6T8Nu2Cbj7K6Oww98Ljct6JLDahaVWWsCytjVoRiiq2RqkjAaV5GpHAbiigdam83qh6bIheOTHKeh8cAqOjuVAC40RFcBiEYqq0isMtLwCWHyVDJRiuwAlA745yHM0qG9sN5dcSaPA1XGI+GJQf+ko3PHd/fDa7dOQ7tMmrG5/GQEsJb0SORoUlV4ZVzIkmO4NKked+aRXKevpFf5xKFVXHUr9mcERYefmkhWKMm4O4snVXocJRUsZsGjaheHnjsPDP0hIiVX9efsyiZXcudpZaQSurKdXbEoGYmuQsjmogicGwMIflGahbcO9lw7BM9sOwvibs1KBGL29/3uMgKWTXnkFsMitwUJwtWXFEGypHIKtq4YMC0V59q4UsOK2NYiNBpWxoD5csYHWptVx2LAiDlvWjUDLNQl4sn4SRt8+pf1z8gBcFQas4ghFeW4OihaKRkz1rrgLRdWAFco8wVRtdSj1p6YAy1JyRaZXlP6VGowcJhRlKrZbVzI0cRaKUhUNHgcscnyAfoCePrYA+/edgl9HUhJQ1Z/fAzsrUGKVgyjl/cKjQevdK7ZSex7nFZFemYWr7JNJtJDaYXfVELx151HouH8K7v5mArb6+pmVDNn0ymOAZSS92rpyCHZcGpOeLSuHpI+3rmITivLZHJS7VzlI47A1KEAoqqRW6P2dHx2D27+7HwZenIWzZ7wxCjQOWCRsFUkoWpT0KskkFK1xjlCU7F4pkOUQwKI4r/h1rtSAZSi5oo0GGbpX6lK79c3BvWbTK8bHy4BFvg7HT8OzWw7A3rX9MkRJo8A+2LVchiqUXCkPe/fK/GMOsPSdV1wAK3NnUNkWZNoY1NEyeDHBMlJq3+AbhF/VH4IXmiehHsHOKgWw8h9z5r01qBTbt/KAKzzB0owGScBiHwuip/WzCdj3mxPZaxJef7EBlnprkDtYEYDFo3OltzmYP71KMgGW9a1BtnuDltIrM4DVmulgcdEyFBgPesfYbn08yKRloElFGWHLi4BF/n+6MxPz8NvWCbj1mpgEVyixkh4EWApcYYAlqntlzdiuLxUl0ysegCUDE1I6DEADetD7RgDLgyNCo1LRmvMH4K17p6T/PSY6TsKTmw7Bpooh2OhHaVb+rUHrgEW/N2i5d0WOB012r6TUalUc1p8/DO1fSMLbDxyD6f3z0nag6s/EY6mVUcAiu1duMbaTJ3HYxoNJJsCybmzXbg1aKrarkyvlfWOA1eLvRM9mrkoGCmSJ2hp0q7Fd5HhQAawmjwCW/M049w157sQCvH3HYXjgP8ah7bJBSbmQ3Q4k0itlNEgfD/YW2diuJFfE1iBFz9DIJb3C7w0aUDLodK/cDliksZ0ZsM4bgI4Hp7Ofeyo1D72/OQH3XpeG+jUxqLtInWiR3aut3JxX/I3t5HhwM+N4EIEVMrCjEvvOK8fg+dajkOw+7ZrzNuIBizYedKexvdbQSZykoXuD5ntX6u5VNc/0ysqIMJNgbWnFNA1OFori6ZW9xvZu7vcGDSkZDELWLg8AFtnPQN+sYy8eh6c37oebPj4sbQY2XqRsB2KJlQJXBdMrfsb2nYKN7ebAikivMrcGmYztOs4rLwGWWSUDAiz0+chXqusUvHLjEfjltUnYVDEMGwMZ0OLSu8LhCk+vxBjbc8lV/vRKAqsVsnah8fJReGzDBHQ8fBxmjqi/73ixa2UGsBQI2uByYzubkiHBtDVIplfm4Eo7HlRZ2K2mV6EUhKW3yQ3VoeSfV7Oa3GXAkkWjXNIrm4SihtMrE0LRvbpC0W7HCEVp6ZXbAYv8Rjw3swD7u07C726ehDu+GIctH+iG7T4dsCJGg/jWYOH0ynznyi6hqHm4EpNeuRWwrAhFccAi/7e6uLAEw6/OwkM/OwDXf3ZMAqzNlcOwZRWpVTBealcrGYohFI1rfFZ1lTHYfvko/PKbaXjxhqNwfEILVqX2QoB109dxwFJvDYpOr4onFE3YKBQltwa16ZVFoSg+Fsy8n0SQ9eNwKPXusJEEq8UX/alhPQMOVpTRYIvg0aDh9KpIQlEu6ZVBuHIrYJHfjBfOLEqi1N7HpqTzNmgzEIGVCqp0AIvcGtTvXZlXMpBbg9sNO6/MC0XZwEo9GpTHjCaFoh4aEVoViuolWKqzTGeXoPuJY1KatfuKEdiGgGXlMGxBv5YFwCKVDLy2BrWjQbLUHlcV19F2YP0lo7D36nF4qmESDg6pRbalCFbKf/PB4Tlo/bc05dizsjU45iqhKFt6NW5oNMhHKKottpOjQUPplVoomn0bVtIrGbA+j9Kr9aE0ewer1d/5lVZ/NGEKsCi2dhG9Ky5CUS7plTXAEjkazCoaXARY5Pdh5ZvUmdkFiL90QupZ7VnTDzsCsiS0IFwRm4P66RWfW4PsgIUV25X0Ks/mIJ/kSj0aZIKrPEJRrwCWebiSfVd6gJX99bD/UaPNOVT0vuFfx2Hj8gwkIY9W5mGHK/IkDof0itgazN0b1N4aVMBKeX/zxSPw2KYJODQ8V9JQRXuNvnMK1leMqNIrObnKjQhFCkV5jwbzO6/IUzjJ/KNBfGsw89etw5V2RGg6vaJuDialJwNaVzOnV7kRIQKsTi6ARY4HSx2wFFhqEmRsp8GVuwBL+005+dYsPPXzFLSEBmDPalm7oFjY8wKWUmZXxoN5AYufsd3USRwKXCmjwTJg2TMiNGtsrzlvkBmw0Gt+bhGOHZyH1++Ygr1XjUKdfwg2rzICWPjH6t4V1/Fg1nul7V0hqEI9K/T+Hd87ALE3TsLJ6YWCB8VL7XXy+AL89s5jUF2pBqw6GwFL9HiQt7G92vIxZ7r/yqKxnQpY64NpCbDCrAmWKcDSUTK0etbYbuO9QYNwtYcCWG4ZEZLfkFPRWXih8SDc9vk4NK3rl0rsaENQ07XKA1fZ5MrRxna6VJS3kkE9Hsz1rswa272UYBmHK3bA0oONUycWYOytk/DsnknY/qER2BAYgk2VhUAr9/fI8eAWTuPBLLAR48FNa3JghbpWt347DdFHj8Ph8TPSnU/8v7XU4Ur5798/OAf3/nwCalaNUsaD4rtXPMeDpLE9P2AlDRvbrW8OCjW248X2HGCF0lczjwctAxZhbCe3Br1lbLe+NchbyYCD1R4XARb5zXhqfA7evv0wPPjdcWgODkDDhT2SdiEvVNG2Bm0wtiugJMrYzje9kkGJaWuQwdieH7BirgEs8+mV0sEqDFh5zzntn4eux4/DAz85ADsui0uJ1qYVw3m3BoUY24n0Ci+3o/M2dZXyhuANX0rC821HYDx6qqR8VmZenU+dgPqPjEPd2hxg4elVqRvbazCwcpSxnZJekXClAFZYKGAx3hvkAVjFF4ruc7RQVC+9cjpgKT/0Zg6fhZFXTsBz2w5IiZUEVj6GxKpQeiXwmLNrhKLY5iDz1mABoSjtaXApYBlLrqwBVvb3QR4k7z0NL7Ydhlu/noTtH4rDhoohrAhPF4ryUjIoo8Hc1mDm7Wo5rULJVdOnE/BQ+BB0P3VCc96m/Mp9LZSvx9HkPDxYOwk/vSiOCUW1zqvaEhaKRizdG6R1ryyU2vWUDNn3VWAlPXIHSwRgeVAoKureoOnRoImtQTzBchNgoWPDHXcfgdZLB6WDzEyjwALplb5QlF96xe68woWi/UUUig5wVTJon4ESAKwhLoClN1I7ODgHT2w8JPWzGoKZErzU0VLgSrBQdA0CqhhsXB2DLRePQMOlo3DzV1Pw5n3HNL/v8ov+9VhcXIKnm4/CtsvHoXYNXmxXNgcFnsRxoVA0YsrYTk+vRAhFlfSKgCsIW0mwzAhFRd8bNDUapKVXhu8NWhOKMqdXJp1XtGL7HhcB1szkPDxffwC2fXCfcaiiea/y3htUtgbtvDdYPKGoDFfK5zSwNWgwvcIBa+/lcVcA1qaKQQtwJRvZrQIWDbQWzi7B/t5TcO+P9kPjpXGpBC9vHMblEzv4WM8KXOGbg9Lni2XHghtXxaS7gS/fPAXT6XnN77X80v65Ka/X7z0Ge65JQmTliAquinIOR4CWQQtXDOnVOopU1PLWID29MgVYuluDmt7VEnrQ514fSl293vAWoa/zq63+aMqpxnZRgNUkELAMd69Mbg26GbCe4wFYSnpVcGuwGFoGlxnbDQBWQ+ZxE2C1mAasYeGApUhKT88sQO/TJ+D2b6WkBGvjcgRZmYfT1qCUXmXGgwiqNqyIwfaPjMBzLUdgIi4X2PHtQOX3Wn7R/9x6npuFvZ9LSckV3ruqczFgsRnbjW0N1gStbg2Sm4MWtgZpxXYCsLLjwaAMWHKKlf6kmQTrqlZ/5xst/ii7VFRnc9BRxnaGrUH98aD51IpJyaDXvTIoFSXBqiQSLNPGdn5bg1aN7XylovYY23G4QmCFHvT+1uWDsNcFI0IFsMx1r2LcRoSa3x8BL2h8jvxSb94zDbd+IwUb0dmdyhhszkAWDyXDxpUxqA0Mw44rRuHJrRMQe322bGE3+Gc1O7UAz18/BS1fSEkgpYwGbTO2CxwP5je2jzvO2F7NYzwYoo8HsR5WOhxKB80A1rpWf+eTZtIrMeNBjsZ2pq1BGlxZ62AZ6l0ZACvS2F7qgOVWY/t2geNBUcZ2fCyoJFjeBixtesUzwSqUjMzNLMLIGyfh+eYj0HbNOGxYPgx1FcPGQSs7XozBplUxqPENQ8OlI3Dvjw9AB9IujJ3R/D7KL/2vx9zsIgy8MgsPb5yE7VclILJyFGrX2m9sVz53ce8NJtnTq6DZ8SCZXmnhqtrqSRzc2E6U28OZZ30o3b0+lF5lBrDWtPo7H3HavUHTQtEKhwtFLXavCsGVpwELT64MCUXNp1a80ytSyWB9a1CdXokytuPpFXpbv2pIetwAWG9bAiwlvRILWPl+oL/z4DG4778OwJ6rxmDTylg20WKFLQRWG1fEYFswDjf9exKe3n0YUj2nC/7apfzSJIunFyXP1Wt3HZOOOa8PjGC+K/uUDMURipJbg+zpVY0lYzvZu7I4GqQpGbCtQS1cScV25ePe9aH0ajOAtbbV3/loi49ByWDzvUHPCkUNbg7mUzKUJGAZdl4VUSiq073ipWTANwctpVerjKdX3gSsId30yg7A0vsBP3PkLLz6i6Nw05eS0HjpCGxeFZOfPJCF/h6Cq63r4rD36jG47ycHYLzjlOpzl0Wh6q+55ibq2SU4NnEWep6bgZu+sV9Kq6pXKKZ2lFjZJxStK7pQtEByVaXdGrSeXhVFKJqFq/Xo15H/Wl84lF693ixgFVcoqpdemSi1M2wO5jpXXdzuDRqGK4PF9j2lDliU7hV9a5BvsV2EUJRn7wovtjOV2mnp1Spz6ZVbRoTsgKXAFSW9WiU/EmA9MF20H/ro7M5L1x+RIGsrKqtnkiwFtPCP0YP+mVu/mYLYa7Oaz1t+5f96oDNHo2+fgtu+d1ACKgRXakN7cdIrEUJR/fSK1rtK6G8NrtNuDZoTimqPOXPbGtSU22npFf5IsNW7PmgqwYoub/V33lNMwGq2EbD0e1c2bg2aBCy9rcGSAazMrUH83mD+7pUzAUv0vcEyYFkBLDK5IgDr/OICFnpfKcI/u/cIbFsXh1rfsJRmZVOrlTGovmAIfnFtEjofPw4npxZU522Uz1N+6X89Et2n4cHaCdhy2ThsCo1l7exeBaz8xXZyNJgHsKrUW4PWnFf54YqHsZ3cGtQCFtoklP76s+FQ2hcOGgCsFn8UQdZftfo761scYmwXIRV1pLHd4r3BkgIsS/cGrUGWOalo4a3BohvbDYwH8fRKnWB5bUSok14VEbDyQcCJybMQf/0kPPDTg9IYMHz+ENT6h6Hl0+Pwu7un4eDQnARj+T5Hqb/Ir0e6bw5+vfsIXH/tfgmu0DhQm1yRcGWvsV2BKh7jQbcY26sFjwcpUtFcwV0CrPSt4VD6n8yMCN/b6u+MUAGraMZ2k/cGGUGLh7GdTK9EGttp9wZLEbCcZ2wvkF5hoEVuDTrC2M4MWWq4yvWwvARYeHpFdK8ycCV1sIoIWHqAdGBgDl67dQoeqzsEv26chL5nZ6RyPPnvleFK/2txJDEPbz14HO76r0Ow7YpxaTuwZjUJVWPU3lXRjO2cyu1uM7ZX8ziJQ9kapI8HM8AVTLeHQ+m/N1Ny//NWf+eGlgJbg+RokGfvCj2GlAwOEIpaSq84CUVLArBI55XuvUG8d2Vta1D0vUEegGVaKLrKnFBUDVdyeuUdwCowGlT+2priA1Y+UemxA/NSGZ7858ov/a/HzJEF6HtxFh7dPAk7rkpAePmIBFbaxEoLWG4WihZOrwwY26v0R4O8haKW4SpY8N4gHbBC6ZvDofQHzADWe1r9nT9roQlFnXpv0EFCUdPdK46l9lIArPzOK5qSwdrW4A5TSga6sV1EsR0fC9ohFM0B1pCHASsnFFWlV9JdQPlxCmAVgqgyWOX/epyeWYSp1Dy8ePMU7PpUEn62LA61BcFKL70SszWYHTU6/d5glT1C0bDV0SCDUFQDV8EsYO0Jh9J/awaw0PMJvWPOSnIlKr0yJRTFAYtxa1C9OWhdKNpkZGuQw73BkgMsZWtwea7UTnqvnC4UFX0OhwmuTKZXdLga9CBgae8N0kaDKL1yUoJVfplbEEAv1Et7+ZfTsOdfkhJUSRb2izGIwt/Pk14pf01YepXxXYm8NxhhgiuGe4NBtZbBWu+KXmw3lF4pW4NV+kJRNWDpP+vlkzlfDofSf2wWsK6229huCbDI5Mqwsd3a1iDzaNCClgGHq5IGLMq9QX3A6isJY7tdgKUttXsVsChwRRkPoidy/iC8XQYsV7w0dvyTi9D55Alo//c0bP3wuARS0nbgWiuANS4csERtDQq5NxjkdW9QC1emAIvSu6IX2/MAllxy//dwKP1uQ1uEEmT5ouj5VCa9WpIeG43tasAyOB70oLGdPIljFK48AVgFtgZ5G9v5jAftN7YbHg+a2BrMB1feAyxKuT0zHlT+WhmwXAJWhCy097lZuO/nE7D700kJqGqRhX0NBld5oYqEK5vuDZaEsT1J2Rq0OB6kldqZjO15n8+FQ+k/NJRgYSnWh1r8nVP5jO08paJaJQPjSRxGY3uzR4ztJQ9YNhnbjTmvMMAie1dON7Yzg5bW2E6DK3cDVn5jexausPQKgVYZsNzVtRrrOAW/2XME2r6UliAKldizYLV2TA1XuqCVUzKo7w2Kc17xNrbrpVfOMbYn894bNAVYBozt+R/pn10ZDqbOMQxYLYGuc1oDXataA13dXhGK0p1X1o3tlpQMBoWiZuHK9QmWjlB0pw1CUdNbg7YIRWU4Kpax3VuARVMyqIWi+GgQQRaCqy1lwHLki7ZROTFyBqKPn4C7fnhQ6lit94/kulbKowAW01jQ3UJR8iROYbhiEIpW8RKKJjVbg1yUDMR4kE3JoHqWsPf/DgHWesMJVg6wuvCNQS8IRbXFdmvpldOEop4DLMtC0T6bhaL9tghFaZuDdgtFvQtYdKEoPhpU4KoMWM5OqxYXl+DU8QUYfu0kPBCegFrksqqUR4EasCLTK6atwSIIRTndG2RPr0pXKBrWlNuzCdZCOJT+h3AoZQyuZMDqRIB1UUug6ykJqvwIgviX2hW4MpVe0XpXDJuDdLgqwr1Bg1uD1gBrn+sBy7lC0X4bhaI4YBlIrxS4MpFe4ZuDpFDUO4CVZzSowNUq7WiwDFjOBSv0MYIrlFo9snESNlWNSR2rDdIYEKkXxvQBi7HUTkuv6lxUbNdPr5StQbJ7lQeuyJM4QbPplXpzsJrnvUGKUDT/vUHdZzEcTI+vD6b+xnB6hSVYH2gNdN1MO4kjqndlytiOjwaLdG+QeTxoEa6sA1ZfGbBcbWxXbw0aAiwyuTJobGcZDbobsPL3rrLpFQFX5QTLGS/NyaDDZ+HhDZOw6+qkBFcKWLkVsHC44glYhbUMbL0rPbiq5tS7snxvMGTW2E5zYKXn14fSvw2HUu8LmwIsvwRYf9sa6Nqjd2+Q19Ygl+6V24ztFcalolbgSh4R9rgPsGw0tvMZD9plbJcTLFPjQY7Gdu/hjRbJAAAgAElEQVQBFmFsp3iv8O6VIhotl9yd07VC1vo37j4GN3wlDds+PA51SBSKztvgm4GZRMjKeFAutGvHg6K7V/KI0CHG9gLjwQiH8WDxje3UZy4cTP8mHEz/pZUE672tga7/dKuxnexgudXYXgasQsZ2ErDsGA86wdiuwBp/Yzs5Giy0Neh+wCq8NaiMB0m4KgOWQ87bHF2AjsdOwAPrJ2DvZ5IQRgX2zEhwIwFWGrgiwUoXshxyb5DTWJCbsV3n3mDEVHpFHw8Wxdiun2DNhkPp1nAo/d71QfOA9e4Wf+e/K4oGRwhFuTuvrI0GDSsZDEKW1WK7kl65LsHChaKOvTdYXKHodhYlg0mhKHkSx0h65T7A0jmJQxGK0tKrMmAVF6xOnViAsXdOwfPXT0lgtd43AjUrZKhSwEp5qxkLkluDDjK2kydxXCEUdcq9wSr9Y8609IoxtcKL7ifCofSGcCj9/5gbEcqA9X+3Brqukcd4DhSKFuhb8U6v7BCK0kaDezgA1u7lve4CLLzkziwUNe+8IsHKUHqljAULbA7yFIoaGg2a3Bo0m165E7DYhKI0uCoDVnHuKp6dW4TD42fgrYeOQ8vnU/J24Ap5DKjAFQ5ZVMBiHgsWVygqIr3yrFA0SCm2Y1uD9PTKAGAFJcA6Fg6lfxoOpf+nFcBCzz9IG4T+Tmj2dy7x3Bw0JRQl4Ypxa5B+b9DciLDJBqGodcDal33kz+FOwHK0UBQvta8Q5bxS4Cq3OYiX2g33rjjeG/QeYGk3B/GtQb3xYBmw7N8OnJtZhH2/mYEbrt0vQZWkXMiMAkmwYk6vCgpFlfFgrtQubDRIgysB9wbz964YNgcF3RustlJs10mv8K1B1nuDeU7kTIZD6UvCofT/MA9YyOaONgn92eSJG2BpR4Ni7g0qW4NFuTdosnfFr9ieS6/KgCUQsCpFA1aud6V0rxS4ajA6GjRobDeyOeg5wMK2BsnNwTJgFQ+wBl8+Cff85CDUXz4OGxHwYJuBtNSKH2DRe1eije0i7g1GOBnbabZ2c+PBlK6xPczjJI6Osd0MYGUeBFgfDofS7zIFWIrNvSXQ9f6WQFdnS6DrbHMJG9vJkzgipKI8nVfqj3ulz7XT1wN73ZBgnYeNCB1lbGcbD24XNh50nrHd/YA1pu5gFTC20+CqnGDZA1Yjb5+CRzZMQMvnk7DlkjGoQwX2NdrUCk+u+IwHS8HYTpOKGhgPGk6vEuKN7ZR7gxa2BpX0KmNxT+1H/av1IRNncpRXc6ALPe9rDnS92uzvmuc5GnSjsd1QuR3/2GR6tYdbeiW/dRNgKeBkTCpaZGM75d4gDyWDXcZ2/fRqqAQAi83YToOrMmCJ7VpNjJ6Bl385Bbd8ez9suQT1rJTtQC1Y0RIsJiUD09ZgKRjbGaWilK1B84CVUvWuyPSqWMb2PBuE6BlBYBUOps+xmmD9eUug6/6WQNdpxebuCOcVA2iJEIqaGg0agCwx6VWvewCrIZNgrRCbXimg5DmhqEnnFS29YjG2ewqw8OQKUzKUAas4cHU0NQ9dvzoBD0YmoP7yMagOxKFu9Qg2CiycXmmUDKaFouO2CkVFGNvZlQwMW4OW7w0mqVJR7umVFaFoPot7KP3q+mDqXNNwhQHWe1oCXeGWQNfxFj8fuBKVXjlTKMp+b9B670q9NYinV7vcBFjn78sedWZTMvQ5Qii6w2lCUQNgRbs3aAasvAJYZHqll1yVEyz+YDU7tQAHh+bgqe2HJbD6+UUxCaxkoFKeMXOjQdcJRa2PBo0V2wuPBfkIRZMaJQOt2G7JecVxNEgoGo6Hg6lfhoNpi4Dl7zqnxd/5J82Bruta/F3HzHewaHBlYGuQwXlFT69IwLK+Ncj73iA5GuSxOahsDSqPBFgVLgIsbERYfKEoUWqnpVcUY7v15Eq9NciUXtHgysDWoFnnlScACx8NUu4NlgFL/GYgep2YPAvPNh+F7VciA/sIbFijgBUOWPrpFQ5XdZZHg+piu933BnltDOqPBhWwGjc1GrS+NZjU3RrkfW/QlFCUDlfo7UQ4lN4WDqXORSNCqwnWu1oCXVe0BLoON5seEZq8N0jCFcPWoPbeIF+44n1vkEyveIwHd5NwhQPWmjJguQOw1FuD+OagIeeVQS2DlWK76wFLMbYzbA2WEyzOFvYjC/DandOw9zMJ2BKSQWrDWjQOxAFrhAmwcLiybmwfV20OCtsapBXbBcBVYakog7Hd9DHnZMF7g9UC7w1aTa7kkjvqYaUS4VD6B+GQ1QRLBixlk3C/043t+uNBcwV3Zqmow4ztytag/MhwJXWw/G4HLH7G9h2mxoPKSRx6oZ33SRzc2N7oUGO7ZwCL0diu91SfPwidjx7TvY9Xful/Xd559Djc9r0DsP1j41JiJfesSLhiHw+Wje3q8WB+LQPDeNBmY3vYqvMqyM/YrvP0hUPpjygld2uA5e+UUqzmQNfBTBpl0IXlfmO7IcBygLEdL7ej9Gq3CwHLucZ2enrFW8lAbg061dhOe+pdClgsxna9p9Y3BE9sPgTT++fVv04Zsqhfi8WzSzDw8iw8UT8JTZ9NQt2aEYhUxjGoGtUZDRZOr3gZ28mtQbca2wunV4z3BkvN2B6iahrQ285wKL0ybEXRgCdYzTJkdShdKrPplUihqNrYjsOVNaGoCCUDf+eVAle57pVSclfSK+8AFj9j+3ZHCUXVgEVuDRpKr2wUiuZLsPZcHoMXXARY+NagUcDavGIYmq4ehSc2HYKB52dg+kAZtGiAOT+3BKme0/D6ndPwi2+mIbI8DtUVcaxrRT7kWJBua+cjFKXfG7RLKCry3mBhJQNbemVOyZDUHQ1yT68oQlGO6dVSpiT/ejiU/jMpwbICWApkNQc6z20JdP2iGW0SmhCKmt4a9KhQVIEj3s6r3GhQBiscrnZXugOwnms4AFuxESEvoajl9EpnNCjy3iCeXIlKr3jCFe7Nchtg4VuDRuFKeTatGIY63xDs/HAcnt07CQf6T8PczIL61y2R0SH537hwdgmOT5yF7l/PwG3fPQCRirjks9ImVoXSK7uEovalVyKUDKKEoubgKkl1XtHSK0tKBsrWIN/0Kvv+EwpccQGslkAXAqytzf6uCSNbg6acV7Rie4GnqEJRh90bVI0FFcCqdE+ClR+wzAtFTZ/DkeBKXygqajRoaGvQhPOKXmzn97gNsPCtQbOAJf97w7Bl1TBsXhGDnZePwJv3TEtgIYMV8XvwIGjRtgPn5xYhue803PGDA7Bx7QjUrmQBK/ZSe0Elw1qjW4Pqe4Mi0yueo8EanvcGla3BddqtQWOAlaDeG6y2qmVgEIryhCvsWVgfTN0iw1XKGlwRgPWDlkBXwqiWwVSx3TBcWe9dkaV2Q1JRE70rUfcGSwOw+u0FLPR2pV3Gdu29QWahqEHAwuGKJ2Chz7XFLYD1yTHYtHzIkFS0IGCtjknP1jVx2LY2Du2fS8Abd03DwjxdTeClF/nfNDl6Bh6unZC0C5sQJCGwWssKWMZ7V7paBuatQfW9QXx8J3JrUISxPf+9QfZjzvjWoPHNwYTuMWfL3SubASuTYE2tD6UbEGCt5wVY6GROS6Dr4pZAV3ehDpYdxvYmQeNBu43t1uEqtzVIjgezo0EFsFw7IuRrbGfbGqSU2wm4IpUMpWpsx6HKzYDFcm+w8DOcA63VcQmyNq1Any8OO68Yhbt+sB/6n59RJVlegSzyv+PI+Dw8334Umq9JQv1lY7BBcVplwGqDLlyxKxnI8aB1Yzu9e8UdrASOB2sdb2xPCjO2648HOT0yYO0Lh9LXchkPYgkWev6qxd/1Rr5NwmIY27Vbg9bGg14wttPSK/cBVrGN7Urvqt8WY/t2lxrbaXClAqxmlwCWJbBSAxYCqlyiFYfNq2JQFxiGTaticPNXkvDU1gkYffMkLC4sub6bRf6e0Rbl63dNw90/Ogg7P56Aan8cNqzKgRUbXBVWMjDdG7zY+cZ2Xt4r7sZ2SvfKXO8qoYErS6NBMr0KCrg3mH+D8OlwKH2xCMBCY8JnJYjyCxSKMhjbCysZipBeGdwatN69Krw1iKdX7gYsrxrb1elVDtjEC0V5Oq9wsNqGnpUZwLqilABLgSt5NIgeBFcSYClvM6CFnju+k4bf3TUNBwfnXDk61IpCz8LAS7PwVONh2PHRcQmsUNcKjQWVpzBcGU+vqKNBPL0qOBrUSkXrbL43yOMkDp5c1XBQMtA2B81vDSb5Gtsp6RVtNMg1vVIAK5i+NxxK/8P6IIfxIAFYaFR4Vy6pKp5QNNe7slkoyqF7xXs0SBOKqsDK9SNCa50ra+kVvdDOXyhqIr1yiFBUSa+ycIXeR4BV6R7A2rh8yOJYMDcalMEqk1xhcJWFrdUx6an1DUsf3/PDAzDwwgycOHxWlWg5EbRov58zpxbhwOAcvHzLFOz6xDjULI9DHQFWClwZGw2yCUV1u1cm0qscYIlLrqj3BjlvDfK4N6iAEe97gxGeSgYVZNF6VxzTq1BqKdPBun59KP2H63mkVyrIkl1Ym1oCXRP0kzm0YrvBsSBjuZ3XvUFcKNpkZGvQ4r1BHoCFjwVJoWgWrFydYFkXirI7r7DeVWX+9IqP86qfem/Q8GiQUclAOq9EjQZRcoUetwDWO/dPQ3MGsKwlV+rRoB5ckQ8CrbqKYagPjcDjmw7BgYE5OHNyUQUyThkdkr8nJApFqdU7Dx+HG69NQSQQh42ZjpV1uCpcbGfuXRm4N6iMCIWlVxgM8haKGute5R8N4luD1u8NpnSVDE4WitLSq8yIcINccOcNWPLz9ZZAVy+96K6GK1OAZQiurN8bJI3tIo45i+xe5VIsrwKW9c1BBa7Y0is8ucI2BykplvXeFe3eoAHnlSG40pOKck6vFMBa5Z4Eq9iApTzbquKw+6Oj8PSuwzARO+NowDo7twidT56AW765H7ZdOqbaDiQBC4crtu4VDlFs9wZ1haIG7w0qgGWHloHXvUGa88ryvUEKXJkbD6Y8A1iZZ//6UPqrXLpXOoB1WUug6wUSsEwb27mPB62BlqitQd7GdhysqN0rDKq8AVjWlAylbmwXNR5Uda8yYCU9q0sFsPDRYEzTuyoEWDhooQI86mhtv2wEbvxSEl5oPwJHxs+of89FAC11cgUw8uYpqcC+55MJ2Fw1Km0HouSKllrhvSu27lVxje2ix4Oa9MrJxnbssLM1Y3uSz3gQ/5jYGhR0b5D2dIVD6U9buj+oD1mdqIP1gZZA173NvI3tjJuD+U/ilI6xndwapKZXrgWsg7D1vJ4i3xukjwXdbmznNR6sp6RXaCyowFVpARY9vWIBK1qatbEyBhtXxGD3x0bhvp8cgI6Hj8HJ4wu2Jlq0z5/sPg3P7D0CN38tDZvXjcqy0NX0kaD59Krw1qCbje0i7w3yNrabGw2S6VXSurG9QHqFA5bY9Er6ff8qHEqvEwRYmRTL39WcSa6W6EoGg0JRHKwYNgfpSgZrHSxD6ZVJoSiv9Ao3tuudxHF3gqUAls3GdrJ3JSS9ogtFTSkZDApFRdwbpKZXEmQNZgAr7mHAym0NKpuD5NagqWc1+vdjsGH5MGyojEHzp8fh6T2HYfCVWTh9QjxokZ/z4NAcvHnfMbjzugOwJTgK1b7M3cACYMW+NThq3XmF966YjO34x+qtQdH3Bu1xXhkYDa7jdW8Q711pE6sIj61Be+4N6j/BVHs4lP4n7iNCGbCkkjt6wsUXilpTMlhyXpkQivJQMmg3B3WUDK4fEZIJls1CUZ2tQX7plbeEorT0qn4VAqwhDwOWemuQ3Bw0C1bSo3y8NgNaK2JQfdEQtP9rAt68bxoOj52BuZlF9X8LB9AiS+zHDp2F8Y5T8GD4kJRYhZfFpcRq01o6VNHgivfWYMGTOMxC0Vxq5UahaI2p9Mq488qRQtEgfWtQWLk9lFpCR57lBCv93+FQ+o+EAJYMWRJgfakl0DWKJ1emRoN+dqGoY+4NFrHUrqRW+GgwOxZkgCuvAxat3G4IrhjuDfIutivjQeaxoInNQTVg8d0azKZXWcAazD6lAFgaoajF5EoBrM1rc283IdBaG4eNq2TYuvHLKYg+ehzOnlmSDihbAS3a3UD0TMTPwGObJ2BraAQ2rByBjQpY4XDFAFrGhaKFtwatC0VpJ3Hs61058t5gpm9lvthO611pnVduEYpSIEv6va8Ppj7FTTCaB7DWtQS6nqJLRU2kV4zGdhH3BvcYvTdoArD2iAYshu5VKQGW4d4VbmzPc29QgSvr40EtXPHuXZHjQRFbg/jmYC69UgALdbDKgMUTsDaticEm6a+NQP2lo3Dz11Iw9MqsCrKsAtbMkQV44fqjsOOjaDMQQZVcYJdK7CRQ5QEs872r/ClWQedVXrjSuzcobjRIS6/ccG+w2vK9QW8BVlh+BsOhdBVXPYMOYP1jc6Crnet40C3GdoMdLL7jQXZje6kBlmeN7SbHg+RJHJHGdrx3lXt/2MOAVdjYbim9UsaDClitjUmPDFlx2LQapVlx2LJuBPZ+chwe/PkhSHad1v735YEt8u+hNOzlm6fgF19PQ8PlaDMQnbfJeK3WjMKmNRhQrc0/Giyasd3AeLDOpvGgaGN7hMnYzrY1SN4bNLc1SFczVLvM2E7zX60PpR8Ph9LLwqIBqznQ9e6WQOfPM+nVEnoMOa9M3BssTWM7zXlFGQ9SjO2lBlh478qYsb1w98p67wqHK7zcLmY8SCoZeI8HSWN7Nr1Cv46UYg2XBGAVMrYbgiusdyV3r3JwpYCW/IxIDwKtjavjULs8BluDI3DzV1PwbNMRGH3rlKGvwYnJs/D2g8fggZ8fgl0fH4e6lXGorZTBCqVX0qPAVYGRoHGp6KgjjO0iAKtsbBeQXoXsMbZTiu2KYHTX+lD678QDll96vtjsN3FvkFQyWEqvBDuvTNwbpI0Ghd8bZEiuvAxYlpxXBYztPJUMynjQsFDUxL1BrZKB/9agJr1SCu4ZyPIeYOFKhtzWoCW4wgBLgSj1aDCmAiv1+/KD0qzqi4Yl0Lrz+wfgt7dNQ99zM5JWYSI+B8cnzsLc7CKcOrYARxJnpLM2sTdOQsejx+GphkloviYB4WWxDFjJv64MVxmowseDXNMr46PBgkoGps1B+4ztPJUMIu4Nkr0r684rrZKh2ihg0U7i2C8UzRbcsQTra+FQ+n/akWCd0xTovrQp0H3QsFA0UByhKM3YbkjJYKtQVDsaVLYGqXBVwiPCHVbSK6nYrk2v+CkZiicU5a1koDqv8qRX3utg0YSigtKrtfnTK70HJVo1gRhEfDHYeeUY3PH9/fDohgl4of0ovHX/MXj9zmkJqO7/+UFo+0JSgqn1Fw1D3QoFrBBIxdXJFUN6tdFSepUfqkQJRe3oXRXn3qAHhaLBoghF1SPCUHohHEpXogPPQgELvZoD3ehZ3hzofqnJ36VNpriOBru43BskP97jaKFoj2WhaKkAlqV7g0pyJTS9wj82WGw3eBJHxGiQLMdrtgZVm4M4YA17FrCUzUHLW4NEepXtcRlIr2iP0tPasDIOG1bEoa5SHiXWLI9BLfp4hdKvwmAqC1dxDK6IzUHGrUFj9wZH+d0bzLs1SJ7EcadQVB+wGLcGKULRiNOEosFiC0VJwEovrg+lx8Kh9PvDdgBWk78bPX/XHOjeZQiwCsAVPb3Cje3WtgabrBTby4Dl6BGhuXuDdmgZ9OGK971B0tjOY3OQZmwnT+LQ4MqbgDXsHsAino06jxawMlAlJVfE5iDj1qCxe4Oj/O4NMhxzJuFKFGBppKIC0iv6eLAAXLnB2B50GGCFUmfCofSvw6H0XwjdICQSrD9uDnR/CfWwMiPCJTcY2w3BlUE1g5OM7aWQYDnb2J5/PJh3NEgbDzrR2K7AVfb9YY92sMQZ2/GtQf3xYGGoooIW9layrhd8cMBigyvbje1640Gmkzjix4POMbYnbDe2c5WKBotsbMfGg+FQeiYcTG8MB9PvCdsFWE0Isvzd/uZA92LBBMuSsd1690p5X5SxXRkN7hWiZDBnbC8FwOJibM/TveIxHswlYAa2Bi3eG7Tb2K6GK68lWHYZ23PJlRauzIPWJibAwovtxNYgw+Zg0YztFu4Nik6vvGtsz++8Mp1eVVGUDDYb27VPaikclN5OhUPpj4dD6T+wDbAyz/uaA93Dzf6uBaujQbb0yrySgXlz0OTWIL/0KpdaaZQMFrpXXgIs8iSOcSWD/mgQB6ui3BsklQwm0yseqRWeXGnTK7x3pR0Peg2w7DK2a0eDxsFqk+H0Ki44vTJmbDekZGDcGiTvDXJPrgSMBmsE3RtUNgfx5IrHvUEu6VXIEUJRErT2h0Pp96H+lS0jQgyy/rQ50H1bs7/7lBWhaGHnlTuEorsdJBT1KmCRQlF2wNJRMhCjQetjQYtC0ZXOEIrm713hQlF6euUNwFKnVzgk8dgazCcUtZJYcUuvuG4NchKKXuxMoSiZXvEWitKVDCRcMWwN4puDXJQM2q1BLulVKF96ZeN4MIhuEKbfDAfl8zj2AZZfAqx3N/m7v9vs7z6eAaklzdaggXuD6vSKT7HdnULRXstCUa8ClnElg46WAT+JI6h3hY8FRYwG8a1BW+4N5lEyeDPB0pbaefWuslqGvEJRa2NBY3CVKbaTzqu19owGCxbbTYwGcaHoBhuEoirAskXJYGA0iKVW+GjQfKldew7HFFwF9YWidOeVfemV7L9KHwmH0s3hUPr3bBkPEgnW7zf7u1c2B7oPZ8BKC1gGtga19watyUTLgOVtwDK0NbiCHa54GNtptnbe9wZJLYOIe4OKsZ0OWPrpVRmw2AALwRq9d2UdsDYyARYuFM1sDho85mzVeaUHV1bvDcrJldh7gzRjO2/AYjvmXCqAlbYZsFLxcCh9bTiUPnd9KGU7YKHnj5oD3aN8tgZpxnZrHSxRxva9Dje2ezHBIqWi7rg3aPAcjklju8itwULGdr3HvQkW3djOazyYFZNmR4NK78p694p9NDjiKGO7IamoCWO7yK1B6r1BhxnbVfcGXWZsD9u4NYjBlWxwD6XfCYfSF6DRYDESLLRNeG5ToPvJ5kDXad30yqnGdhKwLIwHrY4Gc+V2TCpqwdjuNcASZWzfznVrUH1v0NB40KSxXXT3isXY7i3AstHYXuDeoPjxoPOM7cwncRiN7aJGg64wttOcV641tqdsBSzpv0V+/xmpexW0sX9FQNbvNQe6f9Yc6E5TpaMGtgat3hvca0N6pcAQ75M4vI3ttGdXBrCaHAxYJybm4dltB2DrB3s4jAbxrcF+W43tlu4NGtwa5G1sV/WudNMr/eQKB6zdH47D83vdBljuEIrmc14xp1dZoWjh9IoEK2NwxQZaTMX2iwsJRdVKBmHldiy5EtG90je2F+veIGehaJVWyVBMoSg5HgyH0ifDoXQTAiyl5F4MwDq3OdC9tinQ1d2EhKP+TA+rwkh6xV8oakrJYFDPYF3JQKZX4kaDCK52V/Y4PsE6OXUWXtx5SEqwtgf6YEdln8bYXupCUVH3Bs0KRWkP+vc3+gah6coRePWmI+AOwKKlV+4SihrrXmFbg2WhqKWtQUcJRfXuDTpcKFpNjAWLMRokAGtfOJj+si3ncfIAlmJ1f1EeDXYxF9vpgGVNKMoEV0UXiqoBS+O8EpBeIbhCzw5/D+xZ0+9YwFo8uwTdD0/BDVcNw561CJD6co+VrUGdcruI0SBz74rDvUFe53CsCEWzUIWV4hvWDEPD2mG45/tpiP92FtwFWHE+6ZXiu1LGgxrnFa13ZQ20DCsZyHuDDFJRtt4V2b3Kn1zpCkXXmhOKii628743yFUoWuVgoWiQKLVT0quijgblZynz6/4qHEpXoPFgUQArC1noNmGg+/Ymf/dSEwNc0e4NlgFLPGChFGuHvxf2Ohiw0GtxcQkOx+fg+e2HpORKSbIMHXNm3Bq0vjmYGw82Cj7mrJdeOQ2wtq4Ygpv+dQzeunsKjh+aB6e+9ABrC2/AInpXOdCxPhok4cqwlgHfGmSEK+PF9sKAlVfLwNi7wjcHcbiyw9heBizvANb6YAq5r5ADq2l9sdIrFWDJkPX95kB3XBoT5jmJI8LYzmU8aKDUzmc8iH8OYjQoaDzodMBaWlrKvb+4JI0LUx2z8PhPUrB7TT9sOb8Hti/vMwBY+ceDjjC2r7JqbLd+EseqsV3pW22uGILmj43AK9cfhsmROZg/tZj9M0Vv8T9fp3awlK1BLuPBkjO2c7o3SCu1O93YXpTxYP7RoKON7UH1aDDsvPHg6XAo/WOpf1V8wOpCgHWJNCYsgrGd3Bo0NB50hLGdcm+wkn965XTAQi/5h7D6B/HRsTnoeWwaHrouATtX9sPWC2TQ2p4ZGxa8N0ikVnh6xaPcbsrYvsJZxnb0KAmUZmswT3q1tXIIaj44IG0LPt04AfHXZuHEpPp/W04DKy1gjcLG5fh4UDnszGlrUICxfbNNxvaNAu8NFhwPloixnTyJw+veoOON7UEn3BukAJb86+4Lh9KfdQBgdcmQ5et6d3Og+1YETM0V3UvsxnZryRWteyUyveJpbKfeG+QIVwpUKYC1EwGJwwFL74fy4sIS7O8+Ca+2T8LdXx+Dxoo+qF/WC42aREsZDdJP4oi6N2hYyWDS2M7z3mC9yfRKGQNuXDYIuy6Lw70/SMPb907DVPJM3j9DpwOWMhZU0isu9wYzEKXdGuTjvGLvXmGbgtnNQd7GdhKsON0bZBgN4r2rOhuEory3BmsNncQxdm+Qt1CUS/cq6BxjO969Wo+eoAR4v1gfSp1fVLjSQFZF93o0IsyOCZ0uFDW5NSj83iDHsSCeXrkJsPL9oB57YwYe/e8U3PTJGOxY2Q/1vl7YXukCoSi5NWhCKMozvSK3Bqn3BsnEasWQNA7cEYrBLV8ah+d2T8LkyJmCf2ZOfKlHhAn0bjgAACAASURBVMN8R4MUoWhua7AY9wa9JhSlOa8Eplc2CEXZlAxsW4N80yvtWNArQtEw7UGAFUx/y3a5aL5Xc4UEWP/SXNEdzaRYZaFoAeeVAlgi0iscrBS4csOIMN+L/KHd8/g03PXVUdiNtg0R8Czvl0BLLsLThaI8tQzk1iDz5qCJrUHecGVUKKqcy0Gbgc1XjcDDPzsAB/tP5/3zcRdgyWoGFRhxLLZr4aoIxXZGoSiZXBk/5px/NKgLWIaL7ep7gyLTK1cJRbmdw8mBFrk16BmhaAgHK/nXXh9MzYeD6Y+i0zhOA6zzmwPdN5MJVtnYXlzAQnDlNcBS3j8zuwCdD07BjVfHocGPARZlW5D3vUF8a9CQVHSV+wBr60p5LHjP91Mw/vbJ7J8B7c/EXYB1DJo/OZ4ZEcaycGW5e5WBK/q9QRyU4pbhijm9wgGLcWvQmFS08Mag7jFnWnpl4N6gZpTnKcBKFAmw6CdxTANWSB+wit27yvavZMh6NhxMBxwDVwpgNQW60PNtGay6lvAuFk9je5Orje32SUXx7pUMW+4cEeIv2g/xs3OLcGRsDqL3HoXmS4eg3tcHDRWZThbXY875twYNbQ4yd7D4Gtv1xoN4D0vpXSHw2rJ8COouGIA7v52EvqdPwMzhs7BwVv1n4Daw0gcsDxvbldEgDliMW4O8xoPijO250aBbjO21jja2J3XhyhRgVWnTK6cY20m4ygBWJBxK/6WjAKsJJViysuGq5oruOb30St4atH5vEH/ffcb2AvcGOW4N5gCrzxOAle8H++ljCzD2u1l4bvshaP3IMGy9oA8aAv3cR4NuNrbX50uvMmX2basGYZN/ADYFBuHGz43BW/dMw/7e0zB/elH1tXcrWAkDLOLe4GanGdsN3Bs0Nh5k2xpk7l4V7F2pu1ci4QpPr3gqGfJLRa0b260rGbSQZWlrMOhMYzvWu5LcVzJgpa4MB9O/5yjAyowI0eNvruh+jhSK5rYGi3Bv0KHGdlH3BvHkCk+vvAZYyov8QX9s/xnofnQaHv1JCpovG4It5/dKiVYjEpVySa8GzPWuLHaveAtF8fQKQRV6NgdksLr+M2PwzI4JGHjuBCzMY2NAcD9Y0QBrw/Jh/ulVFq5ozqu4zUoGNueV9XuDJo3thrcG1fcGRQtFRRnb8wOWAlYJTxrbqyXIcsZoMNO/WlwfTCfCofQ/FV0wSntlAOtPmyu6f9yc6WE1VXQv6SsZrG8N8lYykMkVr/SKJhQVNRrUdq+8mWCRLzJVOTw6By/uOQS3fnEU9oQGob6iHxqWmwUt5d8ZZE+vaEoGBwpFt60chK0rBmFL5SA0fywOd38nBdGHjsGZk4uar6+XXgiw3uEBWLhQVEB65VmhqCnnFT294j4WdINQlEyvTI0G8eSqtISiYbpc9Kb1ofSfFt1/lbeHVdG9rjkgdbBcJxTl57zCR4N5hKIC7g2qe1e9JQNYeqA1GZuDJ2v2Q/tVMdixZkACLPwRujW40llCUWUsKG8FDsK2FXJytfOSYbj+mlF4/dajcHJqQfdr6aWXkmA1ZQDL8lhQKbdjW4NauLI2IjTmvCJGg0USim7kll7JW4O0e4OlLBSNWC61a9Mry0JRsncVdG6xXfJfof5VKH08HEp/PhxK/5Hj4AofEzZVdP9tc6C7tznQtYA2CumAtc9mwDJ3Ese680qGK3xjULSxnZZclSpg4W9TnSfhoR+mYOfagWySxQ5Yua1BQ/cGHQhYWchaOQhbKgZh94dj8HTjIZg9elYDU9LH3uQr6eYlV8CibA0W594gKRVl2xZkL7Yb0zIwSUUNbA3K6ZW40SAdsPikVs4ELLr3ylSpPc9osJoQiuYAq+jplSQXDYfSh8Oh9J9J48GggwGruaL7/20KdG1pqug+6VZjOy/AssPYTutekclVKQGW8iJhAXWJ5mYWYPC543DvdxJQH+iXnvyQRd8cNARXhtQMgo3tmdRqw4UDsPPSGDy16SCk952CU8cX8n7tvPjiBlg69wbtN7bTAMuYsX1DMYztLrg3yLPUzsXYnufeYITzeNCDxnagPLPhUPrBcDD9+44cDyqvDGD9j6aK7ov3VnQdR6DTFOiSelhlY7vOeJDjaJDcGixlwNIbcyGtA5JkvnPPUbjza2NQ7++DrRf1QSNyaOVNr8Qa28mTOFyN7chjVTkIm3wD0LB6CB6rPgD9z56AYwfmVQmVl0eCVMB6wAJgOdbYjpfb2bYGy8Z2IhHj7LxiVzIY2xp01L1BHWN7NWVz0AnJFfGgcvt3wqH0uY4yuNMAa4/cw3pPU0X3sNX0SkmhmJQMpPPKgJJhD7etQXV6lUvCxN0b1HNe5QMspDRAr1L5Yaq88P/e+VOLMPLqDDxTfxBuvmZEAqity3DQUuDKYveqiPcG0bOtchA2+weg8eIhuOP/JODVG47AwUGthb3U/reAAOvNe6eh6eox2LA8xmU0qF9qt741aFzJUPgkDm8lgynnFdNo0H5ju4j0iqexPeIkY3sB51WYml6l///2zgTKkas82z3eWELMYjsQcNidsHmZlrpbUreqwIDNFraELT/BSX5C/pCQhcVxVL3v+zJ4ARsb40DYAgaMwSw2xGDAgMHuTVJL6m6pajzjmbE9M57xjMczuv+5VSrp1tUtqZZ7S1XS/c65R92DMe1xTuY97/d+zwskUWn0K5bKnR+QROXPfO1ewSllsNrmd97fttR+/8272h845IZ55QjJ4COgaCP6Bs3ElS6wFqPrAC/mbaXBhcTjB0+CldseBbd+SgbXvnlDFVjw4rCyOvQWKEqDeQVXgZPwMvCSJJjpToMb3rcJbh/dA7L3HKn5e9EKo/8zQ4H146X9YP7yTTAczjQZUDTXMKCorb5BvwNFG9I3WH816GugKGEt2OtT96p0PQjfrbAax5d4BnygwFpqv3/H0s773w1drJK4KjIFijpkXrEEii7WA4oy6husKbB2roLFrjWw9t1H1ZqZVh7ctTly4Enw6/86AD7/gU2w+Nq0FoIPw6vDVKCAorq4mo6lwby4Ab76rzJI33VYvZrD//lbeU49WQS3/D8FjHdnwUhXhiJQlFSJ41Gw3SZQ1NnloMOrQVt9g40BitJGMtQGirroG9QzWJSBoo5yV3X6BqUqJIOP3CtNYG1JgvJx3b0KhMDa1Q7XhPc/Z1f7A790cznoSGA55F7RAopWXQ2SVoNhb64G8TcHf47ONXDHoAIOKq3rYpkN1ByHH3oS3HPDfrD0ug0w2W4jd0XKXtkIt1MDisKfIZoGt/xdHqx+/5Dq0PGpnqOPngSLb9myn7/Cy5xNgaJ0xNWILffKepmzO/eq/nqwrntlUWDhSIagBNtxoWVNYFlwsPS+QUfMK3LXILVQe7ByV0BzsZS7EqLSDYUVzF/5flSBtXOlbVf7Mvz6ll3ty0/ugmF3L4jtNteDzUpsNxVY8OcJr4GrxSTYu/54SVS0tpMBBy8thteGD20cAz8Y36MKrZFXrYEp6GZRJrabrwftv/FQCoxclFRhob/58iPg0N4T4MknTqmiEf1na+V/3+WS8KOnwL1fOQhmXp8Dwx0ZXxHbrUNFcaBo44ntpmXOJOZVtz+I7abrQQorQSpQUULfICqcnAusSu6ql6bA8nHfoEReE14ricrpwRJY6poQfi5/YFf7A/e7zV2x6hukiWRA14ONJrbXEljwTV+4Au69aT94/KB2TdjKf+jqo/0eGH8foEiB67XbBx8Ecz1pMHbhOpgMVdaGRIHlYj1ol9gO14Hj7Skw8Kdr4DPvzIGfXrMf5H97tMq14v9+jXNwzwnw2Q/k1fXgqNX1oMfEdvsCixPb/bQetCeuTIRWD82+wWokA9W+wRruleRfBysvCcrfS2IAslfoaO6V6mCdt6t9+eslR6rYfMR2VGCZMK8ou1fVofZqYns9kQXD7je/JwuyPz1s+EOY/0FMFiP7c8fBvV98GHz5H/OqIBq7qCS0HLpXOFDU7tWgLqxUx+rNWfBtaTdYuf0geGyfEb/B/32S3av7vnlQFVbqizgjto/6jdhuczXoX2K7djWoXw6yuhrExZVBYFHIXbEGitLqG6TKvMLcK8lfxHb9wWLnohbiV74liUo0ENkrfFSBtVN1sYZUwWRjTRg8oCi5b3CBoXtldS1o5mJNvXoFfK9XAQc2j/M/lGu6WpXZuvcIuH3oQXDj+zbBbCylCq3y6tAG84qMZKjvXKmg0FBKRS8sXJoB//XhPPj5DQdUpw3/ubm4Iv9eZO45Am68oqAG20cjmYADRTctA0VJxPb6uav6fYOWgaLdAQCKUqjEoQoUNVkN2nevqi8Hez3qG0z4hNhu8hKSqJwNHazATcXFWn7zrvblu0sCC0JHTZ0sW8wrknvl4GqQzmqwRt+gLpAoXA3aQTLUe/CicCECA++7Df1z3PmoL7Qydz8Gvv5vMlh87QaYicCrPUh31x4LoKh+GQgp7BC78Jl35cAPpvaCh/PGQwUuqmr/XhR+/zj4+pUPgv4LbQTbSe4VcS3oJVAUuxxkejVY372yHGqvW+ZcuRoMIlDUGvPKgnsVNKCoUCvYLvvJvSq/hCDvS4jyGzT3KoACC05JYL14V/vyLrsOlm2B5enVoHE1iF8OsroaNLpXDl+o9KDIal8FS93r4Dv/UQBPPG4MRPOpPSdPnAIbPzkMbvrAlmVxRXKwrKwGVYEFLxmjaXDrVQoo/O4o/9djc+TlY+BLH9sNBi52dzVIDrW7vxwccexeWV8N2ie2b3p0NYg6WNvMy5xxB4vF1aB59srC5aDri0FcYNW+GnQFFDXJXvnYtQKl9zVJVF4TuNWgiYv1nl3ty0+YwUZxYrulq0EH4mqRKbF91TfEdqsCaw7+vUKr4NNCEtz68TzYn6sQvvmaqb4jcvLJorqeW/vBQfDZd+XARHtSfWZii+Re1RJYUFSN7UyC0YuT4Buf3A22fnVE7Q2EDKd6P1srD/r7cepkUc1c3fDBgpq3ssW8wq4GWawHqRDbmV4NWl8PuiW241eDXhDbaeSucPfKfD1oDyqqCyVObFfoiCpBzV/p379LEpWzAi6w1AwWfJ272pd/wYzY7ilUtHo9uOAzYrs1cbUG5js0kTULRWL3Ovivv86Bn139EHgEWT1xoVX7D3A9OA37DX+ytA9c9/YsGL1wTRVaTontUFiNXJhU81a3/G0erH7voBq0R4UVF1XV/05wYQXJ9d8e2guu+YttVRg5RjIQuVf01oOtS2w3Ww8ydK8aTmx30DdIkdje14LEdsmwGoQiS94vicorAhlux6cksM7d1b78iYqYquSwHBHbbWavFhm7V14R2+0wr4jiSv+6QxdXa2CuYw3MhlfBTPsqGH/lMrjm9Snwnatk8MA3H+EBeBtOCZxDe06A9R8eAt8f3QOufWsWjLxmDXO0zIntaL3N2M4UuPlD2+Duz+xXg/UoPoIL3tr/DuDsSR0Hd9/4MLj5w7IqimDXoFPnynA16Ke+QX1FaGE9SLNv0DKx3fLVoLFv0Gv3qvmI7aT1YHW4nUqoPRjEdlB6qnuVEOXjCUG+SRKVc5tHYGnXhDt3tS8faTRQ1P3VoLFvkOheNRgoWktgQUEFn/71bOl7/U1fsgomXr0CrnljCvxw7EFQuO8IOPowP/+vJ7TQP+ghLuGXnz8AvvSRPFh6wwaYDEM3CgotMlAUCqvx0nXgNW/LgW98UgGpuw6rLkw9MdHKg/9+PCI/AVZ/eBj8z1V7wJSYA/0Xbdi7FvQlUNTEvbIAFLXnXpGAohRWg7aAog3oG/Qkd+UMKErTvcKBoo4FVkCBolLlPZwQlMsSQV8P6lPiYcHP5+1qX75dy2JVuFioYAoeULRyNUh7NWjuXrkQV6h71UEWWHMdq6qjNb1zFUxdvKo6Wr+6aT84kDuuksHr/SHXyoMLLQi0/PHcQ+Bz790Ec/E0mOrQXCo1sK5jF8La14uvz4Cbr9hWeVsnjlV+n/nvL/n3ufz1qaJae7M3fRx8Z3AvmIxny8LKtqjCkAxjvgOK2u8btJ+9qr8WtLUatJC70leDQQOK4sR2fwJFjSvCFgWKAkkofz4A0QyBKHa2uSZ8xq725Q/val8+7BVQlFXuygugKJl55XA1qK8HS84V2b1aRR78fh3MwkvD8BqY2bkGbnx3Bix/65HyH/54vQwfsgCAsy9zHHx/ZA9YeO2GQVypFTftKXDtn+fAzz67nwurOuKV9P3DhRPg+1P7wOylOTAW0dwqNTPl9NVgXpHdK3eXg9bEVRYRV9brcEZsIRms9w2aAkUtXw6iXYPVfYODAQm242Krz6dA0b7WBIoCQrj9gCTIs3o1TtOMuiLU1oTP2tW+XGgEsb2lBRaSvdKdsFlTgaWJK1RgzcK/R+c6WOpJgq98ZAusf/9gzT/8Wn2qxMCpIjh26CTI3XME3HrVbjAV0ULsn748C/732v1gX/Y4OPG40R3kv6e1f0/h9eb/Xn8AXPuX22Ba1MSV/oIgsGznrhz2DVpzruyLK1OBZYPYbtY3GFRiu18FVm+LC6xERWCtS6JycUJUdjSXwKrgGnYstS/ftNS+fIg1sX2pSYjtVLhXJceqLLJMVoNGgVURWqrYCq2BqYtWVaH1uXdlwLevlEHmJ5WqHS4KyEILFQYnTxTVw4G1Ow6Bn167D2R/9hg4+ogx38Z/H2v/Hj55ogh+9d+PgC/9swIWLt8Eo50ZMAqvA3WBpV/9uRVXBKgojfWgdfcKXw82ltiOXw0Ss1c214O6ABpqdWI7+j2Wu3LbN9jLaD0YMGI7kETlCUlUvigJWqlzQmgigQVHF1i72pcvXWpfzmoC64EiK2I7fjUYHGI7SVy5XA0iwoqcvdKF1VqVsMLfTLsmtODnl/5mE/zvpx8Cu5ePmq5w+FQXScPw+uGHqutt+JgLTYjCSP30MXDHzD5w9bu2wEh4Awy3b5RFlS6KXIkrJHeF9w1WIxncZbBY9A16QWyn2TeIrgZZCCzfE9sxqCg95hWZ2O4ayRBAYrtUuh6URCUpicrfQ4HVFNeDJIG1pL0du9of+K5toKjNzBXtSpwKUHSFMVCUtBp0ybzCrgbtulf409eGk6/RgvDf+FgerN72KHhk29hrCEUFFw61RRT//an9+3H8yEmgrBwDv/jCI+BzH8qD/tekwHAorQqr8WgWjEcrrpXr1SBDoKgr5hXJvWKCZKAEFLXYN6iXOjNzr5DcFa2rwX4G7pUaaI/TZ1710iS2I2tBfDXoU2EFjGtCGZLb/0QXWE03iMCCX//r0s4HsiVxVeRAUQ+AoohzZZ69qi2szMTWxKtWwGIsCb6bUIBy/1Hw+MGTau6Iiwg+ToUVXKcePXgSPPDdQ+Cmvy2AoUvSYDi0oQqqystSda/MgaJ0V4O23CsHV4MNA4ra7Bv0IndF271iChRl2Ddo271Cv8euBoMAFJXQJygnJUG5qmnFlT6L7cv6e/Fi+/L/aMLqAWu5K4erQeeh9mr3qpy7wt0rSkBRVqtBM+YVKdjuRGTpQmt65xqY61wHP1nYCw5sPVHFceKODR/8/xZQXaV/feL4KbD1m6Pgix9VwFQcZqzgKhCKK/1prhXqXtEItaviShdsVeIq52GwHbsatOheOVsN1g+2mwosPHdl4XLQq9WgLq5o9g22BFCUlLsKJvOqiKwHb5dEpQdmr5p+Fksu1mL78kgQie0sBRZLYrv5anCNmsCaCWlvsScJrr18A/x06SFwcHeldocLLD7VAssownevHwPfTDwI5i/PgYkeGFzXxJW2EmQksPDcVVQXOY0ktqNXg/b6BmkQ20niig6x3Siugto32PQCKx5sgZUQZERgyb2SqDy1qd0rffQ14ZIadn/gzpKgKsLAe+CI7QyuBr0ithsF1rrzFSHyOQNfycmavHgNfPrSFPj6x/Lgd195GDy2n9Pg+ZgLbQgK/fGu/eCz798GM6/LqiH20S7dudLFlbYaHCOsB2lkr3xJbNfXg8z6BslCSxdO7qGijSW204KKsiC241eDLLJXrq4GA9o3KJUuGhPwn11UUpKoXN6UwXazKQmsP1hqX+5b2klYE6LOld+J7ZSvBsu5KRfiyuBe1cQyOBNVuqBCxZUusMpfh9fAJLw2DK2B69++AW7vV0DqhwdVHlQ9F4NP8w7+7/rA9hPgF7c8Ar7677vB3Btzaoh9tBMVVkZxpQXboRiih2RgQWw3c69sEdtjLIntjegbbFZiO4l5Zd29coZkwMVVtciigmQof01CMvjTvZIqq0H4ZiVBfmErCiz43rbUvqxoIss584oekgEVWJp48h4oSse90n/NuntlX2SZiSv0QYEFhdbEa1bBzR/IgV/euF8Nwh9/rFpo8WnOIYnoxw48CXK/Ogq+N/kQmBYyYOCiNBjpwEPsRoGlrQXpZ69YAEXxShz7SAZ7QFFnSIZNOkBRW+5VsIGirtwrFCjqyr3iQFGppsCSdZF1VBKVNzUdud2GwHrRUvvyTBnXsBNZE9qsxGHnXhHWgn4GitZ1r9xdDaJrwbk64qry1lRHa+qSdTB50Tr44hVb4PdffwQc3H2iqt+QC63mGdK/yycePwUeXD8GfvqZAyrPamhnWnWsyMLKzL3KBgooal1gbTYlUHSopYCiFq4GqfcNVtfhtDBQtFj6PCGJym0JUXleS7lXBJF12aIvgKIW3CsGq0HXzKsQuW+wtrii415ZE1h6wF5fHSbBdPs6mOtKgv/++22Qu+cx9STf+AdyyfHgplZgB++qhNiOIw+fBL/60qNqzgoKKz3Abi6ucPeqkr2iuRqsvhpsRN8gActQ41rQWd+gy9WgbaBoRWB51TfICijaTwsoGmcDFKVeh0PAMvgcKAqwd1gSlfdIovy0lhNXmMB64VL78u2L7csn/CKwFjwUWFSuBlFxpfcNmjKvKF0NosH2ugILzWaVHvz7dCXB1W9Ig29+vADk30MafPmPZJ7NaiKBdfzIKfDbrz8KbrwiD2YuzYLxWAaMlQLsDRFY0erLwcZfDWLZK5viisbVoCViuyVxZU5sHwgosd1/AqvgmcCqzl35WGAJWrg9IciQ3H52QpDbIP+q5QYRWGct7XzgzUs7HzheWhUWG0ts1xwslutBfSXod2I7rfWg9pnUXlj7Gv73psPrYKp9HSz0pMCNf5EDP5zYA3YvP276BzWf4HUvpv/3MfDVTzwIrn7nliqQVKZVVz1RhYsr49UgDYHFmthu/XLQPrEdr8ShBRXFnavBFia2W1sP5htIbCcjGWyvB0mVOEEltgtKsbS+3JsQ5f9ICMpp6nqwFQUWJrLOXmxf/ulS+/ITdtwrOkgGPHulXw2y7BukSGxHv69LbLfWN2gFyVAv3F7lXoWhuCqJLPg6tacKrdA6GH/1KlgUUuCrH82De285AB5c40IrqMLq1KmiCgr98dJ+cOMVBRW3oNbbqK6VVWFlzF6hV4NU3Svi1aC77NWIB8R2e+F29Pstz4ntXqwGG9M32ITEduRqMChIBglzsCRRuVsSledCcdUScNF6AmsxvLpjKbTyT4uhld1qHiu0UtPF8gIoOs8IKIpX4rByr+b8tBpUhZX+6yVxhYgsVWh1JlU3a+zCNbAgpMC3/1MBG3cdBkcOVPOzuKvlY57VxnFw3zceBV/8qKyuAuF1oL4OtOZaMQKKYu5V2QkjXg16vBpEgaI2+gadrQatuVfOkAwk94rd5eCAR32DfTTcK+pAUeNqsFWBolJ1uP2gJMpziZJz1dICC85SaAU+KLBethRa+ZVV54oVUNR0NRiwvkHWQNFZO6vB0lqwLKg6KqIKFVjT8HWsg6nQOpi4eA3M96TAPTfsB3tTx8ATR43XhrxI2keO1cmiKoTzv3scfO2TD6pXgYOXaMLKuqgiiSsGQNG67pXzMLsroKgFJIO/gaLmfYPNDxS15l45QzKYuVcUrgZNVoOBda9E9f1cEpU3tuTloKnAaldFFnxTS6GVA9qakOxi6c4VHfeqIrA0cYUBRSkzr3Dnimaw3V7foBdXg2u1V4OIuEIF1oz+NVwddmhC65o3bYBf3LgfPH5IK5HGL9T4eCesSN8rK1q9zRSstrHtVpmtBikxryLkvkFymbPuXGU9uBrM2loNOgu25yxfDbrvG9w07RtkFWynDRQd8AAo6os6HNy5qrsa9LV7VYQvAX9GNeCuzEkw2M4FFiaytHfhUmjlhyUB5bnAgn+veZzYTi131ei+QXriyjqWARNXBIFVFlQmAgsG4eH3c9EkuOl9OfDbLz8CnnyCCyw/CKxDe0+AO2b2gV1v3VTF1Xi5N9CNwKomtrvOXZH6Bssih7QazHpT5lzuG7QusFBxZW09WP9q0FLfYI/zvsGgCKz+VhJYQlMQ2wEmsGD26i1cXJFcLNXJWoafA0uhlaON6hv0ithOq2+QNbEdr8SxdjWIuFdo7grLXpmJK/xBoTW5UxNc1701A77y0TxYue0gOHGssjbk2SzWwqoirqCTeNfV+8EXPlwAc6/PgjF4GQhhoVBYQYHlSFwZkQxjTUlsJwksZ+tB2sR24tUgnr2yeDWI9w0OerUepOBc+ZfYXh1odw0V1YUVlr0KkLgC8CWgc6V9fZVe6szXg2YiK7QSWwqtfLd0SVhcDBmxDTSRDJXVoLFvkDax3dy9ciGuGkBstwsVLbtXurDCsldWxJVBaIXXwcQla2DiknXVzfrx7F6w9asjnAbPUFihrhUEhT5w2yHwrd49YPFNOTDSngaj4ZKwKmWm3Ior6sR29HtfENtN+gbrBNqdVeI0J7GdyLxqCWK7MYPlSlwZWFe13Cv/voQoo52Dy5KovJaLq3p5rNDK6UuhlX8u5bAaBxSluBokM69WneeuwnaAou6I7Y6QDOXVIOZeYZkruwILXR2OX7imfn7p/26D3/z3w2DP+jE1n4XIA57PciGs0Dl2+KSKXbhzsFh6OwAAIABJREFU135w3V9sg/5XplSeFRRWEyVR5FxYmQFFWbpXJCSDu6tBe32D+mqwfiUOCySDo75Bm0DRQQ+AoiyuBvtoAUWFYBHbycyrALhXYulrQb5SEpVzucCqL7Dg61gKrfwMWQkWmwEoSu1q0EOg6KxLoChpLUgKtTt50NEaew0UWknw1X8qgNzPHwOH951Qr9rMXBg+1oUVXMEefPAEuO8bB8H179sGgxemwGhoA0xEMtpDBJI7gWW8GvSib5AWUHQkgEBRS+6VTeaVJ6tBEpKB8tUgDaAo6XKQJlDUkXsVt9c36P+1oKy7V/BztyQqF0IsA18NWrkqDK08Y7F9+e9Q14rd1SCyGqTuXq3Q6xtEP5HV4KzfVoP61SC6HiRcDroXWDD8rgXgpztSYCqUBBMXr4PbBx5UafAwCG929can/u8JzFmt33kY3PjBvCqmxsIbYKKrIqzUV4KGulsL4peDlICiWLDd6F65xzI4Xg3qV4NRFkBR+32DlrJXdYLtpKvB5gOKWnev+hi5V7hzZRsoaqtvUPH/E2AljnJMEpWhhKicw90rey7WK5ZCKw8shVZO0hVYeO6qcjlYJagoEtupXw1aIrY7vxbExZW19WBtceU0e2UusOBnCsx0QJGVBFPwfzeaAte+JQt+MLEH7E0f4wKrzlSJUABA5udHwJf/WQEzYhZMxjJgHPKsujaM4goKIii8qAgs49UgFYFlq28w59F60Jq4wkPt9qGi1ontNStxbDGvuMDyQmC5JrbXwDIEKdguVd5eSVRerHYOcu6VLYH1h4uhlX9cDK08WRJXRVoCC81dLTQVsZ2EZfAfsd2de1VxrnSBpYm1FJjqTIHJUFJ9C69Ng//6223w8+v3g0fyT3ChZUFcQVDobUN7wdVv3wLT8Yy6DhzvLImrknsFxZC+IqSzGiQT20d9TGzHrwZtrQfhajAaIGK7rb5Bdg4Wuhr0NbEdrcRxvR40ulaO3CsS9wq7Ggyge1XUxKB8UBKVayRROYu7VzYGCqxFDdnwgqXQ8u8WVRdrmQqSQXewFoJEbC+5X9aJ7XTcK0fE9rA1YjuV1SB0rxBxBZ/6dUcSTFySBJPtSXD1mzLgf/5dBvd/81Fw+KETBnHRqitD/J/7weQxcPf1B8AX/1FWhdXghWkVvVDOWumrQSx35X49iH5vzF25LnP2gNjuqBLHRt9gw4ntNvoGDSH0gKwHmRHb9WJn1+LK/GrQVd8g4WowKNkryfjuk0TlYi17xR0sWwILvoWQKrI+uhha2buAuFhuBJalvkGfA0WtiSt3GSzHSAYMKIo7V7TcK+3voQkqXGBNo0JrZxKMvGoNfPZdOXDnwl6Q+8Vj4Ogj1f2GLbcKPFUEjz54Aqz94BC4VXoQzAgZMHyJhl0oiylMYOnulXskAyqwNEHk+moQzV1FawFF3RPbnSMZrDGv3LtXWwz7BlGgqHd9gzTdKy+Aor2uV4PV4XbXV4PN4l4J6u/DQ5KoTKjOFV8P2p+l0HLbp0MrbbtCK2cthlbuUgVW+7IDkUUGihoqcRi4Vy0FFLXQN+g+d2VcC+Krwek6Dwqt0YvWwQ3vyYFffv6Aeh33xOOnWkJoGauFtAD71q+Pgu9P7gWLl2fB0EUpMNaRruSsUGGliysG7lVFpFG+GmwJoKiZe2Ut2O4eKLrVOKBoQ9yr2kDRfj8DRU2uBoN2OSiVniawlO8kROUV+mqQ568crQlX2hZVJ2vlXxdDy5mFdverwUXS1SDzvkF3uSt9LYheDtLsG0SvBl33Dda4GnTvXmmCCl8N1hRXHaWn/rVJMBlOqp83vm8TrN9xSGU8kdaFzSC28H+GkyeK4BHlBPjJNfvBrrfkwPDFKTDelQYTkGelvkzlExFX5XA7FfeKUd8g+omsBivuFZ69yjWmb9BCsN0esd1636Ap86qFgKI4sd2ae2WB2O7YvcrXXQ1S6RsUAh9sL5YeFFjHE4Kc4M6Vy4HiqiSwnrUYWrnZ+dWg8XLQcDXIqG/QlbgyQTLUxzK4y1257hskrAXprgddCqwuTVzBNx1JgXkhDb7093mQ/slhQ78hSZwEcdB/huNHToGf3/QwuO7dm2rOCgopKK401wp1rhCBhYor7GrQffYqa7gcpH41iIirEQbiylHfYB1xZS97VV9c4VeDdbEMXGA1SGAV6GIZzFaDiMBCxVWQBFYC/j6IyhckQXklzF4l+OUgHZG1GFp532Jo5X7VgWpfLlpbFVogtjPsG3S8GiStBy27Vw0mthNKndmsByvZq5riCv2+S3uqyIL5rFASzMZS4Nq3ZcG3rtoNsj97zFSgBGXwn/n4Y6fA/d86qAbYl96UU0WVtg6EzlWaLK4wgYVnr5znrkjEdperwTrrwVGKUNFRXxLb7V0NukUyGKGiwSS2D9iqxLHfN+hMYHFiu2RNaB2QROWvoLCCwXY+9ATWOYuhlelFdU0IBZYqsmy6VwEgtmOXg6h75UXfoB+J7fjVoC33ChFWhq9Lb7IjCUYvXAczsZSKdbj7M/vAg6uP1xQtfhx8zfnk8VMgdddh8L2JveAzf7kFRkNpMNKurQSN4so81B4YYjt6eWhKbPeyb7B5ie3aapDxetADYrs1JIO1q0G8b9DZ1SB5LUgre6VnrQKauyoiX18vicrLtHC7wvUVZZF12WL7yhoipGqILOPVING9orYaJCEZXF4N2uobXPfevUJzVwTHik7uChVXdNwrswezWWMXr4PpaArceqUCHvj2QfCocoIoZPw26M908smiyrO65/MPgxs/uK26VUNVWasNzL3ChBZyNcjCvWINFDVHMri/GqSNZMCdq2EGQFFa7pVXfYONJbYXGk5sd8W8wteDhNxV0K4GpconhIq+QRKV03ionUkWa/lZC6GVf6oOr5uJqzruFcWrwSACRfGrwRnbzKvGAUUti6sa7lXVg6DSDk1oTXWmwQ+nHwKF3x0FRx89WSVoGi20SAH2Q3tPgNRdj4FbPlJQA+zDO0nCChVXNZAMaPaKytWg0b1yLa6aBCjqjnnFgaLs3KvGA0Vp9Q0GGMkAJKH8CStxZiVBeTa/GmTrYr18MbS8vRhaOVXtYi2b9A0i4ooysZ0qUBRbDbK6GnQdbK/hXnkJFLW0GrToYE2pn0n1c7IrDSY7U2D04iRYeF0G/GByrype8H7DRogsEs8K/hrELnz9k7vBeAeasSIJKzx7hTlXaN9gSWjRElcs+wZVkWVa5ux+NWgr2G4TKOqsb7B23irIQFHaq0F7zKs6q0F9Pag7V45XgzjzymWwnSSusFC7UWD5/yV090oTWTlJUF7OxRV7gfW0UuD9mCae0CzWsknfYAkqSloNhlhARV1cDerulenVIMm9ci6wUHFFo2/QlwKry4nA0kTWVFcaTEfS4Jq3ZsHdn90PHj940lcCa9/mcfCNqx4E82/IgkkoZEoZq9oCq06wHbkapNM3iIorCleDJkiGaqiou2tBXFyx7hu0vh7coiuwepqb2E5VYOG5q7gTqKj1MmdafYPoajAoAkuCAkstdJb3S6LSL4nKU7jAYjiLFTbWcxZDKz9eDK0cbySxnQVUNBjEdjJUlDaSwbgeTDlfD9oQV9pLqyJL/YSQ0rD2dl2WATdfsQ3u+/qj4Phho9BiKbZIf3+YD/ve+F5w/Qe2wbSQUV2rsU4zYWUmsAhgUexqcNxvxHaz9SAisKqvBpuR2F4/g0WL2I6yr4JMbHcFFTUhtrvPXlXEFZ69anFiO1BdLNW9kn8picoLOFTUqyxW+zL8fOtiaGVPZU3YOGI7zb7B2qtB/xPb6blXFWFl+WrQoXuFiitdWOlCawoRWuPtKTB6SRJ89t2b4PbhPWD9R4fBE0fZ0uDxv9+hvU+C+75xEHz5YwqYuzSj5qzGwvWEFZ67Mie2T/id2I5dDqLuFY2+waYlttt2r9BKHPZQUX8Q202EFmNiu1nfIC1iezD7BuWi+jMLckYSlH/klTgeDSKwIID0S5qLhVboYKtBEpIhkH2D7pEMdNwr89UgTfeqws2ycTXo0r2aJAgr/KnZrIuSYDyUAp97/xb42fUHwPZvjqpYBJpCC//vHznwpIpduGPyIXDtOzZB3yuSFoUV6WrQPHuFXw3SXg3SQDKgl4Po1SC5b9D5itAe8ypn62rQWe6KErHdRd8g6+xV8xLbzbJXFXHkmNhuazUYDPcqAVeD2tc3SoL8TO5eeSiwkPe6xdDK3QtWgKJh1kDRVd8DRe0xr/wCFE06QzK4cq/qPz0EP7YzCb7wN9tg9fsHwaPyEwYivN3VIemvf+LIKfBQ5jj4xecfBp9+Sw4MXZhUmVbWRJU99wrvG6QhsPS1IJXVoK+AoiSoaH2gKInYbg/JQAkoaqlvUEcyeOte0cpc+Q8oSu4bpOJeGYSV0b2qCKtAiKuilr1SBeH9CVH5CxUqKvC+wQatCpdHFkPLj5fcq2LpmfcNUnk4lsHd5SC+GjR3r7zuG2weoCjJubLrXpkJLZjPmoqkwDc+pYDsz4+AE4+fUq/7ajlSNf+zovZrh/c9CX5/60Fw3bs21etA+NSKG9viysS9qtM36C53ZazEcb0aRMUVFm6vXA06D7ej4mrUafYqav1q0L7A8h4o6sVqkOheURBZ9sSVhatB9HLQtXNFDrY7Eld49qr88NxVUNaCSuV7Qf5kQpB5kXMjpuJiLb9yMbTyX6jAqroaZCCwaPYNzvm2b7DRAsvCapAUbPdYYOlvKpIGS2/IgFuv2g3yvz3qWGBBWOgD3zkEPn9FHkxFN9TrwAm4CoTXgY4EFs67stY3SCPYjosrGutBI5KhkVgGvBLHfpmzpwKr218CC6/E8Z7YbvFqELscdH81WB1ut41lIAXbMYEV1KtBSRVXytclUWnnV4MNF1hr8LLwfQuh1YIqstrVkHuRxXoQr8RxlbsKNY7Ybl1cmTOv6EJFq9eD04yI7Wjuyul60Exk6deGs/ENcMP7tsCP5h4C+fuMQqvWwMD8yvcOga98TAG73pwDU7ENNWcFhRX8+ey7V40ltuNXg1SxDL4jtteHirIgtg83CbGd9nqwNrHdRvYqcMR2s/Wg4vuXKLGvEoIMoaLvlETldC6wfEF4X33uYmil30tiOzWoaECJ7TOM3SumxHZMWDl1r8zEFgzAj7WnwMLrM+CWD+fBd4ceBPd8/gBY++FhFQi6ea/2tu49CnK/OAKWbz8EfnrtfvDNqx4EN7x/G0x0psHIJSn1cxITTM7cq8YS26msB4mrweAR21n3Dda8GrSRvUJzV6z6BquQDA3pGyxYd68CQWxvgr5BQblGEpTnS3w92PhZDK22LbSvQpF14UJo9dfzodViSVypq0IWQFHqfYM1g+3urgZnGbhXM4wqcaadulduiO2UxFWZm1Va5U10psBYKAWGL0qC4YvWwfylG+CmD22Dr/yLAr78z9qDTtV/f1RWRdV0zwYYfHWySljBT/1r9+4Vocy5tBakQ2xHv29U32DOd32DzoGi1ont7phXHChaj3nlPHuFiqvqgLtt9woVVlXuFcxd4UgG/7tXCcEgrrKSqFwiCfJpPNjuG4G10jbfvvK0+dDqB+ZDqweDAhS15161ClDUhXtl82rQ7WoQFVb616rAUinwyPddKTDekQKj7SlVQBneTvjrWoBdF1MkcWVPYKWtuVfUkAzG3BW+GnS8FvQAKGqPeYUIrKABRU2FlrdAUVP3ioJjZY955WXfIAeKStbcq32SqAwm4MWg+uRGyws+cBagyAqtQpF1xnz7yg/m21ePl4RV0Y+rwTmP+wZZAEVnAggU9cS9QsVVJKU9+L8X0QWUUUjVe7qwGneFZMCuBvFKHIqrQTzcTgPLgK8GWfYN1r8aRAVWcwNFvWBesbgctJa7qgEUxfsGHSMZSOH26kocR1eDgvnVYKBWg4KaudK/v1MSlWfx3JVPBdZC++qOhXZ1VbhBW2Ch7pVrYnsp1M6yb5A1sZ12sD3oAquyGtTFFSqwUFGVdiSunAmsGlgGRFzp7pX79WC2SlxRIbYz6BskEdutYxkIV4NcYDVcYNUOtjsoc8auBp0xr2qLKxrMq6D3DSa0z2VJlN+rYhk488p/ozpYHattC+etti2EVxML4RV5HgJHXYssr4ntZn2D7oSWdaioObF9tkmI7UaBRW89qF77oQKry5l7NeE6d1Uje8VwPThGaz2IMK/Ka0EEKuoPYnuuIcR2fDXonti+ZUpsZ903iK723F4NNj2xnYRlEMhXg8HIXskaUFT7eY9KojKlh9q5g+VnFwu+8Oo5C6GVr827zGAxJbbbyl65Z145dq8QoYVfDQab2E7pahDPXunfq+6V7mTZWws6y101mthuXA3SEljVxHZS9orlapDkXtEmtuMCyyHzKmjEdgqVOGjuyjWxPR4AYnvdvsFguFcJRAAmROWLkqi8Ggor6GDBx8eHsxBWxVXbvCq0Vt67EF5dKblQRWdOFoXcFcG9QsUU7b7BWUbuFWk1ON1CxPa6V4Mk9ypiz72acOVe1VkNEoCi7nJX+OWgfjXIoG+QWOTs7nJwhGHf4DDjvsGa7pUPie2sgKL13SubzKse42qQDpKh+mrQtbgyCC1S7koOwFpQhteD8OuMJCpv14jtXFgFSWg9bSG8euVCeOWkFlJXC6CLngJFTdyr+kBRd6tBVDDZRzKQie0cKEoWV7pzVe1eoQ6W9bWge/eqeYCije8b9BooWpt5RRsoanSvggkUHaDoXvVh7hUHijJwrgStDqckBk9KonKVJCrn8bVg4ATWCvx8zUJ49b+dXg267htEgaLY1SDZveJAUZruFZnWTmc1aLgaRFeFVVeD9rJXzsUVqRKHHGyfoHY1uMFkNThas2/QuXuFiyvrAss+UHTYt0DRauYV075BhkBR82C7w75BgXbfYHWwnRZQVApq36Cgdgzq4urOhKi8RBNX3L0K1GirwhW4LhTnwytb8+GVU06wDK6vBgl9g7qw4gJLWw2yWg8yJbbjV4Po5aDhatC+wKLTN4hBRQniig6xvfpq0DWxvRRqr+4bdLcaHHEMFW12gcXGvSLlrlhdDbruGxTIl4POmFe1rwYdCSwsd0UOtgfgCeX15QFJVMJ6HQ5kX/EJYB5rIbz6jIXw6v+Zh4IpZGVN6M3VYP2+QfdXg7bWgx0BILY7vBpkSWxXc1dV2Ss0d2Ute8WE2E6AirpfD5J4V40gtnvcN6jnrixcDgaD2M4eKoqvB2lnr6xdDXpBbCdBRSuXg46wDKRQu4HYjmevfJ+7AlqZs/p5MCHIo5KoPJ2vBpsh8B5ePXchvHLrQhgCSM3RDf4gtru7HLR2NUjqG0TElZ+J7ZaFFl1iO5F7RVoP2rwanHC1HrRIbKcOFfWA2B5l2zdomdhedq8QcWWReWXPvWoEsb0BfYMUV4P+I7YbHSxUXDkWWCZIhqCVOScqdTjw805JUM7nSIZmcbFgIXR4NVq5KjSDkJL6Bl2E2pHsldd9g/Yqceq7V61ObK/LvCK6V/aRDFSJ7XjfIDWgKHo56DJ3RXCv0EtBVqtBa0gG6+4VaTVIw73ixPZqUVX7ajBvndiOlDmjV4PukAzVIsvV1WANoGigsleirLlXgrKSEJX3a1eDvA6nmVaFbfPhld6F8KpCEljU3KvAAUUb0TcYbKAomXnlzr1ytxYMKFDUxL2q5K7cM6+oA0Ut9g3aQzJsegYUHWoSoGhtgcWBon5aCyYq7tWjkqj0l8WVyHNXzSayTl8Ir16zEILiCmayND4W9WC7r4Gi6x4CRY3MK8vuFUlc2QCKVjOv6EJFq/oGDSF3532Dzq4GyZmrKu4VpWA7ejU4ThMoyqBv0BlQNOd/oCgusCyG2nVhxfRq0Cx35QlQdNsWUNRQiePIvSrUBIq67hskAEWD1DeYKCEZoHNV+lmvlkT5BVxcNTe6IbQQXvlmOYsVWimy6htEM1hcYNkUWLhzZZPYzuJq0LRvsCyw3PUNUr0aZNQ3OEazbxAntiNXg8b1YK6lBdYQNYG15ZnAqroapCiwamMZrOWuzMRVL6XcFZW+QRNiu5678rvAkvQqHPX3QLlHEpRLubhqgVXhQnj1rxbCqwUke6WKLNeVOB4S211BRT0ntmurQVvrQZvuVesQ252vB92uBiu5K+3vx/JqkFbfYNMS222uB7VAe/V6kLa4CgyxndA36OxqsDp75SjUbpPYHqzLQfmEJCrvlUTlTC6wmni0HJYqsJ41H17998YQ23GB5cV60A/E9qTzvkGbq0FWxHYafYM4ksHZerD+1SCpb5BG9qo5ie3Y1SDJvfIjsb0nAH2DFJEMrIjt7q4Gq9eDjsQV7l5hYNHAXQ2W6nAkzcHql0TlHL1rkE8TTwnbAIXWCxbCK19ALgeLNIntXvQN2nevdCRDtbjSxRCdq0Fj9gpdC7LqGyRnrxgjGQy5K6+I7fjVIMu+wQpQFL8adJ29QkWaae7KXfbKkXtVrsSx514FAyjKtm8QXw/SBIr20wKKxn3YN2hCbCddDgZgLai6VnAtmBBkjdYuyOdL5WA7F1hNPchFIcxk/elCeGVDda9UgQQD7y7WgmEnQNG1hgNFZ5sAKMrSvWpNoKhRYFFzr3wPFEUyWEzdK/PHAiga5L7BpgaKkoLtCPMqaO4VdK60T/jzyiuSIL8Oiiq+GmyhKYXd4ecZC+GVf5gPrypQYM2F1PVgsamBoqi46mDFvKpwryy7V+jloE2gKKtge1lgoeKqCstg/VrQ+WowbalvkD5QVBdXlctBWgLLt0DRWGOAokN23SsbQNEhD4CiVeKKQd9g7dxVndUgUomDCiYafYOugu01+gaDdjVoEFqCXJBEpVdjXXEkQ8sNFFhz4bW22dA6XBfePBdeewxW6cyFbLpYiIPFBVa1wIJiTRdXU3ZXgzaI7ej6zpO+QQriyhmx3fxycJwgrmhARccI4oqawIq1osDa8khgVXJXKFE9qH2Dtd0rC5eDBFo7jb5BknvlqhLHhNgeBIGl/oyCXEyIynV6zyDnXbVw4B2+ufDaH82HV79q+3qQtB5kRGyf9YjYzmI9yInt1VeDzrlXXhPbq/sGXQfbGRHbR5uE2O5uPbhZlb1i6V7hV4PeENtJUFEb60Hb7pUHxHZC32DArgaL5eyVKN8iicrLeIFzi898eK1tLgRF1hp8sfnw2h1aFktdExbtXA3ac6/8SWyngWSorAaNfYO0ie3TDSG20+kbdO5eEXJXnNhuEFWjrUBs7/YHsR13r3CkAg0kg6u+QRTJ4Go9iK8GK7kr3L1yfDVI6BsMmLhSeVcJQflNQpDfxHsG+ahTEleakxVaff9caHUbrgpLIspcZGFXg6zdK/vE9jX/E9vNslcO+gZpEdvrIhkcEtvpIRkIV4MEJANd94o+sZ2mezXiyr3yD1A0aMT2KuYVpdWgPSSDhatB132D1UgGJu5VAPsGIa1dBYlqq8Hdkij/dUKQn64iGURehcNHF1mqk7V6znx47ZPzMI8VrhF6x4GiOv3dEpJhzRdA0Vm/AEVtulc4UJTV1WAggKKIsKJzNVjNvEIvB12vBaPBBIo6c682WwYoSvtq0Hqwvf5aUHet6FwNGt0rx3U4JOZVEN2rUsdgSWAdkQRlRBKVZ0MkA+dd8TFxstb+eD68esN8eO0JTWCtQkFVbDRQ1Jq4wq4GSe4VgdhO82rQFlDUAfOKjGSgezVIAyhKx72qfzWIXw7SwDLgV4NUBBZjoOgIQ6Coc+ZV/dWgqXuFO1d1V4PVwXbP+wYpiSxz9ypvazWIAkXt567MslfV4opV36Dfg+36z5YQ5WOSqNwhicq5OpKBD59amawXz4fX7psPrz2pCarVugLLfDXYqEJnLwUWOXdl62rQgcBidTVoEFgOc1de9A3qwohOmTPuXhnFFQ0HK6jEdpYCCxVXRGI7KqTqZq+2iZeDrAQWq6tB61DR+qF21b1ieDXomHtFWA2S3Sv/v4QoLydE+cKEqJzGrwb51JySi3X6fHgtPB9eyxquCkN2+wbXGkRsRytxyIF22pU4eu7K8uWgj4jtVVBR4nrQHrHdHVTUD8R2ylBRLHtlXA0Gh9jOYj3Iie3VV4OO14MeE9tdM68MQgtnXvl0NWigtSvrkqi8IyHKZXHFHSw+5g6WmscqfYbXrpgPremh96KhEqfmetAPxPZ1xn2D6GqwOYjt5lBRZ1eD7sPtASa2Y8wrsnsVLGK7MyTDpifEdvxqMKjE9vrulcW+QU5sZ+NWCbKKY5AENdQOYaJXSoJyJgy0865BPnayWPA9ZT681j8fXttTElcqvgHvGzQXWA0ktoe9I7a76hu0CRRltRpk1TdIDclAcK/GGRHbaa4G9atBlu6VI6BoNOjEdnLfoGdIBoZ9g/WRDNbcK3fEdmtXgy1GbFdD7aV3SBKVMUlU/ljtGYS0dl7kzMeByHrufGhtZj68dkpfC853aMXQLJAMzphX1laDXvQNTjF0r2iKq0mzvsGyoCL1DTYIKGriXgUGKBpl3zdIGyg6EiigqHfuVZCAos5yV3j2qjrczgoo6vPVYBH7uW6UBPkCvhLk43jKIiuk5rG+YwSKrhZZAUXtuVeIwFLFlTlQlNVqEHWvbCEZLIssUrCdwdWgy2A7KXdFHShKvW9QE1T4anCM0moQXQtWrwa9cK9qMK9suFd+B4p62jdIAShq3b3adgQUxStx3F4NusIyBB8oWipwVr8+JYnKvZKohFQcA78Y5ONmVIHVoQqtjrmOta25jrViaT1oQWCtey+w4CfKusJcrApGgc7VIBpqZ4NlMOsbTLPpG4w47xskuVf2BFaN1SChb1B3r+gJrCwzgWWevWomgWUvd+UOy4CKK+PVIMv1IOo40RRYrvoGUYFFuBp0TmyvFlhUrgYJAsvvq8HyzyYo+yVBuQByrniYnQ81F2uuQ70s7JkPr2WguIKdyG4iAAAgAElEQVRCaja8WmRJbHe0HuTEdsvBdtrrQebEdsLVoF+J7WO+I7Zbg4rixHb7Aqs2sd00e+WI2F6dvQoKsb02VNQhsV2gRWyvvhpsZWJ7mdQuKnlJlC9PiMoZ/GKQD7WZgzU6HarIOmOuY+2Dcx1r+2e1DFaRNrHdnrhCLgVJfYOMiO0zTUJsN4eK2lsPMie2m2SvnF8NGt2ryqqRQvaK8XrQnrhCLgXxvkGLQosGksHSehD93vLVYHMQ22sLLAvEdpPslf3cFblvsKWJ7drVIPz59kii8qmEKJfEFXew+FAauCKc7VhrW+xYa5vpWPuD2Y61/5zrWNujiih4VdgSQFES88pi9qrTX8T2srAiiSuHV4N03Sss1I5kr9znrlBx5U3fILkSp1mAopT6Bi2tBo1Xg164V1XiylOgqDUkA+ly0PnVYHWonbZ7RVoN+s29Sggq56pUhaPskwRlKiEqz4WZK+3JXF/woTclB0vlY5WcrKW5jrXjc+HVksjS3Sz3V4P+Boo6cK98ChSdaDhQlMS8wtyroAFFdSQD8WqwAX2DPgKKmmavbLpX+tUgS/eqnOXyK1CURGyn3DfoLVBU9iuO4aQkytdKovIifS2YEHgVDh+WIkt7F8x1rH0OC7U7Ell4qN1y7qphQFEbdTikShwbzCvaq8GywOqstRr0Eihav2+Qdtcguhp0La48AIriofZh28wre0BR2sF2y7krG8F2vdSZmXvFEChqLrBI2av6fYPOrwZrB9tdhdrx1SCStUJXgz4TVqq4Qty0k5KgfFMSlA5VXHFhxcdjN+s1cx2rN6k8LDWTBQWW+6tBa+4V2bkiCSz3uavqvsEpp32DNgUWravBKvfKFMvg7GrQOfeKIK5w5lVTCCx3mSvnAgtxsCwILJ13Zc29qp25qlnm7LJvsMppYiiwUF4Vbfeqz8nVIM68Ytw32EoCK6HzrgQVx3CbJCp/xllXfBoisGY71uEnxDfcU3au1HWhM3Flbz3YnMR2crCdIbE90mhiu0mwHSW26zksaleD+nowWMR21uvBoBHbWQfbaa8HmRHbS/wr5+IKDbZTWA+i32NXgz7HMiCrQTlXcq52cPeKj+dTWRUmT5/rWBfmOtahyDpZWRWyuBokIBlwBwtbDQaV2E5rPdgMxHbW7pVb58q/xHZrzCvaxPbhJiG201oPsia2o+6V8+xVdbjd9dUggXnlW/eqFGgvvbWEqFyWEOUz1WtBXoHDpxEzpzpY5XfZXHg9iwinIjOgKH41yMS9IiEZ2BPbG9I3aJPYTs+9qk9sR0WSe6AouW+QxmqwPpIhG3CgqJl75YB5RXKvLCMZvOsbpFWJ48y9qo1kcNc3WJ/Y7vpqMDh9g1p5s74iFJSkJCp/CYWVDhPlQFE+fhFZV811rG+WVoW6yKoSWrpoouJeYYKKbrhdE1T4arDuWhBfDTroG6y4WBSD7YzcK3dIho3qtSC6GvRj3yBjoOio74Gi9a8Gh+1U4tRlXm03BChKq29wwLZ7ZZ955QwoWu1eUUUylL8mIRl84V5pwkqQVZhoQpAfTAjKlWpxc0lYcXHFp+GjC6xZFeGw/qm5jvW8UVCRc1n2gaLo5SDiXHX4CCiKfu8i2E77apAGUNQs2E4NKBoxrgbdrwWDCRQdseVeoUDRnIdA0doiyzKSwZZ7xT53VeVeURRX1ojt9vsG3RHbC60KFK2sBDVS+0FJUD6REOWzIOeKCys+vhtEZH1krmN9n5UVoX2gKDlzRS/UXrtv0FKo3cXlIM2eQYO4qnKv7GMZcKHlnthenbsycK8oCizdvaLSN4g6WEiwnSyw3DtYw7aAorUFldnl4DDl3FXNq8G6zlX11aAusJgBRTH3isZK0Npq0EbfIF6J4yp3VX05SE1gmVTi+BEoqgotQXlSEpV/SIjK03l5Mx/fDrIqfMpcx/oH5zrW92uF0JVMVtMS2x2uB/FKnFYmthvWg9SC7dVXg67Xg1HviO32BZbPie02+wZbg9hecNU36ExckdEMrURsL/0sT0iicoUkKs9WIaLcveLje4EVVj+fM9ex9ikMPFqkTWynCxVFxRX79SBObGfRNxgkYrsuhtitB+mJKy+I7cMMkAzOoKKc2N7MxHbq60H/E9uLCfgzCcoJSVSGEoL8HJi7gqF2XoHDJwAiq8zIev5cx/riXMf6Uc150kSWNaAoiXnF0r1ySWzHhZUlkUVCMtC/GqzOXiEhd8+I7bXdK5zY7v5q0Ng3SNO9CjKx3Zl7ZY3YbgvJ0MTEdhZ9g3SI7dXOFX412Ou2Esf/QFHYMQgSonw0ISg3SKJ8Pqy+gSgGnrviE7BVoZrHevZsx9r1sx3rBxH3CoqsIo2+QRaVOF4DRWkiGYjMK5fuFSqsJlwjGRoBFGXUNxhQoKizcHttUcUSKDoQMKCoPeaVfaCoe3HFCCiKXA36EMlQxjEkBPlIQlBuTgjKy1XOFV8L8gkuiFQVW2fPdax/brZj/XHMvSpaEldoBovgXtFCMhjdK/ZAUZqrQRwoWr4aNHWvNnwHFKWdu9JXg65D7Zh7VXbCKLpXrlaDaAaLGVDUmtCiARTFrwZZuFcDjPsGaQbb0bWg+9VgSwJF1ZVg6etTkqB8LiEqF3AUA5+mGCi05lUna31WFValdSHiZtVeDdbpGqSVuyK5V9N23SuLF4Ms3CtUbBHFlQPmlfPVoC6u0uZAUd3BYrAaRC8HWVwNVi4HM9SuBq0BRXO+AYoOUwOK4sR29u4VUVxRCrabu1ek3FXeHMmgO1iOV4M6UJTcN+g4d1VjNaiLK6PA8oG4ElTnCr5FSVRepgfa+fBpCoE1E15vm+1Y++OZjvU+1cUKuxNYXvUNshJYLInt1VeD6OWg86tB+wJroy6xHRdXLIjtNMucWUBFRwIqsIYCLrBYEtvNg+156wKLIK6cCaza4srV1SBBYFXC7P4QWMjXc5KovFTNXPG1IJ+m4mOVGFmzHevnz5ZEVrWLRYKKmhPbaa4HK2BSG1eDLvsGm5fYXmc9iFbiYFeDvie2G6CiuLhyl8FyBhW1zr3yN7Gd3DfIQmC1BrGdJLAqV4OO14PBIrbr4upUybl6KQyzQ4EFHx8+TTMzmriCLhb8/GO4LtQzWRWRhVTiNIzYnnSGZHDoXtFcC/qP2G6vb5CGwGpeYjteiUNgXsXqV+L4m9iuA0W9ZV75ndiOOlc0+gapuFf+J7YXE3AtKCpHJFH5nLYWLIkrvhrk04yjrQnX22Y0kQUzWTD4fhDpG6ysC1Fiux+BojaRDKyAorWZV5UVpJPsFT0kw4Y5rT3if6DomG+Aovb7Bp27Vy6BopaQDN4DRXH3ShdatJAM/ZaQDF4CRY3MKxZAUXP3qqHrQJi3giiGm9FAO3eu+DT1IC4WfGfPhtevnw2vHak4WSqSoSS02ANF8atBFqtB1kDRqsvBqqtBfwFFJxgDRWnmrnRhNcYQKGpvNagjGeozr1gARR25V3XFFepesbsaJPUNtiJQ1DaSwcy9ImSvGggULYsr6FxJonJCEuQbEqL8ci3QzjlXfFpstEzW2nNmw2vjs+H1I1gdTpF0NcimbzBpX1zZBIril4MsrgYNl4OGq0Gv+gZNrgZNgu0T1K4GN8qhdtTBopm9Ml4NuhdX1p0rZ3U49pwr60BRW8wri+6VJq622LpXiBhkdTVIazWou1fO+gbJwXZXq0H9atC0b7DhV4PFUmGzLrRg/c0QhIjya0E+LTsVJ2v1qbPh9f8z25F8uJbAYrsetFmH45DYzuJqsIrYbrgadCawnHOvCOKqBrHdfe4Kda/orgfLLpihzNm9wBrxQGCxIrazElg6sd0LLAOLq0Hr60H7Zc6+IrZjXYPk7FWDBJb61OJm2C34HL1XkGeu+LSwwFprm1WzWck/mA2vf3A2nNwHRZXKy+rURBaOZHB/NWjsG7S1HnRIbGedvaJBbKe/HmwSYnvN9aA798o2sT1mPXs1zJDY7g4qar4ebEliOwEqSmc9WB1wZ09s93g1KMho7uqgJCr/oBc38/obPi0/hkxWeP0psx3Jj8x2JvOaewVF1nqRNpKBWt+gzavBIBDb3UFFCVeDBGK7+9Ugyb0KBrHdfd9gQIjtpkKLRGyvhNxZM6+8JbZbcK487ht0lLuK+5bYjoqrByVR+URCVJ7OM1d8+CAz25Fsm+1Map871a+vnO1I3j/bmTyhuleldWHQgKKs+gbNQ+34alB3ruz1DdpbDZKQDMjVIO5eYVgGeu6Vy7Ugthqs3TfoHijqqBLHxuUgB4qSrwZZrAapAEXRvkEqSIZqkeXqarAqe9VQoGgxoT3dxUpKonJlQpTPgutA/fHhw6c0qsAqvRlNcL1ntnP9Z4h7Bcuhi25Xg40AihoFFr2rwdYEihqvBqm4V74Eipr0DdYhttMGiuLOVRCBojQvB1sGKIpfDYq+YV6pwgrpFlyTROUvVYBoSVRBB4sPHz71xdZls53Je3TnaloTSUU3zpUOFLXkXuniikLfIA1iO+ly0HA1aICKen01aN43yCLYjl4Nuu4bZAwUxQWWK6AotToc+8wrU3FlqQ6nejXImnnFMtg+4LbMuUbfoDP3yng52EuzbxALtpOzV+xfQkBXgvIpSVRyCVG5DAJEefUNHz4O3KzZzmR4pjP5VYTY7lBgVXJXevbKUe7KJrHduBpMeURsdyau3EFFTQSW7l5hq0EafYO4uBptBWJ7gwQW8XKQ5FzZJLYzuxpseN+gtdyVWZlzL2Usg0QJKtrgvkFdYJ2UROU2SVQ6JFE5MyFwxhUfPrZGF1jXwJVhZ/LV053rS8h6EK4Ki54Q2226V40htpdWg56uB/1AbNfFmn+J7c7WgzkPie21A+2W14MtQGz3aj3oLtRefTXoKnuFVeI0rG9QkPXMFRRX35RE5c8kUdmhO1d8LciHj81R81h6Lqsz+fKZzuTUdMf6fsSRKjIltqPf27gaZEVsp9k3qIsj9+6VObF9nDGx3fVqEHWvqojtunPl3r2yvh70mthem3lFm9hudK+CSWynBhUtXQ2S+gZpEdupZK8aS2wvGgnt8j5JVK4tOVeasOLuFR8+zgcKLOQ9c6ZjfXimM7mNiKhi7VyWA6AofjVow71iRWwnAkXRvkGbzCt6q0EyksHgXlG5GjSuBlkCRStXg43oG2xeoOigh8R2g7hicDVoDhQtNLBvsPpq0JbAQnNXmLDCV4MerAU1YaXV3sC3JyEoU5KovKgirniYnQ8f2iLrKTMdyX+Z6VjPYheFxXpAUVuXgw6vBlm6V74HipKYV9RWgxsNAoo6Z16xRjKMBBgoysq9anWgKH416CrY3jigaBETcXlJVD6VEJXncmHFhw+jKYusDvXzDTOdyexM5/qpapGli6vqvkFLwXYHxHayuGJ4Negw2I6LKxZ9g+OM+wZdrwWbBCiKh9rtuVf18Qym4ipmByhq7BtkJa5M3SuKz9XVIJK76vOob9A2sZ1wOeg1UDSBkNkTgnxKEpT9kihfnhCVM3jWig8f75ysM2Y6kx0znclvQ3yD8cKQfDVoi9jeZV9gsewbnDCDitq8GiTlrqj3DUbZ9w1ygcVWYBFzV2arwbrE9srVoCEn5cXVIGVxRYXYThBX7rJX5L5BRwKrDpbBC/cqoXUKwq/vlQT5AgmKK6EEEOVrQT58PBNZO2Y6k38205mcme5MHp7uWEcyWcEmtuOVONagoj4itlOBihqvBvH1oFv3Cr8a9A2x3UHfoP1KHJtIBpLAqpu7Mmavgkhsp7IeDBKxHYOKeoxk0MSVqBySROVGSVRCeohdBYkKMv+jlQ8f1qOtCddRofXCmc5k73TH+iZ6YaihHIJPbK+6GnTZN+jcuQo4sd1sPViTedWMxPZND4jt6PeEKz9G4oomsZ1a32DAie3wMUMyCIbKG0hoL0iiMiaJygU634qvBvnwacBUBJYqtp4105n8l5nO9d/PdCZP6cJqpgMKLTbMK9Jq0DOgaFXf4IbH7hXhajDCHijq+moQ6xuk6V41LVDUEfMKPk0AeUFsZwkUtd43WOdqkIBksOdeFSxdDgYFKFrJW2miLSEq67BTUBKVP9bp7HA444oPH38IrdNmOtffPN2Z/MlMZ+pxxL0q0navWgcoSspdWXOv3DpXzIGiyNUguW/QX0BRVn2DuLii0Teo5a2q3SvWq8HmBIqSsAwUmFcNBIrq4gp2CiZE+ZgkKsuSqLxDEuQzYd6Kiyo+fHwosqbVC8PUS2Y6k9+Y6UweQdwr6GQVLYkrG1eDRoFF703W7Bt0BhSdZHQ1qIoqQt8gjdUguiKklbtqPFDUAvMq5pZ5ZW81aBpsJ4krS32D2w3pG6SVuTJ3r7bt9w0iQFH3V4MV9woVV64ElvdAUU1caXmrI5Ko3CGJyoUJUTkNBtk534oPHx8jHP6m8ydt053Js6c7k9J0Z+rhqY5kbYHlqG/QKK5oCizietBwNWh/Jegue0VYDWLrQf1ykHb2quJiNavAyjGCitontutixX3f4LbnfYO0rgZJuStzYrvFq0HkctDd1SBFLEODBVZJXD0sicqiJCrnSKJympa1ktVAOx8+fHw2M50p1cGa7kypQmuqM3XOVGfq3dMdyXsqgippFFo+IrYb1oO+Jbaz7BtEgaIVYdW8xHbWfYPNS2zHK3Fai9hudLFcIRmw7BVpPUhlJYi6VhqC4TcJUblCEpVz0SB7QuTiig8fXw8UWMg7fboj2TPdmboFFVZT8MrQp8T2KoHVgsR2/GqQinvlW2K7vb5BGkgGs77BIBLbaa8H6zOvmpPYjlfiUMxdFQ2lzYJ8iyQob0oI8tNQccVzV3z4BGjKIktzs14+3Zm6brozta07V1BkqULLR0BRWkgG3Lmi415h4sqjvkEalTi6c6W7V/4htucaAhTFK3EsMa/qAkW3PAeKNta9qi2u8KtBOu6VUVzRcq9woCgt9ypRWQeWEAzydZKovEznW3G2FR8+AR4osKZKa8PpztRp052pT013ptamO1JPIqH2YrMBRd3lrmq4VyZAUffiKkO4HKQMFNXFGiWgKB33yh5Q1Fn2yubVoC33igNF67pXtsWVX4CispsLwcqVoCCfTIjKiiQqvZKonF7mW/GsFR8+zeVmTamXhqlXTXekfjTdmTqFiCcosopeBtsnfdk3mK5/OcgIKKq7VuM0xBXqXiGhdrJ75Uxo2WNeIQJLFVfWgaK0mVc1s1cxO8wrUt8glpFieDVIGyjKqm/QvntFBoqSVoO9FIGilMqci1VfC/KdkiC/Dl0D8nUgHz7NmsvqSO2Y7kg9Y7oz1T/dlXq4JKAsCSxUXNEmtk/UXA867xt0JrAI4oqxwBprJYFlk9huLXdlLdiOO1emWAbLV4NkceXZepCSwLKevbLeN4iKK7cCqzcAAishoAJLPpEQ5H5JVM4vV96UBBYfPnyaWmQl26a6UmdPd6beNt2Vug0TU1VCiwwVbWZie42rQQbE9vEAE9udVeI0E7G9um9wMEB9g8yI7Y77Br0jtlPrG4SVN2Uyu/r9PZIov1dFMJR6BCHjig8fPk0+012lVWGXKrZ2THelotNdqYWpzuRDCK6hSCK2074anGppYrvRvaoItmYntucYENvR761dDdLoG2wEsZ0W98q/xHaye+UYKEpiXhHcKxfE9tIqUP36UUlUrpYE5VJJVM7kF4J8+LTolASW9rpSz5nuSv7HdFfqF9NdqRPIWrAIX3XfYJqxe5V2fTlI9WoQuxx0H2xHxRVl9wpxrYJKbGfpXg1RA4qiq0Fv+wZpVOKgzpU5sd1imbOOYiD0DTq7GqzOXbHuG6wILItBdlVQlblWxYSgBtn7JUF+gV53o68G+fDh06oiq/RKrtZbp7tS357uSh3EmFdFT/sGHTCvnLtXfgCKUqjEIblXxLWgu8vBEd8BRa1fDtbMXrUQUNRa7sqGe+URULTXLZLBILJIuStL7pUeXte/PyiJyp0JUXl/+UIQKWvmw4cPH1RsnTPdlfrUdFdy73RX8hSSvSpOaY9esL2TTt8g/v04C6BoNDhAUbJ75W41aI95heSudCSDBeaVc3FVP9huOXdlEctgrMRhCxRtTN+gRfeKcDXYnEBRCAnV/tqS03VSEpUDCUEeTYjy+QndteLCig8fPvhgTtaZ013JyFRX6m5YFq2Kn056Agu9GjTvG7QvsJxxr5pLYI16ILCsu1e6uCplr7pZENtREVXbxapyrkjulYXsFYnWzprYzqpvsJ8CVFS/GmxugaXX3agrQiiu7kwISlgSlafzrBUfPnxsrQynu5KnT3WlXjHZlf63ya70Hk1oqSvCIjNiu8O+QWdXgxayV/h6MGDEdlrrQVxc2RNYzUBsN1sPsgu2+4fY3oi+QXLuqiHEdg29gPKtMpKoXCWJyksgOLTcI8jBoXz48LEWflcxDlBktU12pp891ZV691RX+vOTXem9mGAquiK2d/qU2E7qG6QirnAkQyOI7R73Deq5KwuXg8EgthuvBlmvB2kiGfptXQ3a7Buk5l65hIpSIraXmFZFSGMv/drRhKh8URKVtydE+TxDj6DA81Z8+PCxMVNdaeSl4OfLp7rS0lRX+reaUNIC76Vslnv3yubVICqu3AFFvewb9AYoOuIHoCh+NcjUvaKAZLB0NdjAvkFKzzrzysJqkBqxvTrQ7vpqsAZQ1AKSAUUvwLecEOQpSVRerTOtNNeKCys+fPhQE1rqu3SqK/2Dya60YsXNIhHb6/cNegUU3agPFI34Hyg65megqM2+wSEG7pV7oOhWoIGiJGJ7faBo3mOgqHFF6D1QtNIhWHaxRGUfzFpJgvLeROkykAfZ+fDhQ30wkfWMqa70R6e6UpmpTqK4KpLEVVXfYPlq0Fnf4ESrAkUxgWXNvXKHZrAtrqj3DeZsuVemq8GYnXD7Zs1KnMEABNvx/35tgeUlULRaXDUQKFpBL0Aqu8a3ykqiMiiJyrN0/AKnsfPhw8crJ+v0qa70BVNd6fmprvQ+TUilAAzD4wKrLK66SFeD7voGnQssQvaKCyxTcWWdeUW4GqTWN4g7V/XXg5agohbcKy/KnEnuFQtiuz8Elq+I7WXnKiHIxyRBuUYSlEv0VaAODuVBdj58+HgpsuB71lRn+s+nutK3qWKqhHVARRaxzFm/GqTQN+hMXJFD7WZ9g+7dK2/6BsmVOF4R23P+JrY7XA/qAmgo4MT2PkrEdjTU7u5qsNHEdqQ/UHtfl0TlnZKgPF8S5NMMQXbOt+LDh49XYxBZnakzprrS4amu9L9PdqZ+XXGvUio/y5zYnvKQ2G5hPYgIqwmGxHYaSAY9d4X3DVYjGbJNQmzfpEdst9k3SOJetTKxnc560JzY7hrJUJvYXqwIq7KLtSyJyoAkKu0qegGuBEuuFR8+fPg0bDSBVXqa2HrXVFf65qmudGayK32qQmzXaPBO+wYnqLpXXl0NNgoomvOI2I5dDZLcKyZIBmurwSFKfYN6qTMz9wrJXdEmttPsG3R3NWjOvPIIKFrU/96VC0EZMq1uTAjyeyRBeRp3rPjw4eO7gcJK/yy9c6a60h+e7Er/YKIzfUBbBabAhO5aQaHlAijqXlxteNA3iH7f7EBRpBLHxtWgfSSD9dUgTaDooMfB9tYAihbouFfo99jVIOJeFctrQU1g7ZdE5ZcJQf5HSZCfWYaFcvQCHz58/Dy6yJrsSrdNdKXPm+xMXwkBpRNd6WOTEbguLIfai80JFDUKLGrMKxTLQASKunevRl31DSIZLKZ9g1sM+wb1q8FNz1aDrN2rpgWKknJXxlB7Eb7yalBQV4PHJFHJSaLSL4nKC7T+QF7MzIcPnwCNLrDG4Gdn+qyJrtRLJ7vSQ5ORtFItsOxDRYMhsMjrQberQUPuKqqLHFxcucte6eLKVt8gKq4sXg1aXw/aE1fO+wZRYrt3fYOouOICi5nA2iuJyqwkKi+XROUp2nUgFFdcYPHhwydgAwWW/iY6Um2TkfRzJrtSXROR9OxkJL1HFU9qHksVT0U260F7xPZxqsR2ct8gjexV2cXyG7Gded+gA6goaT3oQ2I7zUoc2sR2/GrQV8R2bD0I14HYevBAQlSul0TlDZIgPxvPWfEgOx8+fAI5qsBqR4RWZKNtMrLxwsnIxnsnI+nPTUY2DqjiqYbQcrceRAUWRmzv8orYnvE1sZ10ORhUYrulShzL7lUzEttJzCvr60FfE9sFKKxKoXbt73c8ISpfSIjKX0mi/DJJVDh2gQ8fPs05k5F022REdbKgyIJi6yWTkfTHJyMb35iMbMiIm6UKrYmudJG0GqTiXnGgaJWoGnWMZLC3GrSXu6pPbLeFZLDlXrELtpu6VxRyV1TcKxQoSs29og8UleAasCrgXnhIEuXvJAQlkRCUV6rBde5W8eHDpxUGiivtpXWx9aLJrvRVk5H0PZORjYNlN6sCKC3SQTJseAIUxa8GgwQUtS6wTJAMHCjqyL2iDRS1hmSwcDVI6Bt0CxTFnSuH7pUmrNRKm7LYOtgryvdJojzRKxZeoWarSjwrXnHDhw+fFhVaZcH1ysnIxtxk14Y80bVxfCKyccoIFNWElv+Aonj2qhJqp70aHGMAFHW1GozWvxa03zforMzZ7WoQvRoc8gAoahBYLQQUdZG7gqKqiDGv4K8d6xXlvb2ifE2vKF/cK8pt8EmlTz58+PBp2UEE1o6JLvXzBROR9KcmIhsFTWClNYHVRVlgMS90piCwotWXg8arQfdYBlRc2XOvnIkrt7krszoct32D+tUgy75BErGdBVSUisCKsxVYfS4EliRoAfZeQd7dK8pDvaL84l5RPksXV71iodH/b40PHz58/DEGJ0sVWRvPmoxsXDARSX9sIrLxOzV7BdeFlVxVDbFl7WoQvxykQ2ynvB6sSWzHLwfdrQdZENvxShxaUNGmIrZTvhokrwfztonteNUDbOgAABCpSURBVPaKNrHdhoOlrQOhsIoX9F9b7hXlKyVBvrBXkM+RhEJJWFUeHz58+PBBRhdZExHt4nA8kn72eCQdmYhsfHw8kv5RWTjp5dFVQssPxHZGfYMBJbaz7BukTWxntRpEc1eN6RsMIrFdC7CroqpyNXh3ryBf1SvKr+0V5HP1NSAXVnz48OFjcaC4mkCE1kQkfeZEJH3pRGRjciKSvmuia+NhzLmCQqtoCyga8SlQlMS8otw36Gw1iF4NWiO2u0MyUHKv6iAZ8KtBVtkrL/oG+2i4Vzqxncpq0CisLKwFK1eB6v+2+vVBKS7/vFeQ53pF+S29r5WfykUVHz58+FAYo9BSX3Q8kp6eiGz870RkY/dEZONJVVhpjlZJbJFXg/jVIKvVIBWgaF33ynmg3TVQtJs1UHSTIVC0NvOquYGi1tyrPsqrQQvMqyKy/gOS5ljtLTlWc72C/MZeQW5TH89Z8eHDhw8jodWVhqtD+P15E5GNj05ENu6diKSPTnSljxPcKyi2irh7pYsiGuJKB4q6dq/0q0G0EgfJYFX3DboXWtauBrO2VoPOgu05OkBRW32DWt7Ki2B78wNFHblXUFQVS2IKiiroXp2Q4vLhXkFO9gryf0jxwnOleEETVsjjw4cPHz6UB3Oy9O/Pm4ik/2Iikv6ihnfIgPGu+gKLTvZKF1da9sp17orUN1gWOQ0sc3Z5Nei2b9AWlsFh3+BA0wss6+tBZ+6VfYGFOVdHewX5tl5Bfk+vIJ/dK8inaYKqIrD48OHDhw/jQUXWuFrBk37aRCT9vInIRmwikpmYiGTSGtoBvRzcKNLvG9SRDJTKnLHsVUVckfoGnWWu7F0Nul8P+pfYrosrtpU4LMqc/U1srxZWyHpQFVTaK/9aqleQZ3sF+U29gvy8XkF+mi6oNPeKIxf48OHDx/MxullQbKmf509EMpdNdGU+MRHJ/M9EJPME1jdYpNk3SBPJgF4ONp7YbtI3WCfQ7qwSp36ZM1Fckdwri1eDePYqKMR2vBKHCrGdcDXorG/QyLzqq+JXldeBJ3sF+XYpLvf2CvLlvYL8wl5BPl2K81UgHz58+PhqJiIZ4+vKtE10Zs6YiGyEJ6KZqyaiG1+ciGRWxqOZJ3FhNRbZKLpzr7JM3SsazCvHSIbyarB+JQ4LJAPuXg1Zca967LhX7K4GUXFF+2rQ3L3yC7FdQyyURVbJteoVChkpLn9Niheu6hXkHikuP5Xnq/jw4cMnIGMQWaqzpX5/3kR040PjkcxXxiKZ9fHIxt7xaOYUdLTGKo6UBaFlvBqkcjlYElfl/FbV1SAd98pa7spfQFFbzCsb7pX+a0EGitJAMpAuB91cDUKnqhooWjjQGy+sSXH5Vile+OdeQT6fB9f58OHDJ+AzEc2U33h0o20KrhGjmVeNRzP945HMr8ejmQNjkY1jqthSV4glsVVaJZLXgrq4ogQUxYLtFfeKJK487BtkChR11jdYczVos2+QpXvla6AoFmp36V4Vq9yruCqyjvcJ8sO9gvyAFJdnJUG+mK//+PDhw6cJRxdYw+pnZsd4NHPaeGTjzPFI5o3j0cw149GNPMGxMhFY1VeDrrNXsVp9g6hQcu5iDdvtG7RY5kzKXVm/GrRObDeFivb4r2+wsQIr3zCBBVeBvXF5f59QuKlXkC+TBPlsCWarBHkHDKvrzhUfPnz48GmiGdfEVeWpVTyZs8YjmXPGoxsvG49k3j4ezdwwHs0ohNVgMYjEdlfrQbgajAaE2G6awSIR272Divqa2I6G262vB1VBBYUUXA9qn6rA2tcnyF/rE+R39QryK/oE+dxeQT6rL15ok+A1YPkikIsrPnz48GnqGY/oIqsitsaimTPGo5k/HY+qrta/jUc3vjoe3dijZ7Qq4XhVCBWDRGx3VIljYz3onNhuLqqCSGxn5V4xI7aXhJaFq8Gi+teUnS41e5XvEwrf6hXkRJ9QeEOfIL+mT5DP6o0X2vp0zAIXVHz48OHTulPlbGnrxDPHo5nQeDTzD2ORjWvHI5k7xyPZTRP3qqgLLtu5q2gtoKh7YrtzJIM15pV792rLk75BPXtVdeXHQFzRdK8aSGwv9sa19Z+69qv8+lZvvHBXn5C/tk8o/H2fIEf7hMLZUFD1xWVVWOmPDx8+fPjwKQ8UV/pnSWi1jUVz8OvoeDT7b+PR7FfHotnfjEWz+dFo9sgovP5TLxErn3XFVssBRe25V3T6BtG1YPVqkPpa0Fd9g7WBomZ9gxVBpV0Ganmq/BHoVPXG8w/0xvO39sXzH++N57v7hMLpMFPFBRUfPnz48HE05axWSXCNRbNto9Hsy0ej2f83Fs18bSyaLYxFs4fGotljY9HsqbGKyEJfsRZQdKwKKEoKt3voXkWtA0WdE9td9A3aYl41K1DUZh1OT5V7pYkpmKPScQvaf3aqTygc643nD/UKBRhW/58+ofDRPiH/Z73xfFufKqqMjw8fPnz48HE8msDKagIrkoEi67QxTXCdPRbNvmcsmr1uLJrdUgnxqkOVqS+wDOIKJ7a7E1fWg+0kqGj9q8FhymXO+NUgnb7BBgssSsF2NgKr5FYh60HVuYrn831C/oY+ofC+PqFwXp9QOKNPKOzoE/JtmsCqiCw+fPjw4cOH2oxGNJGlOVlQYKki62lj0ex5Y9Hsn4xGs68di2alsUj2jrFo9ogmqBCxFckWWRLb8UocfxHb7V0NmhLb60JFW43YbulqsNgHRRW6Hoyr7tWJXqHwoz6h0NcXL7ypTyhc0BvPn9snFJ6uhdX1x4UVHz58+PDxaHShhT7obo1Fs88di2YvHo1k3jQWyX54LJL59Fg0+8uxSPZxA5i0EmYv0iS221sP+pPYXpd5xYntNZlXfT35In41CNeA/ULh8b54Ybkvnr+xV8j/Q59QeHOfUNjZJxSe1ycUTiOtALlbxYcPHz58fCq4Mi8di2TeNhbJfnI0mvnsWCz73bFY9vej0exjGlSUJKyyRbe5K9pIBty5sudeWQOKWnav6gJFW4jYXhJTfT2qsMLdq6P98cJyv1D4Plz99ccLn+oTCu/pFQqvmoOuFCFX1Svk+f8n4cOHDx8+/hyj0NLC8WNwvfj67I6xaPaisWj2A6Ox7MJILPu90VjmN6Ox7MZoLLd/NJY7iTtY2vpQhX4WGwkUdce8ogQU7WluoChpLWgQWD3bRVRs9eGuVU/+QF9PPtvfk/9tf7zww/6ewq7+eOGv+4VCqF8oPKW/LKI0IQVXf3z48OHDh09gZyyWrXqjsWzbuPqZuWA0lv2r0VhufjSWu3s0mpNHY7lHRmO5x0ZjueOjsVxxVBVBZKr7SLTidll3r7zsG9xqWqAo7TJng3ulOlP619uqOwU/+zWX6lR/vPBEfzz/WH+88EhfvLC7P164tz9e+HR/vPA3/fHCq/vj+bb+nnxbf7zQBoUV+vjw4cOHD5+mGtXJQgSW9jLwc8doLHfaSCx32mgs99zRWO6No7Fc32gs953RWO5Bo7jKlcGkqMBy3DdoYTVIcq+s9w1ygeVwPVjsR5hamrBShdbJvp7CVn+88P2+eH64P55/W3+88Pz+ngIUU6f19xR2QGGlrv8wgcWHDx8+fPg0/WACq200mmsbjeXaRrTPs0ZjuWdqYiv7otFY7qLRWO6Do7Hc+Ggs963RWHa7IrYqogkTVkV/ENs3PSC241BR7MqPoXvlej2oOlWaM2VYD+qOVTyf6o/nv9Mf357vi+f/rj+eD/fHC+f3xwvP7YsXntnfk39Knyau2mD3nyqodGEV5ytAPnz48OHDRxVYxpdtG4lqbzSWe8ZoLHf+aCx34Wgs99rRaPYdo7HcJ0ZjuaWRaO7W4VjuvpFYbr+Wp0IC71FMYEWh8GoWYnvt9SD13BVhNWhlPQizU8jX6K+rrlTp+9398fz9/T357/XFt6/rj+ev7O/Jv7M/no/3x/MX9ce3X9wfz5/d17PZpgsqTUzpX3MxxYcPHz58+DgUXNiL5p46Gsu9eCSW6xqO5d4xEst9ZCSW6xuJ5T49Est9dSSWu2skllsbiWX3jsRyjxvdK+1BQYSJqqJz5lUjiO3mfYPeEds1AWVwsnQBZqS6nxyI5x/pj+cfGIjnfzLQs/3NgXj+MwPx/NBAPP+3/fH8u/ri+Z7+eP6C/nj+6WqOqvy2S5+aoOLDhw8fPnz4UB59nai/kViubVhdL2bVr0diudNHYrmXjcRyrx+J5T48EssOjcRy147ENr8/Etu8ZySa+/VIbHN1pDunjMQ294/ENh8bjuWeVAVXyclSRRLy9RB0w1BBFcsVayMZXAJFbfUN6kgG6u5VcbC7JJC6LQXbTw3E84cG4vmHBuL5/EA8vzYQz/9+IJ7/xUA8f1t/T/6mgXh+qj+ev2Ignn9Df3z7VQPx/NMG4vk2+KCAgtkpVFjx4cOHDx8+fBo8JXFFeHDNWP7+3JHo5p+OxDYvG+ne/ORI9+bMSHfuSyPdm3eNdG+mRro394x0bz400r25b6R78+BI9+ah4e7NI0Pdm8eGuzdPDHVvnjSwsEoumCa6dAdKE2faIzKvih4BRYvwob82AP93S4LJRkbr1GDP9onB7q3jAz3bR/rj+cMDPdsHB+L5fdrb3j0Qz+cG4vmf9cfzn+/vyU8MxPP/MhDPXz4Qz3cOxPPnDcBcVI8mpEiPDx8+fPjw4ROQKQssNcdVcrnU7zfbRmKbbSPdmzuwB3/tvJHuza6RblWA/etw92b/UPfm1UPdm98a7s79Yqh7cx11rIZQdytmuW+wtsDqtiuwKlBRksDC13wDmNgirgNVt0pdPZ4c7NneHuzZ+vlg99YdAz3b1/TDlV5P/j8GevKvhU7UQDz/LNWB6snv6I/ndwxUXhsUVvpnf8922anioooPHz58+PBpklFFFXwVgWV8cNWofX3GSPfmWSOx3B8OdW8+c6h78znDsc3nDndvPn+4e/NPhrs3XzbcvfnioVhOHI7lPjDcvfmh4e7Nvxvu3pwa7t76zHD31meHu7duHO7e+u6wKsi2Voe7N+G7f6h761EopOqvBzdLuSqyuKr8Z4ScFC6gurcODvZspwZ7tlYGerbXBnu2Vwd7tn802LN182D39nWDPdufG+zZXhzs2f7rwZ7tDw32bP/fwZ7t+ED31osGe7ZfOtiz/cLBnu3nD3ZvPW+gZ/ucfk1QnT0Qz585EM+fpQun8kNEFXep+PDhw4cPnxafKsHVvakKrqHSp/Y0Eab9Ovw69/Th7s1nDHdv/eFw99b5w92bLxnu3nrpcPfWy4e7t14z3L0VHe7ejJRe11D35qWD3VvvHOreervhxbbePti9+fahnq13DPVs/tVQ95Y01LM1NNSzNVD9NuHn0FD39n8OdW/93WDP9tsHSm+w+r1joHv79YM927HBnu0I8i4e7Nm+YLBn+yWDPdsvG+zZhmLqDwZ7tp8x2LP9hwPdW22DPdttgz3653bbYPdW20CPFjZHc1N8zceHDx8+fPjwoTLVgmvL8IbQ72PGXx8sfRperPSpCppN+PnsoZ6tPxrq2Tq3+m3Czz8a6tl+pvr3U8XPtip+ymKoJIjg50B35deq/hrCQ/96Pnz48OHDhw+fQA8UV9aeKsDahnq2DY8PHz58+PDhw4cPHz58+PDhw4cPHz58+PDhw4cPHz58+PDhw4cPHz58+PDhw4dPW+Dn/wMRhmUO215DCQAAAABJRU5ErkJggg==;" parent="1" vertex="1">
          <mxGeometry x="120" y="546" width="70" height="70" as="geometry" />
        </mxCell>
        <mxCell id="KTqyMOsDN6SB3SA29uWS-3" value="" style="edgeStyle=orthogonalEdgeStyle;rounded=0;orthogonalLoop=1;jettySize=auto;html=1;" parent="1" source="KTqyMOsDN6SB3SA29uWS-2" target="cswYQk34HTQEtEmIS-BW-18" edge="1">
          <mxGeometry relative="1" as="geometry">
            <Array as="points">
              <mxPoint x="250" y="739" />
              <mxPoint x="250" y="600" />
            </Array>
          </mxGeometry>
        </mxCell>
        <mxCell id="KTqyMOsDN6SB3SA29uWS-2" value="Polygon PoS&lt;br&gt;Snapshot&lt;br&gt;Service" style="sketch=0;outlineConnect=0;fontColor=#232F3E;gradientColor=none;fillColor=#232F3D;strokeColor=none;dashed=0;verticalLabelPosition=bottom;verticalAlign=top;align=center;html=1;fontSize=12;fontStyle=0;aspect=fixed;pointerEvents=1;shape=mxgraph.aws4.traditional_server;" parent="1" vertex="1">
          <mxGeometry x="132.5" y="700" width="45" height="78" as="geometry" />
        </mxCell>
      </root>
    </mxGraphModel>
  </diagram>
</mxfile>
